linjasuwi.sfdir
StartChar: exclam
Encoding: 33 33 236
Width: 169
Flags: W
HStem: 53.3516 100<44.225 125.776>
VStem: 35 100<62.5766 144.127> 60.0078 50<260.553 285.352 583 607.799>
LayerCount: 3
Fore
SplineSet
110.0078125 583 m 2xa0
 110.0078125 596.797851562 98.8056640625 608 85.0078125 608 c 0
 71.2099609375 608 60.0078125 596.797851562 60.0078125 583 c 2
 60.0078125 285.3515625 l 2
 60.0078125 271.553710938 71.2099609375 260.3515625 85.0078125 260.3515625 c 0
 98.8056640625 260.3515625 110.0078125 271.553710938 110.0078125 285.3515625 c 2
 110.0078125 583 l 2xa0
135 103.3515625 m 0xc0
 135 75.73828125 112.6171875 53.3515625 85 53.3515625 c 0
 57.38671875 53.3515625 35 75.73828125 35 103.3515625 c 0
 35 130.96484375 57.38671875 153.3515625 85 153.3515625 c 0
 112.6171875 153.3515625 135 130.96484375 135 103.3515625 c 0xc0
135 103.3515625 m 1024
EndSplineSet
EndChar
StartChar: quotedbl
Encoding: 34 34 237
Width: 342
Flags: W
VStem: 45 50<361.119 385.918 583 607.799> 245.004 49.9961<361.108 385.907 582.999 607.799>
LayerCount: 3
Fore
SplineSet
270.00390625 608 m 0
 256.206054688 608 245.00390625 596.797851562 245.00390625 583.000976562 c 2
 245.00390625 385.907226562 l 2
 245.00390625 372.108398438 256.202148438 360.907226562 270 360.907226562 c 0
 283.797851562 360.907226562 295 372.108398438 295 385.905273438 c 2
 295 582.999023438 l 2
 295 596.797851562 283.801757812 608 270.00390625 608 c 0
95 583 m 2
 95 596.797851562 83.7978515625 608 70 608 c 0
 56.2021484375 608 45 596.797851562 45 583 c 2
 45 385.91796875 l 2
 45 372.120117188 56.2021484375 360.91796875 70 360.91796875 c 0
 83.7978515625 360.91796875 95 372.120117188 95 385.91796875 c 2
 95 583 l 2
EndSplineSet
EndChar
StartChar: numbersign
Encoding: 35 35 205
Width: 622
Flags: W
HStem: 58 21G<208 222 402 416> 208 50<37.1976 190 240 384 434 586.802> 408 50<37.1976 190 240 384 434 586.802> 588 20G<208 222 402 416>
VStem: 190 50<58.1976 208 258 408 458 607.802> 384 50<58.1976 208 258 408 458 607.802>
LayerCount: 3
Fore
SplineSet
62 258 m 2
 190 258 l 1
 190 408 l 1
 62 408 l 2
 48 408 37 419 37 433 c 0
 37 447 48 458 62 458 c 2
 190 458 l 1
 190 583 l 2
 190 597 201 608 215 608 c 0
 229 608 240 597 240 583 c 2
 240 458 l 1
 384 458 l 1
 384 583 l 2
 384 597 395 608 409 608 c 0
 423 608 434 597 434 583 c 2
 434 458 l 1
 562 458 l 2
 576 458 587 447 587 433 c 0
 587 419 576 408 562 408 c 2
 434 408 l 1
 434 258 l 1
 562 258 l 2
 576 258 587 247 587 233 c 0
 587 219 576 208 562 208 c 2
 434 208 l 1
 434 83 l 2
 434 69 423 58 409 58 c 0
 395 58 384 69 384 83 c 2
 384 208 l 1
 240 208 l 1
 240 83 l 2
 240 69 229 58 215 58 c 0
 201 58 190 69 190 83 c 2
 190 208 l 1
 62 208 l 2
 48 208 37 219 37 233 c 0
 37 247 48 258 62 258 c 2
384 408 m 1
 240 408 l 1
 240 258 l 1
 384 258 l 1
 384 408 l 1
EndSplineSet
Validated: 1
EndChar
StartChar: dollar
Encoding: 36 36 238
Width: 371
Flags: W
HStem: 145 49<114.519 162 212 267.414> 310 50<108.288 262.673>
VStem: 38 50<379.312 460.65> 162 50<64.1976 89 145 148.232 522.927 525 583 607.802> 285 50<212.812 287.768>
LayerCount: 3
Fore
SplineSet
38 418 m 0
 38 341.873133134 115.721590997 310 186 310 c 0
 188 310 236 307 264 288 c 0
 277 279 285 269 285 251 c 0
 285 231 274 214 244 203 c 0
 229 197 210 194 187 194 c 0
 134 194 99 221 85 245 c 0
 81 252 72 258 63 258 c 0
 45 258 31 238 41 221 c 0
 61 186 104 152 162 145 c 1
 162 89 l 2
 162 75 173 64 187 64 c 0
 201 64 212 75 212 89 c 2
 212 145 l 1
 278.610213514 152.401134835 335 187.245741839 335 251 c 0
 335 314.724402046 280.611965792 343.344849307 230 354 c 0
 206 359 188 360 186 360 c 0
 145.095016172 360 88 373.179387574 88 418 c 0
 88 440.934211079 94.6827522751 453.841376138 111 462 c 0
 125 470 150 475 187 475 c 0
 243 475 270 455 289 423 c 0
 293 416 301 411 310 411 c 0
 328 411 342 432 332 449 c 0
 321 468 304 489 275 505 c 0
 258 514 237 521 212 524 c 1
 212 583 l 2
 212 597 201 608 187 608 c 0
 173 608 162 597 162 583 c 2
 162 525 l 1
 91.1300692857 519.845823221 38 491.739362098 38 418 c 0
EndSplineSet
Validated: 41
EndChar
StartChar: percent
Encoding: 37 37 218
Width: 558
Flags: W
HStem: 88 50<385.037 466.963> 238 50<385.037 466.963> 378 50<95.0366 176.963> 528 50<95.0366 176.963>
VStem: 36 50<437.037 518.963> 186 50<437.037 518.963> 326 50<147.037 228.963> 476 50<147.037 228.963>
LayerCount: 3
Fore
SplineSet
81 143 m 0
 81 129.202148438 92.2021484375 118 106 118 c 0
 113.270507812 118 119.8203125 121.110351562 124.390625 126.072265625 c 2
 474.390625 506.072265625 l 2
 478.493164062 510.526367188 481 516.47265625 481 523 c 0
 481 536.797851562 469.797851562 548 456 548 c 0
 448.729492188 548 442.1796875 544.889648438 437.609375 539.927734375 c 2
 87.609375 159.927734375 l 2
 83.5068359375 155.473632812 81 149.52734375 81 143 c 0
501 188 m 1025
476 188 m 0
 476 160.369140625 453.630859375 138 426 138 c 0
 398.369140625 138 376 160.369140625 376 188 c 0
 376 215.630859375 398.369140625 238 426 238 c 0
 453.630859375 238 476 215.630859375 476 188 c 0
526 188 m 0
 526 243.212890625 481.212890625 288 426 288 c 0
 370.787109375 288 326 243.212890625 326 188 c 0
 326 132.787109375 370.787109375 88 426 88 c 0
 481.212890625 88 526 132.787109375 526 188 c 0
186 478 m 0
 186 450.369140625 163.630859375 428 136 428 c 0
 108.369140625 428 86 450.369140625 86 478 c 0
 86 505.630859375 108.369140625 528 136 528 c 0
 163.630859375 528 186 505.630859375 186 478 c 0
236 478 m 0
 236 533.212890625 191.212890625 578 136 578 c 0
 80.787109375 578 36 533.212890625 36 478 c 0
 36 422.787109375 80.787109375 378 136 378 c 0
 191.212890625 378 236 422.787109375 236 478 c 0
EndSplineSet
EndChar
StartChar: ampersand
Encoding: 38 38 239
Width: 448
Flags: W
HStem: 58 50<131.089 262.953> 558 50<132.719 282.8>
VStem: 36 50<152.25 281.751> 62.457 50<429.774 541.148> 309.543 50<445.347 531.729>
LayerCount: 3
Fore
SplineSet
312.081054688 185.209960938 m 1xe8
 270.854492188 242.801757812 219.819335938 283.849609375 170.994140625 324.959960938 c 1
 148.75 313.444335938 128.873046875 301.526367188 114.358398438 288.572265625 c 0
 95.4697265625 271.71484375 86 254.903320312 86 233 c 0
 86 175.590820312 106.053710938 145.737304688 132.032226562 128.559570312 c 0
 153.454101562 114.395507812 181.8359375 108 211 108 c 0
 247.955078125 108 284.245117188 141.733398438 312.081054688 185.209960938 c 1xe8
36 233 m 0
 36 297.193359375 86.1640625 335.28125 130.71875 360.328125 c 1
 122.928710938 367.66796875 115.518554688 375.096679688 108.606445312 382.723632812 c 0
 82.4609375 411.573242188 62.45703125 444.922851562 62.45703125 485.91796875 c 0xd8
 62.45703125 525.046875 74.7294921875 561.412109375 108.075195312 583.7421875 c 0
 133.825195312 600.984375 167.850585938 608 211 608 c 0
 280.610351562 608 359.54296875 568 359.54296875 485.91796875 c 0
 359.54296875 451.702148438 341.389648438 425.076171875 318.418945312 405.403320312 c 0
 290.969726562 381.89453125 255.364257812 365.241210938 220.298828125 348.838867188 c 1
 258.139648438 317.061523438 301.076171875 280.41015625 338.510742188 233.1640625 c 1
 354.512695312 266.681640625 362.862304688 293.379882812 362.862304688 293.379882812 c 0
 366.040039062 303.536132812 375.528320312 310.9140625 386.7265625 310.9140625 c 0
 402.594726562 310.9140625 415.952148438 295.579101562 410.590820312 278.448242188 c 0
 410.3046875 277.532226562 397.043945312 234.666015625 370.978515625 186.728515625 c 1
 388.337890625 158.258789062 403.290039062 126.390625 414.302734375 90.296875 c 0
 419.518554688 73.2060546875 406.189453125 58 390.38671875 58 c 0
 379.126953125 58 369.595703125 65.4599609375 366.470703125 75.703125 c 0
 359.529296875 98.4482421875 350.82421875 119.315429688 340.7734375 138.618164062 c 1
 310.6328125 97.3623046875 268.052734375 58 211 58 c 0
 174.9765625 58 136.856445312 65.431640625 104.505859375 86.8232421875 c 0
 63.26953125 114.08984375 36 162.631835938 36 233 c 0
309.54296875 485.91796875 m 0
 309.54296875 528 267.522460938 558 211 558 c 0
 173.103515625 558 149.317382812 551.188476562 135.845703125 542.166992188 c 0
 120.165039062 531.666015625 112.45703125 515.768554688 112.45703125 485.91796875 c 0
 112.45703125 462.208984375 123.434570312 440.8046875 145.66015625 416.28125 c 0
 154.969726562 406.008789062 166.095703125 395.469726562 178.498046875 384.475585938 c 1
 217.125 402.673828125 262.676757812 423.483398438 285.921875 443.390625 c 0
 302.512695312 457.600585938 309.54296875 470.401367188 309.54296875 485.91796875 c 0
EndSplineSet
EndChar
StartChar: quotesingle
Encoding: 39 39 240
Width: 138
Flags: W
HStem: 414 194<44.1976 93.8024>
VStem: 44 50<414.198 439 583 607.802>
LayerCount: 3
Fore
SplineSet
94 583 m 2
 94 597 83 608 69 608 c 0
 55 608 44 597 44 583 c 2
 44 439 l 2
 44 425 55 414 69 414 c 0
 83 414 94 425 94 439 c 2
 94 583 l 2
EndSplineSet
Validated: 9
EndChar
StartChar: parenleft
Encoding: 40 40 201
Width: 303
Flags: W
VStem: 38 50<211.388 440.505>
LayerCount: 3
Fore
SplineSet
273 634 m 0
 273 652 254 665 237 656 c 0
 236 655 38 554 38 326 c 0
 38 98 236 -4 237 -5 c 0
 254 -14 273 -1 273 17 c 0
 273 27 268 35 260 39 c 1
 260 39 88 129 88 326 c 0
 88 523 260 612 260 612 c 1
 268 616 273 624 273 634 c 0
EndSplineSet
Validated: 41
EndChar
StartChar: parenright
Encoding: 41 41 202
Width: 302
Flags: W
VStem: 215 50<218.495 447.551>
LayerCount: 3
Fore
SplineSet
67 664 m 0
 68 663 265 561 265 333 c 0
 265 105 68 4 67 3 c 0
 63 1 59 0 55 0 c 0
 42 0 30 11 30 25 c 0
 30 35 35 43 43 47 c 1
 43 47 215 136 215 333 c 0
 215 530 43 619 43 619 c 1
 35 623 30 631 30 641 c 0
 30 655 42 667 56 667 c 0
 60 667 63 666 67 664 c 0
EndSplineSet
Validated: 1
EndChar
StartChar: asterisk
Encoding: 42 42 203
Width: 616
Flags: W
HStem: 308 50<33.1976 260 356 582.802>
LayerCount: 3
Fore
SplineSet
33 333 m 0
 33 347 44 358 58 358 c 2
 260 358 l 1
 137 534 l 2
 134 538 133 543 133 548 c 0
 133 561 144 573 158 573 c 0
 166 573 174 568 179 562 c 2
 308 377 l 1
 437 562 l 2
 442 568 450 573 458 573 c 0
 472 573 483 561 483 548 c 0
 483 543 482 538 479 534 c 2
 356 358 l 1
 558 358 l 2
 572 358 583 347 583 333 c 0
 583 319 572 308 558 308 c 2
 356 308 l 1
 479 132 l 2
 482 128 483 123 483 118 c 0
 483 105 472 93 458 93 c 0
 450 93 442 98 437 104 c 2
 308 289 l 1
 179 104 l 2
 174 98 166 93 158 93 c 0
 144 93 133 105 133 118 c 0
 133 123 134 128 137 132 c 2
 260 308 l 1
 58 308 l 2
 44 308 33 319 33 333 c 0
EndSplineSet
Validated: 1
EndChar
StartChar: plus
Encoding: 43 43 204
Width: 568
Flags: W
HStem: 308 50<34.1976 259 309 533.802>
VStem: 259 50<83.1976 308 358 582.802>
LayerCount: 3
Fore
SplineSet
59 358 m 2
 259 358 l 1
 259 558 l 2
 259 572 270 583 284 583 c 0
 298 583 309 572 309 558 c 2
 309 358 l 1
 509 358 l 2
 523 358 534 347 534 333 c 0
 534 319 523 308 509 308 c 2
 309 308 l 1
 309 108 l 2
 309 94 298 83 284 83 c 0
 270 83 259 94 259 108 c 2
 259 308 l 1
 59 308 l 2
 45 308 34 319 34 333 c 0
 34 347 45 358 59 358 c 2
EndSplineSet
Validated: 1
EndChar
StartChar: comma
Encoding: 44 44 221
Width: 196
Flags: HW
HStem: 20.4727 129.375
LayerCount: 3
Fore
SplineSet
37 45.47265625 m 0
 37 31.6748046875 48.2021484375 20.47265625 62 20.47265625 c 0
 68.533203125 20.47265625 74.484375 22.984375 78.9404296875 27.09375 c 0
 83.0751953125 30.9072265625 87.595703125 34.72265625 92.5048828125 38.8544921875 c 0
 110.926757812 54.3603515625 134.620117188 74.671875 154.53515625 113.452148438 c 0
 163.440429688 130.793945312 149.913085938 149.84765625 132.28125 149.84765625 c 0
 122.586914062 149.84765625 114.173828125 144.318359375 110.02734375 136.243164062 c 0
 89.7958984375 96.8466796875 70.7001953125 87.4990234375 45.0595703125 63.8515625 c 0
 40.10546875 59.2822265625 37 52.7373046875 37 45.47265625 c 0
EndSplineSet
EndChar
StartChar: hyphen
Encoding: 45 45 215
Width: 438
Flags: W
HStem: 308 50<44.1976 393.802>
LayerCount: 3
Fore
SplineSet
69 358 m 2
 369 358 l 2
 383 358 394 347 394 333 c 0
 394 319 383 308 369 308 c 2
 69 308 l 2
 55 308 44 319 44 333 c 0
 44 347 55 358 69 358 c 2
EndSplineSet
Validated: 1
EndChar
StartChar: period
Encoding: 46 46 211
Width: 182
VWidth: 0
Flags: W
HStem: 37 100<49.4375 132.562>
VStem: 41 100<45.4375 128.562>
LayerCount: 3
Fore
SplineSet
141 87 m 1024
141 87 m 0
 141 59 119 37 91 37 c 0
 63 37 41 59 41 87 c 0
 41 115 63 137 91 137 c 0
 119 137 141 115 141 87 c 0
EndSplineSet
Validated: 1
EndChar
StartChar: slash
Encoding: 47 47 212
Width: 264
VWidth: 0
Flags: W
LayerCount: 3
Fore
SplineSet
231 576 m 2
 236 593 223 608 207 608 c 0
 196 608 186 600 183 590 c 2
 33 90 l 2
 28 73 41 58 57 58 c 0
 68 58 78 66 81 76 c 2
 231 576 l 2
EndSplineSet
Validated: 41
EndChar
StartChar: zero
Encoding: 48 48 225
Width: 433
Flags: W
HStem: 58 50<144.132 289.862> 558 50<144.138 289.868>
VStem: 42 50<169.887 496.57> 342 50<169.43 496.113>
LayerCount: 3
Fore
SplineSet
217 608 m 0
 180 608 149 599 124 584 c 0
 51.6655306488 539.486480399 42 436.493059528 42 333 c 0
 42 290 42 235 55 185 c 0
 66 145 85 106 124 82 c 0
 149 67 180 58 217 58 c 0
 254 58 285 67 310 82 c 0
 382.334469351 126.513519601 392 229.506940472 392 333 c 0
 392 376 392 431 379 481 c 0
 368 521 349 560 310 584 c 0
 285 599 254 608 217 608 c 0
92 333 m 0
 92 447.953771425 98.7365612725 558 217 558 c 0
 335.291828372 558 342 447.988357287 342 333 c 0
 342 218.046228575 335.263438727 108 217 108 c 0
 98.7081716281 108 92 218.011642713 92 333 c 0
EndSplineSet
Validated: 9
EndChar
StartChar: one
Encoding: 49 49 209
Width: 312
Flags: W
HStem: 58 50<36.1976 61 255 279.802>
VStem: 36 244<58.1976 107.802>
LayerCount: 3
Fore
SplineSet
61 108 m 2
 47 108 36 97 36 83 c 0
 36 69 47 58 61 58 c 2
 255 58 l 2
 269 58 280 69 280 83 c 0
 280 97 269 108 255 108 c 2
 183 108 l 1
 183 583 l 2
 183 597 172 608 158 608 c 0
 151 608 145 606 140 601 c 2
 43 504 l 2
 38 499 36 493 36 486 c 0
 36 472 47 461 61 461 c 0
 68 461 74 463 79 468 c 2
 133 523 l 1
 133 108 l 1
 61 108 l 2
EndSplineSet
Validated: 9
EndChar
StartChar: two
Encoding: 50 50 226
Width: 428
Flags: W
HStem: 58 50<363 387.802> 558 50<129.714 311.715>
VStem: 38 50<434.198 517.281> 338 50<383.386 533.16>
LayerCount: 3
Fore
SplineSet
38 459 m 0
 38 445 49 434 63 434 c 0
 77 434 88 445 88 459 c 1
 88 459 88 477 99 500 c 0
 116 536 152 558 213 558 c 0
 293 558 318 537 328 518 c 0
 337 501 338 477 338 451 c 0
 338 419 325 391 298 359 c 0
 277 333 247 306 213 274 c 0
 163 228 103 174 43 99 c 0
 40 95 38 89 38 83 c 0
 38 69 49 58 63 58 c 2
 363 58 l 2
 377 58 388 69 388 83 c 0
 388 97 377 108 363 108 c 2
 117 108 l 1
 163 160 207 201 247 238 c 0
 281 270 312 298 336 327 c 0
 366 364 388 403 388 451 c 0
 388 476 389 511 372 542 c 0
 349 583 300 608 213 608 c 0
 173 608 140 600 115 586 c 0
 83 569 65 544 54 522 c 0
 38 490 38 461 38 459 c 0
EndSplineSet
Validated: 41
EndChar
StartChar: three
Encoding: 51 51 227
Width: 427
Flags: W
HStem: 58 50<129.714 305.892> 308 50<188.198 304.654> 558 50<129.714 308.759>
VStem: 38 50<148.719 231.802 434.198 517.281> 338 50<138.57 278.511 387.489 529.882>
CounterMasks: 1 e0
LayerCount: 3
Fore
SplineSet
323 333 m 1
 358 351 388 383 388 433 c 0
 388 465 389 502 372 536 c 0
 347.256497528 585.487004945 292.237834507 608 213 608 c 0
 173 608 140 600 115 586 c 0
 83 569 65 544 54 522 c 0
 38 490 38 461 38 459 c 0
 38 445 49 434 63 434 c 0
 77 434 88 445 88 459 c 1
 88 459 88 477 99 500 c 0
 116 536 152 558 213 558 c 0
 248 558 273 554 290 547 c 0
 335 529 338 494 338 433 c 0
 338 409 327 394 310 383 c 0
 273 359 213 358 213 358 c 1
 199 358 188 347 188 333 c 0
 188 319 199 308 213 308 c 1
 213 308 273 307 310 283 c 0
 327 272 338 257 338 233 c 0
 338 203 337 175 327 154 c 0
 311 121 271 108 213 108 c 0
 152 108 116 130 99 166 c 0
 88 189 88 207 88 207 c 1
 88 221 77 232 63 232 c 0
 49 232 38 221 38 207 c 0
 38 205 38 176 54 144 c 0
 65 122 83 97 115 80 c 0
 140 66 173 58 213 58 c 0
 292.04308481 58 347.465170041 82.9303400813 372 132 c 0
 388 166 388 204 388 233 c 0
 388 283 358 315 323 333 c 1
EndSplineSet
Validated: 41
EndChar
StartChar: four
Encoding: 52 52 228
Width: 405
Flags: HW
VStem: 306.659 50<58.201 83 583 607.799>
LayerCount: 3
Fore
SplineSet
306.659179688 307.9921875 m 1
 306.659179688 83 l 2
 306.659179688 69.2021484375 317.861328125 58 331.659179688 58 c 0
 345.45703125 58 356.659179688 69.2021484375 356.659179688 83 c 2
 356.659179688 583 l 2
 356.659179688 596.797851562 345.45703125 608 331.659179688 608 c 0
 317.861328125 608 306.659179688 596.797851562 306.659179688 583 c 2
 306.659179688 357.9921875 l 1
 91.533203125 357.9921875 l 1
 135.548828125 578.078125 l 2
 138.833984375 594.501953125 126.04296875 608 111.034179688 608 c 0
 98.9208984375 608 88.80859375 599.366210938 86.51953125 587.921875 c 2
 36.51953125 337.9140625 l 2
 33.234375 321.490234375 46.025390625 307.9921875 61.0341796875 307.9921875 c 2
 306.659179688 307.9921875 l 1
EndSplineSet
EndChar
StartChar: five
Encoding: 53 53 229
Width: 439
Flags: W
HStem: 62 50<69.118 307.944> 85 50<38.351 182.086> 339 50<98 282.84> 558 50<98 397.802>
VStem: 48 50<387 558> 353 50<155.598 287.97>
LayerCount: 3
Fore
SplineSet
213 62 m 0xbc
 163 62 109 71 57 85 c 0
 46 88 38 97 38 109 c 0
 38 123 48 135 62 135 c 0x7c
 64 135 67 135 69 134 c 0
 118 121 169 112 213 112 c 0
 251 112 284 119 307 133 c 0
 335 150 353 178 353 233 c 0
 353 253 348 268 339 280 c 0
 307 323 220 339 148 339 c 0
 101 339 78 334 73 334 c 0
 59 334 48 345 48 359 c 2
 48 583 l 2
 48 597 59 608 73 608 c 2
 373 608 l 2
 387 608 398 597 398 583 c 0
 398 569 387 558 373 558 c 2
 98 558 l 1
 98 387 l 1
 111 388 128 389 148 389 c 0
 188 389 239 385 285 371 c 0
 344 353 403 312 403 233 c 0
 403 117 327 62 213 62 c 0xbc
EndSplineSet
Validated: 8388609
EndChar
StartChar: six
Encoding: 54 54 230
Width: 447
Flags: HMW
HStem: 58 50 334 50
VStem: 363 50
LayerCount: 3
Fore
SplineSet
89 331 m 1
 89 445.942812473 117.878429985 558 238 558 c 0
 261 558 271 558 289 551 c 0
 303 545 323 534 354 512 c 0
 358 509 364 507 369 507 c 0
 383 507 394 518 394 532 c 0
 394 540 389 548 383 553 c 0
 343 582 318 596 293 603 c 0
 273 609 256 608 238 608 c 0
 86.8333229748 608 39 473.609437163 39 333 c 0
 39 293 47 247 63 203 c 0
 89 132 144 58 238 58 c 0
 350.305008638 58 413 131.71794007 413 235 c 0
 413 314 338 384 238 384 c 0
 174.914694508 384 127.174580339 356.449720226 89 331 c 1
238 334 m 0
 300 334 363 297 363 235 c 0
 363 166 307 108 238 108 c 0
 185 108 127 169 112 217 c 0
 90 286 143 334 238 334 c 0
EndSplineSet
Validated: 41
EndChar
StartChar: seven
Encoding: 55 55 231
Width: 441
Flags: W
HStem: 558 50<32.1976 57>
VStem: 112 48<58.0975 140.737>
LayerCount: 3
Fore
SplineSet
57 608 m 2
 43 608 32 597 32 583 c 0
 32 569 43 558 57 558 c 2
 338 558 l 1
 257 431 178 316 112 90 c 0
 107 73 120 58 136 58 c 0
 147 58 157 66 160 76 c 0
 230.867827096 318.809440379 310.889939815 420.992404707 405 570 c 0
 416 587 402 608 383 608 c 2
 57 608 l 2
EndSplineSet
Validated: 41
EndChar
StartChar: eight
Encoding: 56 56 232
Width: 420
Flags: W
HStem: 67 50<135.481 287.461> 335 50<139.674 281.926> 558 50<145.884 281.618>
VStem: 36 50<165.347 290.043> 62 50<410.462 524.457> 310 50<412.272 528.968> 337 49<166.364 289.025>
LayerCount: 3
Fore
SplineSet
86 233 m 0xf2
 86 166 134 117 212 117 c 0
 284 117 337 165 337 232 c 0
 337 292 277 335 209 335 c 0
 151 335 86 295 86 233 c 0xf2
112 458 m 0xec
 112 414 154 385 209 385 c 0
 278 385 310 426 310 459 c 0
 310 526 276 558 211 558 c 0
 150 558 112 520 112 458 c 0xec
211 608 m 0
 307 608 360 554 360 459 c 0xec
 360 409 330 378 297 360 c 1
 342 338 386 298 386 233 c 0
 386 154 326 67 211 67 c 0
 97 67 36 153 36 233 c 0xf2
 36 299 79 338 125 360 c 1
 92 378 62 410 62 459 c 0
 62 551 121 608 211 608 c 0
EndSplineSet
Validated: 8388609
EndChar
StartChar: nine
Encoding: 57 57 233
Width: 412
Flags: HMW
HStem: 311 50 558 50
VStem: 36 50 320 50<177.409 346>
LayerCount: 3
Fore
SplineSet
219 68 m 0
 174 68 135 83 107 100 c 0
 72 121 52 144 51 145 c 0
 47 149 44 155 44 161 c 0
 44 175 55 186 69 186 c 0
 76 186 83 183 88 178 c 1
 88 178 143 118 219 118 c 0
 318 118 319 255 320 346 c 1
 293 326 252 311 192 311 c 0
 144 311 101 336 73 368 c 0
 50 394 36 425 36 458 c 0
 36 536 105 608 211 608 c 0
 245 608 273 601 296 588 c 0
 356 553 370 476 370 390 c 0
 370 371 370 352 370 333 c 0
 370 214 350 68 219 68 c 0
192 361 m 0
 251 361 320 384 320 408 c 0
 320 486 289 563 211 563 c 0
 149 563 86 511 86 458 c 0
 86 402 136 361 192 361 c 0
EndSplineSet
Validated: 1
EndChar
StartChar: colon
Encoding: 58 58 222
Width: 180
Flags: W
HStem: 128 100<49.4375 132.562> 438 100<49.4375 132.562>
VStem: 41 100<136.438 219.562 446.438 529.562>
LayerCount: 3
Fore
SplineSet
141 488 m 1024
141 488 m 0
 141 460 119 438 91 438 c 0
 63 438 41 460 41 488 c 0
 41 516 63 538 91 538 c 0
 119 538 141 516 141 488 c 0
141 178 m 0
 141 150 119 128 91 128 c 0
 63 128 41 150 41 178 c 0
 41 206 63 228 91 228 c 0
 119 228 141 206 141 178 c 0
EndSplineSet
Validated: 1
EndChar
StartChar: semicolon
Encoding: 59 59 223
Width: 186
Flags: W
HStem: 438 100<66.6537 140.707>
VStem: 59 89<444.541 531.459>
LayerCount: 3
Fore
SplineSet
153 488 m 1024
36 118 m 0
 36 125 39 132 44 137 c 0
 65 156 73 165 95 209 c 0
 99 217 107 223 117 223 c 0
 131 223 143 211 143 197 c 0
 143 193 142 190 140 186 c 0
 117 141 102 122 78 100 c 0
 74 96 68 93 61 93 c 0
 47 93 36 104 36 118 c 0
148 488 m 0
 148 460 133 438 105 438 c 0
 77 438 59 460 59 488 c 0
 59 516 75 538 103 538 c 0
 131 538 148 516 148 488 c 0
EndSplineSet
Validated: 1
EndChar
StartChar: less
Encoding: 60 60 224
Width: 419
Flags: W
HStem: 59 21G<355 365> 589 20G<355 365>
LayerCount: 3
Fore
SplineSet
383 584 m 0
 383 576 380 570 374 565 c 2
 97 334 l 1
 374 103 l 2
 380 98 383 92 383 84 c 0
 383 70 372 59 358 59 c 0
 352 59 346 61 342 65 c 2
 42 315 l 2
 36 320 33 327 33 334 c 0
 33 341 36 348 42 353 c 2
 342 603 l 2
 346 607 352 609 358 609 c 0
 372 609 383 598 383 584 c 0
EndSplineSet
Validated: 1
EndChar
StartChar: equal
Encoding: 61 61 206
Width: 539
Flags: W
HStem: 208 50<45.1976 70 470 494.802> 408 50<45.1976 70 470 494.802>
LayerCount: 3
Fore
SplineSet
70 458 m 2
 56 458 45 447 45 433 c 0
 45 419 56 408 70 408 c 2
 470 408 l 2
 484 408 495 419 495 433 c 0
 495 447 484 458 470 458 c 2
 70 458 l 2
70 258 m 2
 56 258 45 247 45 233 c 0
 45 219 56 208 70 208 c 2
 470 208 l 2
 484 208 495 219 495 233 c 0
 495 247 484 258 470 258 c 2
 70 258 l 2
EndSplineSet
Validated: 9
EndChar
StartChar: greater
Encoding: 62 62 207
Width: 419
Flags: W
LayerCount: 3
Fore
SplineSet
61 608 m 0
 47.2021484375 608 36 596.797851562 36 583 c 0
 36 575.28125 39.505859375 568.374023438 45.0107421875 563.787109375 c 2
 321.955078125 333 l 1
 45.0107421875 102.212890625 l 2
 39.505859375 97.6259765625 36 90.71875 36 83 c 0
 36 69.2021484375 47.2021484375 58 61 58 c 0
 67.0791015625 58 72.654296875 60.1748046875 76.9892578125 63.787109375 c 2
 376.989257812 313.787109375 l 2
 388.685546875 323.534179688 388.693359375 342.458984375 376.989257812 352.212890625 c 2
 76.9892578125 602.212890625 l 2
 72.654296875 605.825195312 67.0791015625 608 61 608 c 0
EndSplineSet
EndChar
StartChar: question
Encoding: 63 63 173
Width: 473
Flags: W
HStem: 59 100<195.438 278.562> 523 50<124.721 353.108>
VStem: 36 50<408.198 485.26> 187 100<67.4375 150.562> 212 50<219.198 303.398> 386 50<396.109 493.942>
LayerCount: 3
Fore
SplineSet
287 109 m 1024xf4
36 433 m 0
 36 435 36 461 52 492 c 0
 63 513 83 537 114 553 c 0
 139 566 171 573 211 573 c 0
 287 573 339 565 375 546 c 0
 416 525 436 490 436 433 c 0
 436 363 373 342 333 327 c 0
 286 310 262 299 262 269 c 2
 262 244 l 2
 262 230 251 219 237 219 c 0
 223 219 212 230 212 244 c 2
 212 269 l 2xec
 212 339 276 359 316 374 c 0
 363 391 386 403 386 433 c 0
 386 469 378 489 352 502 c 0
 328 514 283 523 211 523 c 0
 151 523 114 503 96 469 c 0
 90 458 86 443 86 433 c 0
 86 419 75 408 61 408 c 0
 47 408 36 419 36 433 c 0
287 109 m 0xf4
 287 81 265 59 237 59 c 0
 209 59 187 81 187 109 c 0
 187 137 209 159 237 159 c 0
 265 159 287 137 287 109 c 0xf4
EndSplineSet
Validated: 1
EndChar
StartChar: at
Encoding: 64 64 219
Width: 525
Flags: W
HStem: 93 50<186.022 350.95> 208 50<212.748 311.443> 408 50<209.85 314.982> 523 50<186.589 350.91>
VStem: 37 50<246.907 417.022> 137 50<283.127 385.705> 337 50<282.983 384.722> 437 50<259.734 445.181>
LayerCount: 3
Fore
SplineSet
87 333 m 0
 87 421.54451281 165.621099152 523 262 523 c 0
 365 523 437 453 437 369 c 0
 437 344.26450509 435.527953221 262.087992203 411 258 c 1
 404 265 400 278 396 291 c 0
 390 314 387 336 387 336 c 1
 387 337 l 2
 385 399 335 458 262 458 c 0
 187 458 137 397 137 333 c 0
 137 268 193 208 262 208 c 0
 300.348178659 208 335.768841122 227.711051402 356 253 c 1
 364.535502991 232.514792821 379.324659104 208 409 208 c 0
 480.793612207 208 487 300.366576216 487 369 c 0
 487 485 387 573 262 573 c 0
 130.226930731 573 37 444.977248027 37 333 c 0
 37 204 142 93 262 93 c 0
 302 93 339 100 384 126 c 0
 391 130 396 139 396 148 c 0
 396 166 376 179 359 169 c 0
 321 147 296 143 262 143 c 0
 173 143 87 230 87 333 c 0
337 333 m 0
 337 296.052749574 301.585121523 258 262 258 c 0
 222 258 187 296 187 333 c 0
 187 372 217 408 262 408 c 0
 307 408 337 371 337 333 c 0
EndSplineSet
Validated: 41
EndChar
StartChar: A
Encoding: 65 65 0
Width: 519
Flags: W
HStem: 58 21G<51 63.5 452.5 465> 208 50<155 361> 588 20G<252.5 263.5>
VStem: 33 48<58.1971 74> 435 48<58.1971 74>
LayerCount: 3
Fore
SplineSet
361 258 m 5
 258 516 l 5
 155 258 l 5
 361 258 l 5
35 92 m 6
 235 592 l 6
 239 601 247 608 258 608 c 4
 269 608 277 601 281 592 c 6
 481 92 l 6
 482 89 483 85 483 82 c 0
 483 69 472 58 458 58 c 0
 447 58 439 65 435 74 c 6
 381 208 l 5
 135 208 l 5
 81 74 l 6
 77 65 69 58 58 58 c 4
 44 58 33 69 33 82 c 0
 33 85 34 89 35 92 c 6
EndSplineSet
Validated: 1
EndChar
StartChar: B
Encoding: 66 66 1
Width: 436
Flags: W
HStem: 57.0498 50<131.527 290.667> 307.769 50.4746<97 250.135> 557.967 50.0332<97 282.712>
VStem: 332.693 50.2754<424.974 517.995> 347 50.0352<149.464 257.38>
LayerCount: 3
Fore
SplineSet
332.693359375 458 m 0xf0
 332.693359375 444.569335938 332.693359375 433.293945312 328.721679688 424.5625 c 0
 324.431640625 415.12890625 315.458984375 403.087890625 291.30078125 391.026367188 c 0
 258.911132812 374.854492188 199.561523438 360.28125 97 358.243164062 c 1
 97 557.966796875 l 1
 152.366210938 557.776367188 203.741210938 556.514648438 243.645507812 548.415039062 c 0
 280.7578125 540.880859375 305.370117188 528.049804688 318.604492188 509.625 c 0
 327.168945312 497.701171875 332.693359375 481.71484375 332.693359375 458 c 0xf0
97 107.515625 m 1
 97 307.768554688 l 1
 207.666992188 305.672851562 270.573242188 289.663085938 304.274414062 271.750976562 c 0
 329.197265625 258.50390625 338.244140625 245.22265625 342.72265625 233.791992188 c 0
 350.166992188 214.793945312 347.15234375 211.920898438 347 195.841796875 c 0xe8
 347 170.893554688 336.416992188 155.111328125 316.171875 141.71875 c 0
 297.868164062 129.610351562 271.197265625 120.78515625 241.733398438 115.387695312 c 0
 204.966796875 108.651367188 164.526367188 107.049804688 131.52734375 107.049804688 c 0
 118.723632812 107.049804688 107.034179688 107.515625 97 107.515625 c 1
72 58 m 0
 91.052734375 58 108.310546875 57.0498046875 131.52734375 57.0498046875 c 0
 166.142578125 57.0498046875 209.206054688 58.5888671875 250.787109375 66.2060546875 c 0
 284.000976562 72.291015625 316.708007812 82.126953125 343.708007812 99.9873046875 c 0
 374.4296875 120.311523438 397 152.559570312 397.03515625 199.899414062 c 0xe8
 397.237304688 216.116210938 397.500976562 231.06640625 389.295898438 252.006835938 c 0
 380.315429688 274.924804688 361.229492188 298.10546875 327.690429688 315.932617188 c 1
 226 353 229 319 313.587890625 346.263671875 c 1
 345.715820312 362.3046875 364.762695312 383.01953125 374.26171875 403.903320312 c 0
 381.768554688 420.409179688 382.96875 435.818359375 382.96875 446.45703125 c 0xf0
 382.96875 449.629882812 382.866210938 452.372070312 382.693359375 458 c 0
 382.693359375 489.83984375 374.815429688 517.064453125 359.241210938 538.748046875 c 0
 334.924804688 572.6015625 296.004882812 588.814453125 253.629882812 597.416015625 c 0
 197.389648438 608.83203125 136.833984375 608 72 608 c 0
 58.2021484375 608 47 596.797851562 47 583 c 0
 47 416.333007812 47 249.666992188 47 83 c 0
 47 69.2021484375 58.2021484375 58 72 58 c 0
EndSplineSet
EndChar
StartChar: C
Encoding: 67 67 2
Width: 497
Flags: W
HStem: 58 50<178.03 354.242> 567 50<180.371 351.299>
VStem: 35 50<212.167 453.726> 409 50<155.015 205.649 460.351 517.139>
LayerCount: 3
Fore
SplineSet
85 333 m 0
 85 197 148 108 263 108 c 0
 326 108 396 139 409 188 c 0
 412 199 421 206 433 206 c 0
 447 206 459 196 459 182 c 0
 459 180 459 177 458 175 c 0
 437 101 350 58 263 58 c 0
 202 58 138 80 93 137 c 0
 57 182 35 246 35 333 c 0
 35 421 57 486 93 533 c 0
 138 591 203 617 265 617 c 0
 352 617 437 568 458 491 c 0
 459 489 459 486 459 484 c 0
 459 470 447 460 433 460 c 0
 421 460 412 467 409 478 c 0
 396 533 329 567 265 567 c 0
 149 567 85 470 85 333 c 0
EndSplineSet
Validated: 1
EndChar
StartChar: D
Encoding: 68 68 13
Width: 489
Flags: W
HStem: 54 50<82.7684 266.267> 562 50<82.7684 266.267>
VStem: 47 50<104.06 561.94> 397 50<222.94 443.06>
LayerCount: 3
Fore
SplineSet
136 562 m 0
 120 562 107 562 97 561 c 1
 97 105 l 1
 107 104 120 104 136 104 c 0
 179 104 237 110 286 134 c 0
 353 167 397 227 397 333 c 0
 397 439 353 499 286 532 c 0
 237 556 179 562 136 562 c 0
47 583 m 2
 47 595 56 606 68 608 c 0
 69 608 96 612 136 612 c 0
 183 612 248 606 308 577 c 0
 388 538 447 459 447 333 c 0
 447 207 388 128 308 89 c 0
 248 60 183 54 136 54 c 0
 96 54 69 58 68 58 c 0
 56 60 47 71 47 83 c 2
 47 583 l 2
EndSplineSet
Validated: 1
EndChar
StartChar: E
Encoding: 69 69 14
Width: 441
Flags: W
HStem: 58 50<372 396.802> 308 50<301 325.802> 558 50<372 396.802>
CounterMasks: 1 e0
LayerCount: 3
Fore
SplineSet
372 58 m 2
 386 58 397 69 397 83 c 0
 397 97 386 108 372 108 c 2
 97 108 l 1
 97 308 l 1
 301 308 l 2
 315 308 326 319 326 333 c 0
 326 347 315 358 301 358 c 2
 97 358 l 1
 97 558 l 1
 372 558 l 2
 386 558 397 569 397 583 c 0
 397 597 386 608 372 608 c 2
 72 608 l 2
 58 608 47 597 47 583 c 2
 47 83 l 2
 47 69 58 58 72 58 c 2
 372 58 l 2
EndSplineSet
Validated: 9
EndChar
StartChar: F
Encoding: 70 70 15
Width: 437
Flags: W
HStem: 307.993 50<300.995 325.795> 558.004 50<372 396.799>
VStem: 47 50<58.2049 83.0039>
LayerCount: 3
Fore
SplineSet
97 558.00390625 m 1
 372 558.00390625 l 2
 385.797851562 558.00390625 397 569.206054688 397 583.00390625 c 0
 397 596.801757812 385.797851562 608.00390625 372 608.00390625 c 2
 72 608.00390625 l 2
 58.2021484375 608.00390625 47 596.801757812 47 583.00390625 c 2
 47 83.00390625 l 2
 47 69.2060546875 58.2021484375 58.00390625 72 58.00390625 c 0
 85.7978515625 58.00390625 97 69.2060546875 97 83.00390625 c 2
 97 307.993164062 l 1
 300.997070312 308.00390625 l 2
 314.794921875 308.004882812 325.99609375 319.206054688 325.99609375 333.00390625 c 0
 325.99609375 346.801757812 314.79296875 358.00390625 300.995117188 358.00390625 c 2
 97 357.993164062 l 1
 97 558.00390625 l 1
EndSplineSet
EndChar
StartChar: G
Encoding: 71 71 16
Width: 524
Flags: W
HStem: 58 50<176.888 340.719> 308.004 50<234.207 259.006> 558 50<177.663 353.842>
VStem: 34 50<218.636 445.141> 408.126 48.834<451.155 509.331>
LayerCount: 3
Fore
SplineSet
432.54296875 450.99609375 m 0
 447.698242188 450.99609375 460.608398438 464.80078125 456.959960938 481.384765625 c 0
 456.452148438 483.693359375 450.842773438 508.35546875 429.272460938 535.983398438 c 0
 401.9609375 570.965820312 349.500976562 608 259.002929688 608 c 0
 160.619140625 608 100.630859375 550.060546875 68.6328125 485.59375 c 0
 43.7890625 435.540039062 34 379.732421875 34 333.00390625 c 0
 34 286.435546875 43.298828125 230.639648438 67.8369140625 180.529296875 c 0
 99.6533203125 115.555664062 159.91015625 58 259.00390625 58 c 0
 333.254882812 58 385.55078125 90.0615234375 419.272460938 132.212890625 c 0
 449 169.372070312 464.53515625 213.051757812 473.17578125 249.77734375 c 0
 483.998046875 295.771484375 484 331.732421875 484 332.9921875 c 0
 484 346.790039062 472.798828125 357.991210938 459.001953125 357.9921875 c 2
 259.005859375 358.00390625 l 2
 245.208007812 358.00390625 234.005859375 346.801757812 234.005859375 333.00390625 c 0
 234.005859375 319.206054688 245.205078125 308.004882812 259.001953125 308.00390625 c 2
 432.45703125 307.994140625 l 1
 430.702148438 291.004882812 426.953125 266.8984375 418.943359375 240.58203125 c 0
 398.047851562 171.92578125 353.7578125 108 259.00390625 108 c 0
 228.8828125 108 204.350585938 114.501953125 183.890625 125.197265625 c 0
 152.168945312 141.782226562 129.009765625 169.307617188 112.770507812 202.470703125 c 0
 92.5068359375 243.852539062 84 293.149414062 84 333.00390625 c 0
 84 372.6953125 92.8818359375 421.977539062 113.448242188 463.412109375 c 0
 129.931640625 496.62109375 153.30859375 524.234375 184.875 540.829101562 c 0
 205.2265625 551.528320312 229.45703125 558 259.002929688 558 c 0
 320.166015625 558 355.19140625 539.125976562 376.258789062 519.907226562 c 0
 391.017578125 506.44140625 404.786132812 485.790039062 408.125976562 470.607421875 c 0
 410.592773438 459.396484375 420.594726562 450.99609375 432.54296875 450.99609375 c 0
EndSplineSet
EndChar
StartChar: H
Encoding: 72 72 17
Width: 449
Flags: W
HStem: 58 21G<65 79 365 379> 308 50<97 347> 588 20G<65 79 365 379>
VStem: 47 50<58.1976 308 358 607.802> 347 50<58.1976 308 358 607.802>
LayerCount: 3
Fore
SplineSet
347 308 m 1
 97 308 l 1
 97 83 l 2
 97 69 86 58 72 58 c 0
 58 58 47 69 47 83 c 2
 47 583 l 2
 47 597 58 608 72 608 c 0
 86 608 97 597 97 583 c 2
 97 358 l 1
 347 358 l 1
 347 583 l 2
 347 597 358 608 372 608 c 0
 386 608 397 597 397 583 c 2
 397 83 l 2
 397 69 386 58 372 58 c 0
 358 58 347 69 347 83 c 2
 347 308 l 1
EndSplineSet
Validated: 1
EndChar
StartChar: I
Encoding: 73 73 18
Width: 431
Flags: W
HStem: 58 50<39.1976 64 364 388.802> 558 50<39.1976 64 364 388.802>
LayerCount: 3
Fore
SplineSet
189 558 m 1
 189 108 l 1
 64 108 l 2
 50 108 39 97 39 83 c 0
 39 69 50 58 64 58 c 2
 364 58 l 2
 378 58 389 69 389 83 c 0
 389 97 378 108 364 108 c 2
 239 108 l 1
 239 558 l 1
 364 558 l 2
 378 558 389 569 389 583 c 0
 389 597 378 608 364 608 c 2
 64 608 l 2
 50 608 39 597 39 583 c 0
 39 569 50 558 64 558 c 2
 189 558 l 1
EndSplineSet
Validated: 9
EndChar
StartChar: J
Encoding: 74 74 19
Width: 430
Flags: W
HStem: 58 50<138.788 281.53> 558.004 50<86.9149 111.714>
VStem: 30.9053 48.3027<180.696 257.858> 330.057 50<157.043 233>
LayerCount: 3
Fore
SplineSet
380.056640625 233 m 0
 380.056640625 338.297851562 381.0234375 478.811523438 380.055664062 583.240234375 c 0
 379.928710938 596.9296875 368.775390625 608.00390625 355.056640625 608.00390625 c 2
 111.713867188 608.00390625 l 2
 97.916015625 608.00390625 86.7138671875 596.801757812 86.7138671875 583.00390625 c 0
 86.7138671875 569.206054688 97.916015625 558.00390625 111.713867188 558.00390625 c 2
 330.228515625 558.00390625 l 1
 330.736328125 457.209960938 330.056640625 332.349609375 330.056640625 233 c 0
 330.056640625 201.345703125 321.080078125 173.12109375 304.883789062 151.955078125 c 0
 284.887695312 125.822265625 252.727539062 108 204.759765625 108 c 0
 125.671875 108 96.3125 175.638671875 79.2080078125 239.478515625 c 0
 76.3505859375 250.139648438 66.6142578125 258 55.056640625 258 c 0
 39.544921875 258 26.375 243.430664062 30.9052734375 226.521484375 c 0
 47.95703125 162.884765625 87.20703125 58 204.759765625 58 c 0
 266.033203125 58 314.51171875 82.2705078125 344.614257812 121.610351562 c 0
 368.498046875 152.821289062 380.056640625 191.935546875 380.056640625 233 c 0
EndSplineSet
EndChar
StartChar: K
Encoding: 75 75 20
Width: 439
Flags: W
HStem: 58 21G<65 79 368 379> 588 20G<65 79 368 379>
VStem: 47 50<58.1976 224 301 607.802>
LayerCount: 3
Fore
SplineSet
372 58 m 0
 364 58 358 62 353 67 c 2
 158 295 l 1
 97 224 l 1
 97 83 l 2
 97 69 86 58 72 58 c 0
 58 58 47 69 47 83 c 2
 47 583 l 2
 47 597 58 608 72 608 c 0
 86 608 97 597 97 583 c 2
 97 301 l 1
 111 317 125 333 139 349 c 0
 210 432 282 516 353 599 c 0
 358 604 364 608 372 608 c 0
 386 608 397 597 397 583 c 0
 397 577 395 571 391 567 c 0
 324 489 258 411 191 333 c 1
 391 99 l 2
 395 95 397 89 397 83 c 0
 397 69 386 58 372 58 c 0
EndSplineSet
Validated: 1
EndChar
StartChar: L
Encoding: 76 76 21
Width: 435
Flags: W
HStem: 58.0039 50<372 396.799>
VStem: 47 50<583 607.799>
LayerCount: 3
Fore
SplineSet
97 108.00390625 m 1
 97 583 l 2
 97 596.797851562 85.7978515625 608 72 608 c 0
 58.2021484375 608 47 596.797851562 47 583 c 2
 47 83.00390625 l 2
 47 69.2060546875 58.2021484375 58.00390625 72 58.00390625 c 2
 372 58.00390625 l 2
 385.797851562 58.00390625 397 69.2060546875 397 83.00390625 c 0
 397 96.8017578125 385.797851562 108.00390625 372 108.00390625 c 2
 97 108.00390625 l 1
EndSplineSet
EndChar
StartChar: M
Encoding: 77 77 22
Width: 549
Flags: W
HStem: 58 21G<65 79 465 479> 588 20G<65 76 468 479>
VStem: 47 50<58.1976 512> 447 50<58.1976 512>
LayerCount: 3
Fore
SplineSet
47 83 m 2
 47 583 l 2
 47 597 58 608 72 608 c 0
 80 608 87 605 92 599 c 2
 272 373 l 1
 452 599 l 2
 457 605 464 608 472 608 c 0
 486 608 497 597 497 583 c 2
 497 83 l 2
 497 69 486 58 472 58 c 0
 458 58 447 69 447 83 c 2
 447 512 l 1
 292 317 l 2
 287 311 280 308 272 308 c 0
 264 308 257 311 252 317 c 2
 97 512 l 1
 97 83 l 2
 97 69 86 58 72 58 c 0
 58 58 47 69 47 83 c 2
EndSplineSet
Validated: 1
EndChar
StartChar: N
Encoding: 78 78 23
Width: 499
Flags: W
VStem: 47 50<58.2049 83.0039> 397 50<583 607.799>
LayerCount: 3
Fore
SplineSet
47 83.00390625 m 2
 47 69.2060546875 58.2021484375 58.00390625 72 58.00390625 c 0
 85.7978515625 58.00390625 97 69.2060546875 97 83.00390625 c 2
 97 503.6953125 l 1
 401.504882812 68.69140625 l 2
 406.02734375 62.2314453125 413.5234375 58.00390625 422 58.00390625 c 0
 435.797851562 58.00390625 447 69.2060546875 447 83.00390625 c 2
 447 583 l 2
 447 596.797851562 435.797851562 608 422 608 c 0
 408.202148438 608 397 596.797851562 397 583 c 2
 397 162.30859375 l 1
 92.4951171875 597.3125 l 2
 87.97265625 603.772460938 80.4765625 608 72 608 c 0
 58.2021484375 608 47 596.797851562 47 583 c 2
 47 83.00390625 l 2
EndSplineSet
EndChar
StartChar: O
Encoding: 79 79 24
Width: 526
Flags: W
HStem: 58 50<177.66 340.341> 558 50<177.664 340.345>
VStem: 34 50<220.862 445.138> 434 50<220.86 445.129>
LayerCount: 3
Fore
SplineSet
259.00390625 558 m 0
 288.547851562 558 312.776367188 551.52734375 333.126953125 540.827148438 c 0
 364.692382812 524.231445312 388.069335938 496.614257812 404.551757812 463.40234375 c 0
 425.118164062 421.963867188 434 372.6796875 434 332.9921875 c 0
 434 293.3046875 425.118164062 244.0234375 404.551757812 202.588867188 c 0
 388.069335938 169.379882812 364.693359375 141.765625 333.127929688 125.170898438 c 0
 312.77734375 114.471679688 288.547851562 108 259.00390625 108 c 0
 229.458984375 108 205.228515625 114.471679688 184.876953125 125.170898438 c 0
 153.310546875 141.765625 129.93359375 169.379882812 113.44921875 202.58984375 c 0
 92.8828125 244.026367188 84 293.30859375 84 333 c 0
 84 372.69140625 92.8828125 421.973632812 113.44921875 463.41015625 c 0
 129.93359375 496.620117188 153.310546875 524.234375 184.876953125 540.829101562 c 0
 205.228515625 551.528320312 229.458984375 558 259.00390625 558 c 0
259.00390625 608 m 0
 160.62109375 608 100.631835938 550.05859375 68.6337890625 485.591796875 c 0
 43.7890625 435.537109375 34 379.728515625 34 333 c 0
 34 286.271484375 43.7890625 230.462890625 68.6337890625 180.408203125 c 0
 100.637695312 115.930664062 160.600585938 58 259.00390625 58 c 0
 357.384765625 58 417.37109375 115.94140625 449.368164062 180.407226562 c 0
 474.2109375 230.4609375 484 286.267578125 484 332.9921875 c 0
 484 379.716796875 474.2109375 435.526367188 449.368164062 485.583007812 c 0
 417.3671875 550.0625 357.40625 608 259.00390625 608 c 0
EndSplineSet
EndChar
StartChar: P
Encoding: 80 80 25
Width: 437
Flags: W
HStem: 58.0039 21G<65.1011 78.8989> 300.455 54.21<97 298.587> 561.327 54.2119<98.6237 298.595>
VStem: 47 50<58.2049 304.351 354.665 561.327> 347 50<396.503 519.494>
LayerCount: 3
Fore
SplineSet
97 83.00390625 m 2
 97 69.2060546875 85.7978515625 58.00390625 72 58.00390625 c 0
 58.2021484375 58.00390625 47 69.2060546875 47 83.00390625 c 2
 47 583 l 2
 47 595.290039062 55.8876953125 605.521484375 67.5810546875 607.610351562 c 0
 68.4814453125 607.770507812 111.825195312 615.5390625 166.951171875 615.5390625 c 0
 206.6328125 615.5390625 252.5859375 611.69921875 293.971679688 596.701171875 c 0
 326.93359375 584.754882812 358.263671875 564.979492188 377.704101562 532.571289062 c 0
 390.150390625 511.823242188 397 486.770507812 397 458 c 0
 397 429.227539062 390.149414062 404.173828125 377.702148438 383.42578125 c 0
 358.259765625 351.015625 326.926757812 331.239257812 293.962890625 319.293945312 c 0
 252.57421875 304.295898438 206.619140625 300.455078125 166.936523438 300.455078125 c 0
 139.415039062 300.455078125 114.830078125 302.391601562 97 304.350585938 c 1
 97 83.00390625 l 2
97 354.665039062 m 1
 152.662109375 347.985351562 226.625976562 348.083984375 276.9453125 366.318359375 c 0
 303.3359375 375.881835938 323.232421875 389.8203125 334.793945312 409.09375 c 0
 342.278320312 421.569335938 347 437.166015625 347 458 c 0
 347 478.833007812 342.278320312 494.428710938 334.794921875 506.904296875 c 0
 323.234375 526.17578125 303.340820312 540.11328125 276.953125 549.676757812 c 0
 226.470703125 567.971679688 152.90234375 568.037109375 97 561.327148438 c 1
 97 354.665039062 l 1
EndSplineSet
EndChar
StartChar: Q
Encoding: 81 81 26
Width: 550
Flags: W
HStem: 58 50<177.661 340.923> 558 50<177.665 340.346>
VStem: 34 50<220.862 445.138> 434 50<222.251 445.129>
LayerCount: 3
Fore
SplineSet
337.8984375 298.4609375 m 0
 324.100585938 298.4609375 312.8984375 287.258789062 312.8984375 273.4609375 c 0
 312.8984375 267.572265625 314.938476562 262.15625 318.350585938 257.881835938 c 2
 386.500976562 172.510742188 l 1
 372.213867188 152.783203125 354.55859375 136.4375 333.127929688 125.170898438 c 0
 312.77734375 114.471679688 288.548828125 108 259.004882812 108 c 0
 229.459960938 108 205.229492188 114.471679688 184.877929688 125.170898438 c 0
 153.311523438 141.765625 129.93359375 169.380859375 113.450195312 202.58984375 c 0
 92.8828125 244.026367188 84 293.30859375 84 333 c 0
 84 372.69140625 92.8828125 421.973632812 113.450195312 463.41015625 c 0
 129.93359375 496.619140625 153.311523438 524.234375 184.877929688 540.829101562 c 0
 205.229492188 551.528320312 229.459960938 558 259.004882812 558 c 0
 288.548828125 558 312.776367188 551.52734375 333.127929688 540.827148438 c 0
 364.692382812 524.231445312 388.069335938 496.615234375 404.551757812 463.40234375 c 0
 425.118164062 421.963867188 434 372.6796875 434 332.9921875 c 0
 434 298.791015625 427.403320312 257.46484375 412.418945312 220.17578125 c 1
 357.446289062 289.040039062 l 2
 352.86328125 294.780273438 345.807617188 298.4609375 337.8984375 298.4609375 c 0
447.348632812 176.418945312 m 1
 472.971679688 226.046875 484 285.1171875 484 332.9921875 c 0
 484 379.716796875 474.2109375 435.525390625 449.368164062 485.583007812 c 0
 417.3671875 550.0625 357.407226562 608 259.004882812 608 c 0
 160.622070312 608 100.6328125 550.05859375 68.634765625 485.591796875 c 0
 43.7900390625 435.537109375 34 379.728515625 34 333 c 0
 34 286.271484375 43.7900390625 230.462890625 68.634765625 180.408203125 c 0
 100.637695312 115.930664062 160.6015625 58 259.004882812 58 c 0
 332.465820312 58 384.685546875 90.890625 418.592773438 132.30859375 c 1
 470.390625 67.4208984375 l 2
 474.973632812 61.6806640625 482.029296875 58 489.938476562 58 c 0
 503.736328125 58 514.938476562 69.2021484375 514.938476562 83 c 0
 514.938476562 88.888671875 512.8984375 94.3046875 509.486328125 98.5791015625 c 2
 447.348632812 176.418945312 l 1
EndSplineSet
EndChar
StartChar: R
Encoding: 82 82 27
Width: 437
Flags: W
HStem: 58 21G<65 79 366.5 380.5> 300 55<97 201.482> 561 55<97.25 299.828>
VStem: 47 50<58.1976 304 352.725 563.275> 347 50<396.985 518.854>
LayerCount: 3
Fore
SplineSet
202 302 m 1025
97 355 m 1
 153 348 227 348 277 366 c 0
 317.739257812 381.668945312 347 404.1640625 347 458 c 0
 347 511.852539062 317.731445312 534.333984375 277 550 c 0
 227 568 153 568 97 561 c 1
 97 355 l 1
397 458 m 0
 397 364.303710938 331.555664062 326.205078125 257 309 c 1
 392 96 l 2
 403 79 390 58 371 58 c 0
 362 58 355 63 350 70 c 2
 202 302 l 1
 191 301 177 300 167 300 c 0
 139 300 115 302 97 304 c 1
 97 83 l 2
 97 69 86 58 72 58 c 0
 58 58 47 69 47 83 c 2
 47 583 l 2
 47 595 56 606 68 608 c 0
 69 608 112 616 167 616 c 0
 282.888671875 616 397 580.475585938 397 458 c 0
EndSplineSet
Validated: 33
EndChar
StartChar: S
Encoding: 83 83 28
Width: 439
Flags: W
HStem: 58.0029 50<131.366 304.202> 558 50<140.951 308.215>
VStem: 31 50<180.087 204.886> 56 50<409.467 523.271> 336 50<461.119 531.381> 351 50<151.961 261.132>
LayerCount: 3
Fore
SplineSet
336 485.91796875 m 0xd8
 336 472.120117188 347.202148438 460.91796875 361 460.91796875 c 0
 374.797851562 460.91796875 386 472.120117188 386 485.91796875 c 0
 386 502.10546875 381.412109375 527.619140625 362.643554688 552.172851562 c 0
 338.735351562 583.448242188 294.22265625 608 221.00390625 608 c 0
 156.623046875 608 111.2265625 585.03515625 84.7470703125 549.971679688 c 0
 63.8759765625 522.333007812 56 489.654296875 56 459.459960938 c 0xd8
 56 364.90625 143.962890625 340.275390625 194.760742188 324.935546875 c 0
 202.845703125 322.494140625 209.850585938 320.323242188 217.168945312 317.961914062 c 0
 238.145507812 311.192382812 263.081054688 303.053710938 285.517578125 291.814453125 c 0
 303.483398438 282.814453125 319.467773438 271.950195312 330.782226562 259.29296875 c 0
 343.412109375 245.1640625 351 228.9140625 351 206.54296875 c 0
 351 164.698242188 314.770507812 108.002929688 221.002929688 108.002929688 c 0
 168.5078125 108.002929688 129.736328125 126.801757812 106.208007812 146.7578125 c 0
 95.7822265625 155.6015625 88.5029296875 164.663085938 84.5849609375 171.53125 c 0
 81.1123046875 177.6171875 81 180.086914062 81 180.086914062 c 1xe4
 81 193.884765625 69.7978515625 205.086914062 56 205.086914062 c 0xd0
 42.2021484375 205.086914062 31 193.884765625 31 180.086914062 c 0
 31 170.736328125 33.51171875 162.575195312 37.0869140625 154.6875 c 0
 41.5712890625 144.79296875 48.1298828125 135.063476562 56.5830078125 125.500976562 c 0
 86.771484375 91.3515625 143.229492188 58.0029296875 220.997070312 58.0029296875 c 0
 337.885742188 58.0029296875 401 134.395507812 401 206.54296875 c 0xe4
 401 241.794921875 387.610351562 270.729492188 368.067382812 292.59375 c 0
 350.782226562 311.930664062 329.321289062 325.798828125 307.86328125 336.547851562 c 0
 279.241210938 350.88671875 251.971679688 359.26171875 228.697265625 366.791992188 c 0
 222.310546875 368.858398438 215.784179688 370.827148438 209.21875 372.809570312 c 0
 151.403320312 390.26953125 106 405.913085938 106 459.459960938 c 0
 106 480.995117188 111.826171875 502.87109375 124.671875 519.881835938 c 0
 140.33984375 540.62890625 168.362304688 558 221.00390625 558 c 0
 283.291992188 558 310.139648438 538.537109375 322.897460938 521.84765625 c 0
 333.4609375 508.029296875 336 492.64453125 336 485.91796875 c 0xd8
EndSplineSet
Validated: 9
EndChar
StartChar: T
Encoding: 84 84 29
Width: 523
Flags: W
HStem: 558 50<35.201 60 460 484.799>
VStem: 235.004 50<58.2049 83.0039>
LayerCount: 3
Fore
SplineSet
235.00390625 558 m 1
 235.00390625 83.00390625 l 2
 235.00390625 69.2060546875 246.206054688 58.00390625 260.00390625 58.00390625 c 0
 273.801757812 58.00390625 285.00390625 69.2060546875 285.00390625 83.00390625 c 2
 285.00390625 558 l 1
 460 558 l 2
 473.797851562 558 485 569.202148438 485 583 c 0
 485 596.797851562 473.797851562 608 460 608 c 2
 60 608 l 2
 46.2021484375 608 35 596.797851562 35 583 c 0
 35 569.202148438 46.2021484375 558 60 558 c 2
 235.00390625 558 l 1
EndSplineSet
EndChar
StartChar: V
Encoding: 86 86 31
Width: 522
Flags: W
LayerCount: 3
Fore
SplineSet
59.080078125 608.00390625 m 0
 42.4736328125 608.00390625 28.91796875 591.083007812 35.857421875 573.733398438 c 2
 235.857421875 73.7294921875 l 2
 239.54296875 64.515625 248.556640625 58 259.080078125 58 c 0
 269.603515625 58 278.6171875 64.515625 282.302734375 73.7294921875 c 2
 482.302734375 573.733398438 l 2
 489.237304688 591.071289062 475.6875 608.00390625 459.080078125 608.00390625 c 0
 448.556640625 608.00390625 439.54296875 601.48828125 435.857421875 592.274414062 c 2
 259.080078125 150.326171875 l 1
 82.302734375 592.274414062 l 2
 78.6171875 601.48828125 69.603515625 608.00390625 59.080078125 608.00390625 c 0
EndSplineSet
EndChar
StartChar: W
Encoding: 87 87 32
Width: 527
Flags: W
HStem: 58 21G<105.5 117 407 418.5> 588 20G<55 68.5 455.5 469>
LayerCount: 3
Fore
SplineSet
412 58 m 0
 402 58 393 64 389 73 c 2
 262 370 l 1
 135 73 l 2
 131 64 122 58 112 58 c 0
 99 58 88 67 87 80 c 2
 37 580 l 2
 35 595 48 608 62 608 c 0
 75 608 86 599 87 586 c 2
 127 182 l 1
 239 443 l 2
 243 452 252 458 262 458 c 0
 272 458 281 452 285 443 c 2
 397 182 l 1
 437 586 l 2
 438 599 449 608 462 608 c 0
 476 608 489 595 487 580 c 2
 437 80 l 2
 436 67 425 58 412 58 c 0
EndSplineSet
Validated: 33
EndChar
StartChar: X
Encoding: 88 88 33
Width: 428
Flags: W
LayerCount: 3
Fore
SplineSet
40.5859375 95.8359375 m 2
 30.3125 78.712890625 43.587890625 58 62.0390625 58 c 0
 71.1455078125 58 79.12109375 62.8798828125 83.4921875 70.1640625 c 2
 212.036132812 284.40625 l 1
 340.5859375 70.1640625 l 2
 344.95703125 62.8798828125 352.932617188 58 362.0390625 58 c 0
 380.479492188 58 393.778320312 78.6923828125 383.4921875 95.8359375 c 2
 241.196289062 332.997070312 l 1
 383.4921875 570.16796875 l 2
 393.765625 587.291015625 380.490234375 608.00390625 362.0390625 608.00390625 c 0
 352.932617188 608.00390625 344.95703125 603.124023438 340.5859375 595.83984375 c 2
 212.0390625 381.592773438 l 1
 83.4921875 595.83984375 l 2
 79.12109375 603.124023438 71.1455078125 608.00390625 62.0390625 608.00390625 c 0
 43.5986328125 608.00390625 30.2998046875 587.311523438 40.5859375 570.16796875 c 2
 182.884765625 333.001953125 l 1
 40.5859375 95.8359375 l 2
EndSplineSet
EndChar
StartChar: Y
Encoding: 89 89 34
Width: 421
Flags: W
VStem: 184 50<58.1976 83>
LayerCount: 3
Fore
SplineSet
184 83 m 2
 184 69 195 58 209 58 c 0
 223 58 234 69 234 83 c 2
 234 326 l 1
 380 570 l 2
 390 587 377 608 359 608 c 0
 350 608 342 603 338 596 c 2
 209 382 l 1
 80 596 l 2
 76 603 68 608 59 608 c 0
 41 608 28 587 38 570 c 2
 184 326 l 1
 184 83 l 2
EndSplineSet
Validated: 41
EndChar
StartChar: Z
Encoding: 90 90 35
Width: 430
Flags: W
HStem: 58 50<363 387.802> 558 50<38.1976 63>
LayerCount: 3
Fore
SplineSet
63 608 m 2
 49 608 38 597 38 583 c 0
 38 569 49 558 63 558 c 2
 319 558 l 1
 42 96 l 2
 32 79 45 58 63 58 c 2
 363 58 l 2
 377 58 388 69 388 83 c 0
 388 97 377 108 363 108 c 2
 107 108 l 1
 384 570 l 2
 394 587 381 608 363 608 c 2
 63 608 l 2
EndSplineSet
Validated: 41
EndChar
StartChar: bracketleft
Encoding: 91 91 216
Width: 280
Flags: W
HStem: -25 50<225 249.802> 641 50<225 249.802>
VStem: 50 200<-24.8024 24.8024 641.198 690.802>
LayerCount: 3
Fore
SplineSet
100 25 m 1
 100 641 l 1
 225 641 l 2
 239 641 250 652 250 666 c 0
 250 680 239 691 225 691 c 2
 75 691 l 2
 61 691 50 680 50 666 c 2
 50 -0 l 2
 50 -14 61 -25 75 -25 c 2
 225 -25 l 2
 239 -25 250 -14 250 -0 c 0
 250 14 239 25 225 25 c 2
 100 25 l 1
EndSplineSet
Validated: 9
EndChar
StartChar: backslash
Encoding: 92 92 220
Width: 264
Flags: W
LayerCount: 3
Fore
SplineSet
57 608 m 0
 41 608 28 593 33 576 c 2
 183 76 l 2
 186 66 196 58 207 58 c 0
 223 58 236 73 231 90 c 2
 81 590 l 2
 78 600 68 608 57 608 c 0
EndSplineSet
Validated: 41
EndChar
StartChar: bracketright
Encoding: 93 93 217
Width: 280
Flags: W
HStem: -25.3438 50<30.201 55> 641.332 50<30.201 55>
VStem: 30 200.004<-25.1427 24.4552 641.533 691.131>
LayerCount: 3
Fore
SplineSet
55 691.33203125 m 2
 41.2021484375 691.33203125 30 680.129882812 30 666.33203125 c 0
 30 652.534179688 41.2021484375 641.33203125 55 641.33203125 c 2
 180.00390625 641.33203125 l 1
 180.00390625 24.65625 l 1
 55 24.65625 l 2
 41.2021484375 24.65625 30 13.4541015625 30 -0.34375 c 0
 30 -14.1416015625 41.2021484375 -25.34375 55 -25.34375 c 2
 205.00390625 -25.34375 l 2
 218.801757812 -25.34375 230.00390625 -14.1416015625 230.00390625 -0.34375 c 2
 230.00390625 666.33203125 l 2
 230.00390625 680.129882812 218.801757812 691.33203125 205.00390625 691.33203125 c 2
 55 691.33203125 l 2
EndSplineSet
EndChar
StartChar: asciicircum
Encoding: 94 94 208
Width: 388
Flags: W
HStem: 379 250
LayerCount: 3
Fore
SplineSet
326.032226562 379 m 0
 345.032226562 379 357.032226562 401 346.032226562 418 c 2
 215.032226562 618 l 2
 211.032226562 625 203.032226562 629 194.032226562 629 c 0
 185.032226562 629 177.032226562 625 173.032226562 618 c 2
 42.0322265625 418 l 2
 31.0322265625 401 44.0322265625 379 63.0322265625 379 c 0
 72.0322265625 379 80.0322265625 383 84.0322265625 390 c 2
 194.032226562 558 l 1
 305.032226562 390 l 2
 309.032226562 383 317.032226562 379 326.032226562 379 c 0
EndSplineSet
Validated: 41
EndChar
StartChar: underscore
Encoding: 95 95 241
Width: 434
Flags: W
HStem: 58 50<42.1976 391.802>
LayerCount: 3
Fore
SplineSet
67 108 m 2
 367 108 l 2
 381 108 392 97 392 83 c 0
 392 69 381 58 367 58 c 2
 67 58 l 2
 53 58 42 69 42 83 c 0
 42 97 53 108 67 108 c 2
EndSplineSet
Validated: 1
EndChar
StartChar: grave
Encoding: 96 96 234
Width: 196
Flags: W
HStem: 494 129
LayerCount: 3
Fore
SplineSet
133 494 m 0
 147 494 158 505 158 519 c 0
 158 526 155 532 150 537 c 0
 124 561 105 570 85 609 c 0
 81 617 73 623 63 623 c 0
 45 623 32 603 41 586 c 0
 65.6825305791 537.869065371 90.4961653643 525.503834636 116 500 c 0
 120 496 126 494 133 494 c 0
EndSplineSet
Validated: 41
EndChar
StartChar: a
Encoding: 97 97 150
Width: 519
Flags: W
LayerCount: 3
Fore
SplineSet
361 258 m 1
 155 258 l 1
 258 516 l 1
 361 258 l 1
35 92 m 2
 28 75 41 58 58 58 c 0
 69 58 77 65 81 74 c 2
 135 208 l 1
 381 208 l 1
 435 74 l 2
 439 65 447 58 458 58 c 0
 475 58 488 75 481 92 c 2
 281 592 l 2
 277 601 269 608 258 608 c 0
 247 608 239 601 235 592 c 2
 35 92 l 2
EndSplineSet
Validated: 41
EndChar
StartChar: b
Encoding: 98 98 151
Width: 436
Flags: W
HStem: 57 50<132 290.057> 308 50<97 254.916> 558 50<97 282.578>
VStem: 333 50<425.423 518.118> 347 50<148.961 257.465>
LayerCount: 3
Fore
SplineSet
383 458 m 2xf0
 383 608.659183398 220.651661965 608 72 608 c 0
 58 608 47 597 47 583 c 2
 47 83 l 2
 47 69 58 58 72 58 c 0
 91 58 109 57 132 57 c 0
 253.05275532 57 397 75.0564778556 397 200 c 0xe8
 397 257.485490427 376.357227664 290.399114766 328 316 c 1
 291 329 267 334 257 335 c 1
 266 335 286 337 314 346 c 1
 356.874056049 367.437028024 383 397.706358098 383 446 c 2
 383 458 l 2xf0
97 108 m 1
 97 308 l 1
 208 306 270 290 304 272 c 0
 329 259 339 245 343 234 c 0
 350 215 347 212 347 196 c 0
 347 171 336 155 316 142 c 0
 298 130 271 120 242 115 c 0
 205 108 165 107 132 107 c 0
 119 107 107 108 97 108 c 1
333 458 m 0xf0
 333 445 333 434 329 425 c 0
 325 416 315 403 291 391 c 0
 259 375 200 360 97 358 c 1
 97 558 l 1
 184.644037541 558 285.673922237 556.14379998 319 510 c 0
 328 498 333 482 333 458 c 0xf0
EndSplineSet
Validated: 41
EndChar
StartChar: c
Encoding: 99 99 152
Width: 497
Flags: W
HStem: 58 50<176.928 353.152> 567 50<179.408 350.411>
VStem: 34 50<212.115 453.752> 408 49<155.1 205.749 460.251 517.008>
LayerCount: 3
Fore
SplineSet
84 333 m 0
 84 470.117582629 148.170257368 567 264 567 c 0
 328.449275627 567 395.130555042 532.695141073 408 478 c 0
 411 467 420 460 432 460 c 0
 448 460 462 474 457 491 c 0
 436 568 351 617 264 617 c 0
 202 617 137 591 92 533 c 0
 56 486 34 421 34 333 c 0
 34 246 56 182 92 137 c 0
 137 80 201 58 262 58 c 0
 348.995026923 58 436.383216164 101.368629155 457 175 c 0
 462 192 448 206 432 206 c 0
 420 206 411 199 408 188 c 0
 394.505846715 139.421048173 324.767624871 108 262 108 c 0
 146.530047694 108 84 196.76539139 84 333 c 0
EndSplineSet
Validated: 41
EndChar
StartChar: d
Encoding: 100 100 153
Width: 489
Flags: W
HStem: 54 50<82.7684 266.267> 562 50<82.7684 266.267>
VStem: 397 50<222.901 443.101>
LayerCount: 3
Fore
SplineSet
47 583 m 2
 47 83 l 2
 47 71 56 60 68 58 c 0
 69 58 96 54 136 54 c 0
 183 54 248 60 308 89 c 0
 388.281148052 128.161535635 447 206.746303581 447 333 c 0
 447 459.274719638 388.322347041 537.818367297 308 577 c 0
 248 606 183 612 136 612 c 0
 96 612 69 608 68 608 c 0
 56 606 47 595 47 583 c 2
136 562 m 0
 179 562 237 556 286 532 c 0
 353 499 397 439 397 333 c 0
 397 227 353 167 286 134 c 0
 237 110 179 104 136 104 c 0
 120 104 107 104 97 105 c 1
 97 561 l 1
 107 562 120 562 136 562 c 0
EndSplineSet
Validated: 9
EndChar
StartChar: e
Encoding: 101 101 39
Width: 441
Flags: W
HStem: 58 50<97 396.802> 308 50<97 325.802> 558 50<97 396.802>
VStem: 47 50<108 308 358 558>
CounterMasks: 1 e0
LayerCount: 3
Fore
SplineSet
372 58 m 2
 72 58 l 2
 58 58 47 69 47 83 c 2
 47 583 l 2
 47 597 58 608 72 608 c 2
 372 608 l 2
 386 608 397 597 397 583 c 0
 397 569 386 558 372 558 c 2
 97 558 l 1
 97 358 l 1
 301 358 l 2
 315 358 326 347 326 333 c 0
 326 319 315 308 301 308 c 2
 97 308 l 1
 97 108 l 1
 372 108 l 2
 386 108 397 97 397 83 c 0
 397 69 386 58 372 58 c 2
EndSplineSet
Validated: 1
EndChar
StartChar: g
Encoding: 103 103 155
Width: 525
Flags: W
HStem: 58 50<177.288 343.839> 308 50<235.198 433> 558 50<179.56 354.629>
VStem: 35 50<219.506 443.958> 409 50<451.259 480.906>
CounterMasks: 1 e0
LayerCount: 3
Fore
SplineSet
433 308 m 1
 260 308 l 2
 246 308 235 319 235 333 c 0
 235 347 246 358 260 358 c 2
 460 358 l 2
 474 358 485 347 485 333 c 0
 485 332 485 296 474 250 c 0
 450 152 388 58 260 58 c 0
 161 58 101 116 69 181 c 0
 44 231 35 286 35 333 c 0
 35 380 45 436 70 486 c 0
 102 550 162 608 260 608 c 0
 350 608 403 571 430 536 c 0
 452 508 457 483 458 481 c 0
 458 479 459 477 459 475 c 0
 459 461 447 451 434 451 c 0
 422 451 411 460 409 471 c 0
 406 486 392 507 377 520 c 0
 356 539 321 558 260 558 c 0
 230 558 206 552 186 541 c 0
 123 507 85 420 85 333 c 0
 85 293 94 243 114 202 c 0
 139 150 182 108 260 108 c 0
 380 108 421 206 433 308 c 1
EndSplineSet
Validated: 1
EndChar
StartChar: h
Encoding: 104 104 38
Width: 449
Flags: W
VStem: 47 50<58.1976 83 583 607.802> 347 50<58.1976 83 583 607.802>
LayerCount: 3
Fore
SplineSet
347 308 m 1
 347 83 l 2
 347 69 358 58 372 58 c 0
 386 58 397 69 397 83 c 2
 397 583 l 2
 397 597 386 608 372 608 c 0
 358 608 347 597 347 583 c 2
 347 358 l 1
 97 358 l 1
 97 583 l 2
 97 597 86 608 72 608 c 0
 58 608 47 597 47 583 c 2
 47 83 l 2
 47 69 58 58 72 58 c 0
 86 58 97 69 97 83 c 2
 97 308 l 1
 347 308 l 1
EndSplineSet
Validated: 9
EndChar
StartChar: i
Encoding: 105 105 156
Width: 431
Flags: W
HStem: 58 50<39.1976 189 239 388.802> 558 50<39.1976 189 239 388.802>
VStem: 189 50<108 558>
LayerCount: 3
Fore
SplineSet
189 558 m 1
 64 558 l 2
 50 558 39 569 39 583 c 0
 39 597 50 608 64 608 c 2
 364 608 l 2
 378 608 389 597 389 583 c 0
 389 569 378 558 364 558 c 2
 239 558 l 1
 239 108 l 1
 364 108 l 2
 378 108 389 97 389 83 c 0
 389 69 378 58 364 58 c 2
 64 58 l 2
 50 58 39 69 39 83 c 0
 39 97 50 108 64 108 c 2
 189 108 l 1
 189 558 l 1
EndSplineSet
Validated: 1
EndChar
StartChar: j
Encoding: 106 106 157
Width: 431
Flags: W
HStem: 58 50<139.873 281.937> 558 50<88.1976 331>
VStem: 332 50<158.252 558>
LayerCount: 3
Fore
SplineSet
206 58 m 0
 88 58 49 163 32 227 c 0
 31 230 31 232 31 234 c 0
 31 248 42 258 56 258 c 0
 68 258 77 250 80 239 c 0
 97 175 127 108 206 108 c 0
 285 108 331 157 331 233 c 0
 331 299 332 377 332 451 c 0
 332 488 331 524 331 558 c 1
 113 558 l 2
 99 558 88 569 88 583 c 0
 88 597 99 608 113 608 c 2
 356 608 l 2
 370 608 381 597 381 583 c 0
 381 548 382 509 382 469 c 0
 382 389 381 303 381 233 c 0
 381 130 310 58 206 58 c 0
EndSplineSet
Validated: 1
EndChar
StartChar: l
Encoding: 108 108 159
Width: 435
Flags: W
HStem: 58 50<97 396.802> 588 20G<65 79>
VStem: 47 50<108 607.802>
LayerCount: 3
Fore
SplineSet
97 108 m 1
 372 108 l 2
 386 108 397 97 397 83 c 0
 397 69 386 58 372 58 c 2
 72 58 l 2
 58 58 47 69 47 83 c 2
 47 583 l 2
 47 597 58 608 72 608 c 0
 86 608 97 597 97 583 c 2
 97 108 l 1
EndSplineSet
Validated: 1
EndChar
StartChar: m
Encoding: 109 109 160
Width: 549
Flags: W
VStem: 47 50<58.1976 83> 447 50<58.1976 83>
LayerCount: 3
Fore
SplineSet
47 83 m 2
 47 69 58 58 72 58 c 0
 86 58 97 69 97 83 c 2
 97 512 l 1
 252 317 l 2
 262 305 282 305 292 317 c 2
 447 512 l 1
 447 83 l 2
 447 69 458 58 472 58 c 0
 486 58 497 69 497 83 c 2
 497 583 l 2
 497 597 486 608 472 608 c 0
 464 608 457 605 452 599 c 2
 272 373 l 1
 92 599 l 2
 87 605 80 608 72 608 c 0
 58 608 47 597 47 583 c 2
 47 83 l 2
EndSplineSet
Validated: 41
EndChar
StartChar: o
Encoding: 111 111 162
Width: 526
Flags: W
HStem: 58 50<176.851 339.446> 558 50<178.554 341.149>
VStem: 34 50<218.554 444.019> 434 50<221.981 447.446>
LayerCount: 3
Fore
SplineSet
259 608 m 0
 161 608 101 550 69 486 c 0
 44 436 34 380 34 333 c 0
 34 286 44 230 69 180 c 0
 101 116 161 58 259 58 c 0
 357 58 417 116 449 180 c 0
 474 230 484 286 484 333 c 0
 484 380 474 436 449 486 c 0
 417 550 357 608 259 608 c 0
259 558 m 0
 336.192715688 558 379.64490858 515.294876054 405 463 c 0
 426 422 434 373 434 333 c 0
 434 246.067259459 396.125723718 158.535540725 333 125 c 0
 313 114 289 108 259 108 c 0
 181.807284312 108 138.35509142 150.705123946 113 203 c 0
 92 244 84 293 84 333 c 0
 84 419.932740541 121.874276282 507.464459275 185 541 c 0
 205 552 229 558 259 558 c 0
EndSplineSet
Validated: 9
EndChar
StartChar: p
Encoding: 112 112 163
Width: 436
Flags: W
HStem: 58 21G<65 79> 300 51<97 292.315> 565 51<97.6414 292.315>
VStem: 47 50<58.1976 304 352.743 563.257> 347 50<397.118 518.882>
LayerCount: 3
Fore
SplineSet
397 458 m 0
 397 336 283 300 167 300 c 0
 139 300 115 302 97 304 c 1
 97 83 l 2
 97 69 86 58 72 58 c 0
 58 58 47 69 47 83 c 2
 47 583 l 2
 47 595 56 606 68 608 c 0
 69 608 112 616 167 616 c 0
 283 616 397 580 397 458 c 0
347 458 m 0
 347 547 257 565 167 565 c 0
 143 565 119 564 97 561 c 1
 97 355 l 1
 119 352 143 351 167 351 c 0
 257 351 347 369 347 458 c 0
EndSplineSet
Validated: 1
EndChar
StartChar: q
Encoding: 113 113 164
Width: 550
Flags: W
HStem: 58 50<176.851 341.525> 558 50<178.554 341.149>
VStem: 34 50<218.554 444.019> 434 50<222.063 447.446>
LayerCount: 3
Fore
SplineSet
447 176 m 1
 473 226 484 285 484 333 c 0
 484 380 474 436 449 486 c 0
 417 550 357 608 259 608 c 0
 161 608 101 550 69 486 c 0
 44 436 34 380 34 333 c 0
 34 286 44 230 69 180 c 0
 101 116 161 58 259 58 c 0
 332 58 385 91 419 132 c 1
 470 67 l 2
 475 61 482 58 490 58 c 0
 504 58 515 69 515 83 c 0
 515 89 512 95 509 99 c 2
 447 176 l 1
387 173 m 1
 360.572646573 135.246637962 321.442152439 108 259 108 c 0
 181.807284312 108 138.35509142 150.705123946 113 203 c 0
 92 244 84 293 84 333 c 0
 84 419.932740541 121.874276282 507.464459275 185 541 c 0
 205 552 229 558 259 558 c 0
 336.192715688 558 379.64490858 515.294876054 405 463 c 0
 426 422 434 373 434 333 c 0
 434 299 427 257 412 220 c 1
 357 289 l 2
 352 295 346 298 338 298 c 0
 324 298 313 287 313 273 c 0
 313 267 315 262 318 258 c 2
 387 173 l 1
EndSplineSet
Validated: 9
EndChar
StartChar: r
Encoding: 114 114 165
Width: 437
Flags: W
HStem: 58 21G<65 79 366.5 378> 300 51<97 246.631> 565 51<97.6414 291.265>
VStem: 47 50<58.1976 304 352.743 563.257> 347 50<396.941 518.728>
LayerCount: 3
Fore
SplineSet
202 302 m 1025
97 355 m 1
 119 352 143 351 167 351 c 0
 206 351 246 355 277 366 c 0
 318 382 347 404 347 458 c 0
 347 512 318 534 277 550 c 0
 246 561 206 565 167 565 c 0
 143 565 119 564 97 561 c 1
 97 355 l 1
397 458 m 0
 397 364 332 326 257 309 c 1
 392 96 l 2
 395 92 396 87 396 83 c 0
 396 70 385 58 371 58 c 0
 362 58 355 63 350 70 c 2
 202 302 l 1
 191 301 177 300 167 300 c 0
 139 300 115 302 97 304 c 1
 97 83 l 2
 97 69 86 58 72 58 c 0
 58 58 47 69 47 83 c 2
 47 583 l 2
 47 595 56 606 68 608 c 0
 69 608 112 616 167 616 c 0
 283 616 397 580 397 458 c 0
EndSplineSet
Validated: 1
EndChar
StartChar: s
Encoding: 115 115 166
Width: 426
Flags: W
HStem: 58 50<125.529 291.787> 558 50<128.353 299.327>
VStem: 35 50<145.376 204.802> 335 50<148.528 257.694 461.198 525.27>
LayerCount: 3
Fore
SplineSet
85 459 m 0
 85 519.571967726 137.400021115 558 210 558 c 0
 260 558 289 545 307 531 c 0
 329 514 335 492 335 486 c 0
 335 472 346 461 360 461 c 0
 374 461 385 472 385 486 c 0
 385 509 373 544 338 571 c 0
 310 593 269 608 210 608 c 0
 159 608 117 594 88 570 c 0
 29 523 15 435 65 380 c 0
 102.546837115 337.759808246 163.188634987 322.603788338 219 304 c 0
 279 286 335 266 335 207 c 0
 335 146.141163617 282.599978885 108 210 108 c 0
 147 108 112 135 96 157 c 0
 88 168 85 178 85 180 c 0
 85 194 74 205 60 205 c 0
 46 205 35 194 35 180 c 0
 35 162 42 144 55 127 c 0
 81 92 132 58 210 58 c 0
 262 58 303 72 332 96 c 0
 369 126 385 168 385 207 c 0
 385 308 287 336 234 352 c 0
 188.121192972 367.292935676 131.899781209 380.330682112 103 413 c 0
 92 425 85 439 85 459 c 0
EndSplineSet
Validated: 41
EndChar
StartChar: t
Encoding: 116 116 37
Width: 523
Flags: W
HStem: 558 50<35.1976 60 460 484.802>
VStem: 235 50<58.1976 83>
LayerCount: 3
Fore
SplineSet
235 558 m 1
 235 83 l 2
 235 69 246 58 260 58 c 0
 274 58 285 69 285 83 c 2
 285 558 l 1
 460 558 l 2
 474 558 485 569 485 583 c 0
 485 597 474 608 460 608 c 2
 60 608 l 2
 46 608 35 597 35 583 c 0
 35 569 46 558 60 558 c 2
 235 558 l 1
EndSplineSet
Validated: 9
EndChar
StartChar: u
Encoding: 117 117 167
Width: 496
Flags: W
HStem: 58 50<170.654 322.597>
VStem: 43.9229 47<295.68 509 583 607.5> 395.923 50<295.938 509 583 607.802>
LayerCount: 3
Fore
SplineSet
90.9228515625 398 m 0
 90.9228515625 460.920898438 95.9228515625 524.059570312 95.9228515625 583 c 0
 95.9228515625 597 84.9228515625 608 70.9228515625 608 c 0
 56.9228515625 608 45.9228515625 597 45.9228515625 583 c 0
 45.9228515625 562 44.9228515625 537 43.9228515625 509 c 0
 35.953125 340.051757812 36.7333984375 152.831054688 147.922851562 84 c 0
 174.922851562 67 206.922851562 58 245.922851562 58 c 0
 349.502929688 58 403.596679688 123.158203125 427.922851562 201 c 0
 456.922851562 292 453.922851562 402 448.922851562 509 c 0
 447.922851562 537 445.922851562 562 445.922851562 583 c 0
 445.922851562 597 434.922851562 608 420.922851562 608 c 0
 406.922851562 608 395.922851562 597 395.922851562 583 c 0
 395.922851562 561 397.922851562 535 398.922851562 507 c 0
 404.762695312 362.446289062 411.26953125 184.318359375 318.922851562 127 c 0
 300.922851562 115 276.922851562 108 245.922851562 108 c 0
 214.922851562 108 191.922851562 115 173.922851562 127 c 0
 105.922851562 169 90.9228515625 286 90.9228515625 398 c 0
EndSplineSet
Validated: 41
EndChar
StartChar: v
Encoding: 118 118 168
Width: 522
Flags: W
LayerCount: 3
Fore
SplineSet
59 608 m 0
 42 608 29 591 36 574 c 2
 236 74 l 2
 240 65 248 58 259 58 c 0
 270 58 278 65 282 74 c 2
 482 574 l 2
 489 591 476 608 459 608 c 0
 448 608 440 601 436 592 c 2
 259 150 l 1
 82 592 l 2
 78 601 70 608 59 608 c 0
EndSplineSet
Validated: 41
EndChar
StartChar: w
Encoding: 119 119 169
Width: 527
Flags: W
LayerCount: 3
Fore
SplineSet
411 58 m 0
 424 58 435 67 436 80 c 2
 486 580 l 2
 488 595 475 608 461 608 c 0
 448 608 437 599 436 586 c 2
 396 182 l 1
 284 443 l 2
 280 452 271 458 261 458 c 0
 251 458 242 452 238 443 c 2
 126 182 l 1
 86 586 l 2
 85 599 74 608 61 608 c 0
 47 608 34 595 36 580 c 2
 86 80 l 2
 87 67 98 58 111 58 c 0
 121 58 130 64 134 73 c 2
 261 370 l 1
 388 73 l 2
 392 64 401 58 411 58 c 0
EndSplineSet
Validated: 41
EndChar
StartChar: x
Encoding: 120 120 170
Width: 428
Flags: W
LayerCount: 3
Fore
SplineSet
41.474609375 96 m 2
 31.474609375 79 44.474609375 58 62.474609375 58 c 0
 71.474609375 58 79.474609375 63 83.474609375 70 c 2
 212.474609375 284 l 1
 341.474609375 70 l 2
 345.474609375 63 353.474609375 58 362.474609375 58 c 0
 380.474609375 58 393.474609375 79 383.474609375 96 c 2
 241.474609375 333 l 1
 383.474609375 570 l 2
 393.474609375 587 380.474609375 608 362.474609375 608 c 0
 353.474609375 608 345.474609375 603 341.474609375 596 c 2
 212.474609375 382 l 1
 83.474609375 596 l 2
 79.474609375 603 71.474609375 608 62.474609375 608 c 0
 44.474609375 608 31.474609375 587 41.474609375 570 c 2
 183.474609375 333 l 1
 41.474609375 96 l 2
EndSplineSet
Validated: 41
EndChar
StartChar: y
Encoding: 121 121 171
Width: 421
Flags: W
VStem: 184.475 50<58.1976 83>
LayerCount: 3
Fore
SplineSet
184.474609375 83 m 2
 184.474609375 69 195.474609375 58 209.474609375 58 c 0
 223.474609375 58 234.474609375 69 234.474609375 83 c 2
 234.474609375 326 l 1
 380.474609375 570 l 2
 390.474609375 587 377.474609375 608 359.474609375 608 c 0
 350.474609375 608 342.474609375 603 338.474609375 596 c 2
 209.474609375 382 l 1
 80.474609375 596 l 2
 76.474609375 603 68.474609375 608 59.474609375 608 c 0
 41.474609375 608 28.474609375 587 38.474609375 570 c 2
 184.474609375 326 l 1
 184.474609375 83 l 2
EndSplineSet
Validated: 41
EndChar
StartChar: z
Encoding: 122 122 172
Width: 431
Flags: W
HStem: 58 50<364 388.802> 558 50<39.1976 64>
LayerCount: 3
Fore
SplineSet
64 608 m 2
 50 608 39 597 39 583 c 0
 39 569 50 558 64 558 c 2
 320 558 l 1
 43 96 l 2
 33 79 46 58 64 58 c 2
 364 58 l 2
 378 58 389 69 389 83 c 0
 389 97 378 108 364 108 c 2
 108 108 l 1
 385 570 l 2
 395 587 382 608 364 608 c 2
 64 608 l 2
EndSplineSet
Validated: 41
EndChar
StartChar: braceleft
Encoding: 123 123 242
Width: 259
Flags: W
HStem: -21 50<140.853 228.802> 637 50<141.121 228.802>
VStem: 91 50<379 544.606>
LayerCount: 3
Fore
SplineSet
122 547 m 0
 122 607.633510149 142.397037272 637 204 637 c 0
 218 637 229 648 229 662 c 0
 229 676 218 687 204 687 c 0
 150.305548394 687 112.136600599 666.95080098 92 634 c 0
 60 581 74 505 84 443 c 0
 88 419 91 397 91 385 c 2
 91 379 l 1
 45 355 l 2
 37 351 32 343 32 333 c 0
 32 323 37 315 45 311 c 2
 89 288 l 1
 90 275 86 256 82 231 c 0
 71 168 58 89 90 35 c 0
 110.141527478 0.210088901223 147.930395153 -21 204 -21 c 0
 218 -21 229 -10 229 4 c 0
 229 18 218 29 204 29 c 0
 140 29 120 61 120 124 c 0
 120 156 126 191 131 223 c 0
 135 247 139 268 139 286 c 0
 139 305 134 321 119 329 c 1
 110 333 l 1
 119 337 l 1
 135 346 141 363 141 385 c 0
 141 434.176988165 122 496.096155614 122 547 c 0
EndSplineSet
Validated: 41
EndChar
StartChar: bar
Encoding: 124 124 244
Width: 148
Flags: W
VStem: 49 50<32.1976 633.802>
LayerCount: 3
Fore
SplineSet
99 609 m 2
 99 57 l 2
 99 43 88 32 74 32 c 0
 60 32 49 43 49 57 c 2
 49 609 l 2
 49 623 60 634 74 634 c 0
 88 634 99 623 99 609 c 2
EndSplineSet
Validated: 1
EndChar
StartChar: braceright
Encoding: 125 125 243
Width: 259
Flags: W
HStem: -21 50<30.1976 118.143> 637 50<30.1976 117.646>
VStem: 118 50<379 544.605>
LayerCount: 3
Fore
SplineSet
139 124 m 0
 139 61.0587068643 118.914117262 29 55 29 c 0
 41 29 30 18 30 4 c 0
 30 -10 41 -21 55 -21 c 0
 111.064986232 -21 148.8520266 0.198955036075 169 35 c 0
 201 89 188 168 177 231 c 0
 173 256 169 275 170 288 c 1
 214 311 l 2
 222 315 227 323 227 333 c 0
 227 343 222 351 214 355 c 2
 168 379 l 1
 168 385 l 2
 168 397 172 419 176 443 c 0
 186 505 199 581 167 634 c 0
 146.868874337 666.941841994 108.686754656 687 55 687 c 0
 41 687 30 676 30 662 c 0
 30 648 41 637 55 637 c 0
 116 637 137 608 137 547 c 0
 137 496.085396422 118 434.19208502 118 385 c 0
 118 363 124 346 140 337 c 1
 149 333 l 1
 140 329 l 1
 125 321 120 305 120 286 c 0
 120 268 124 247 128 223 c 0
 133 191 139 156 139 124 c 0
EndSplineSet
Validated: 41
EndChar
StartChar: asciitilde
Encoding: 126 126 235
Width: 574
Flags: W
HStem: 252 50<131.111 238.161> 365 50<338.779 444.772>
VStem: 39 48<349.125 404.755> 488 48<261.213 318.117>
LayerCount: 3
Fore
SplineSet
64 405 m 0
 75 405 83 398 87 389 c 1
 87 389 97 361 119 336 c 0
 136 316 158 302 182 302 c 0
 203 302 232 313 270 351 c 0
 315 396 356 415 395 415 c 0
 440 415 474 389 495 363 c 0
 522 331 534 295 535 294 c 0
 536 291 536 289 536 286 c 0
 536 272 524 261 511 261 c 0
 500 261 491 267 488 277 c 1
 488 277 478 306 457 331 c 0
 440 351 419 365 395 365 c 0
 374 365 344 354 305 315 c 0
 261 271 221 252 182 252 c 0
 137 252 104 279 82 304 c 0
 55 336 42 370 41 371 c 0
 40 374 39 377 39 380 c 0
 39 393 51 405 64 405 c 0
EndSplineSet
Validated: 1
EndChar
StartChar: periodcentered
Encoding: 183 183 263
Width: 244
Flags: W
HStem: 256 150<70.4173 173.583>
VStem: 47 150<279.417 382.583>
LayerCount: 3
Fore
SplineSet
197 331 m 1024
197 331 m 0
 197 290 163 256 122 256 c 0
 81 256 47 290 47 331 c 0
 47 372 81 406 122 406 c 0
 163 406 197 372 197 331 c 0
EndSplineSet
Validated: 1
EndChar
StartChar: female
Encoding: 407 9792 246
Width: 398
Flags: W
HStem: 168 50<73.1976 173 223 322.802> 285 48<134.668 173 223 261.41> 558 50<133.91 264.154>
VStem: 36 50<381.231 510.09> 173 50<68.1976 168 218 289.816> 311 50<381.231 510.09>
LayerCount: 3
Fore
SplineSet
311 446 m 0
 311 508 260 558 198 558 c 0
 136 558 86 508 86 446 c 0
 86 384 136 333 198 333 c 0
 260 333 311 384 311 446 c 0
173 218 m 1
 173 285 l 1
 95 297 36 365 36 446 c 0
 36 536 108 608 198 608 c 0
 288 608 361 536 361 446 c 0
 361 365 301 297 223 285 c 1
 223 218 l 1
 298 218 l 2
 312 218 323 207 323 193 c 0
 323 179 312 168 298 168 c 2
 223 168 l 1
 223 93 l 2
 223 79 212 68 198 68 c 0
 184 68 173 79 173 93 c 2
 173 168 l 1
 98 168 l 2
 84 168 73 179 73 193 c 0
 73 207 84 218 98 218 c 2
 173 218 l 1
EndSplineSet
Validated: 1
LCarets2: 8 0 0 0 0 0 0 0 0
Ligature2: "sitelen pona-1" m e l i hyphen a l t 
EndChar
StartChar: male
Encoding: 406 9794 245
Width: 622
Flags: W
HStem: 117.34 50<174.312 302.69> 392.34 50<174.312 304.05> 534.457 50<343.072 367.871>
VStem: 76 50<215.652 344.028> 351 50<215.652 345.496> 492.871 50<384.658 409.457>
LayerCount: 3
Fore
SplineSet
492.87109375 409.45703125 m 2
 492.87109375 395.659179688 504.073242188 384.45703125 517.87109375 384.45703125 c 0
 531.668945312 384.45703125 542.87109375 395.659179688 542.87109375 409.45703125 c 2
 542.87109375 559.45703125 l 2
 542.87109375 573.254882812 531.668945312 584.45703125 517.87109375 584.45703125 c 2
 367.87109375 584.45703125 l 2
 354.073242188 584.45703125 342.87109375 573.254882812 342.87109375 559.45703125 c 0
 342.87109375 545.659179688 354.073242188 534.45703125 367.87109375 534.45703125 c 2
 457.522460938 534.45703125 l 1
 334.224118634 411.157779003 l 1
 307.374163247 430.765732373 274.286343621 442.33984375 238.5 442.33984375 c 0
 148.770507812 442.33984375 76 369.569335938 76 279.83984375 c 0
 76 190.110351562 148.770507812 117.33984375 238.5 117.33984375 c 0
 328.233398438 117.33984375 401 190.111328125 401 279.83984375 c 0
 401 315.751495215 389.344205532 348.946960039 369.609850691 375.848065042 c 1
 492.87109375 499.108398438 l 1
 492.87109375 409.45703125 l 2
351 279.83984375 m 0
 351 217.693359375 300.649414062 167.33984375 238.5 167.33984375 c 0
 176.354492188 167.33984375 126 217.694335938 126 279.83984375 c 0
 126 341.985351562 176.354492188 392.33984375 238.5 392.33984375 c 0
 300.649414062 392.33984375 351 341.986328125 351 279.83984375 c 0
EndSplineSet
LCarets2: 8 0 0 0 0 0 0 0 0
Ligature2: "sitelen pona-1" m i j e hyphen a l t 
EndChar
StartChar: checkmark
Encoding: 424 10003 264
Width: 521
Flags: W
LayerCount: 3
Fore
SplineSet
62 358 m 0
 70 358 77 354 82 348 c 2
 218 164 l 1
 440 560 l 2
 444 568 453 573 462 573 c 0
 476 573 487 561 487 548 c 0
 487 544 486 540 484 536 c 2
 242 106 l 2
 238 98 230 93 221 93 c 0
 213 93 205 97 200 103 c 2
 42 318 l 2
 39 322 37 327 37 333 c 0
 37 347 48 358 62 358 c 0
EndSplineSet
Validated: 1
Ligature2: "sitelen pona-1" k e 
EndChar
StartChar: a.sp
Encoding: 256 60928 3
Width: 480
Flags: HW
HStem: 8 50<130.588 179.372> 205 50<152.41 243.287>
VStem: 80 50<58.1443 182.115> 206 50<300.198 325 641 665.802> 356 48<4.10392 74.2842>
LayerCount: 3
Fore
SplineSet
256 641 m 2
 256 655 245 666 231 666 c 0
 217 666 206 655 206 641 c 2
 206 341 l 2
 206 327 217 316 231 316 c 0
 245 316 256 327 256 341 c 2
 256 641 l 2
130 92 m 4
 130 86 131 84 132 82 c 4
 135 82 142 83 151 87 c 4
 163 92 178 102 192 113 c 4
 219 134 247 165 265 191 c 5
 237 216 207 229 188 229 c 4
 177 229 168 226 160 217 c 4
 136.885742188 193.885742188 130 146.780273438 130 92 c 4
132 32 m 4
 117 32 100 38 90 53 c 4
 83 64 80 78 80 92 c 4
 80 163.78515625 91.06640625 215.713867188 124 251 c 4
 142 269 164 279 188 279 c 4
 229 279 269 255 304 223 c 4
 348 182 385 123 404 61 c 4
 409 44 396 28 380 28 c 4
 369 28 359 36 356 46 c 4
 345 84 325 122 300 153 c 5
 268.1484375 110.53125 222.791015625 65.431640625 173 42 c 4
 160 36 146 32 132 32 c 4
EndSplineSet
LCarets2: 1 1
Ligature2: "sitelen pona-1" a 
MultipleSubs2: "sitelen pona-1" a
EndChar
StartChar: akesi.sp
Encoding: 257 60929 4
Width: 607
Flags: W
HStem: -35.0098 50<247.604 359.332> 97.5098 50<77.201 102 502 526.799> 214.99 50<77.201 102 502 526.799> 332.52 50<77.201 102 502 526.799> 464.99 50<244.668 356.396> 533.333 100<161.225 242.775 361.225 442.775>
VStem: 152 100<542.558 624.108> 154.766 50.2246<147.51 214.99> 352 100<542.558 624.108> 399.869 50.458<264.99 332.52>
LayerCount: 3
Fore
SplineSet
302 -35.009765625 m 0xfd40
 333.50390625 -35.009765625 360.263671875 -27.89453125 381.830078125 -13.8095703125 c 0
 415.669921875 8.2890625 432.51953125 44.2568359375 441.283203125 82.4296875 c 0
 442.43359375 87.4404296875 443.4609375 92.4677734375 444.379882812 97.509765625 c 1
 502 97.509765625 l 2
 515.797851562 97.509765625 527 108.711914062 527 122.509765625 c 0
 527 136.307617188 515.797851562 147.509765625 502 147.509765625 c 2
 450.327148438 147.509765625 l 1
 451.794921875 169.729492188 452.009765625 192.2265625 452.01953125 214.990234375 c 1
 502 214.990234375 l 2
 515.797851562 214.990234375 527 226.192382812 527 239.990234375 c 0
 527 253.788085938 515.797851562 264.990234375 502 264.990234375 c 2
 451.93359375 264.990234375 l 1
 451.76953125 286.334960938 451.200195312 309.4296875 449.23046875 332.51953125 c 1
 502 332.51953125 l 2
 515.797851562 332.51953125 527 343.721679688 527 357.51953125 c 0
 527 371.317382812 515.797851562 382.51953125 502 382.51953125 c 2
 442.260742188 382.51953125 l 2
 441.959960938 383.981445312 441.649414062 385.438476562 441.330078125 386.888671875 c 0
 432.676757812 426.139648438 416.55078125 464.901367188 383.178710938 489.96484375 c 0
 361.709960938 506.087890625 334.327148438 514.990234375 302 514.990234375 c 0
 270.49609375 514.990234375 243.736328125 507.875 222.169921875 493.790039062 c 0
 188.330078125 471.69140625 171.48046875 435.723632812 162.716796875 397.55078125 c 0
 161.5703125 392.555664062 160.544921875 387.544921875 159.62890625 382.51953125 c 1
 102 382.51953125 l 2
 88.2021484375 382.51953125 77 371.317382812 77 357.51953125 c 0
 77 343.721679688 88.2021484375 332.51953125 102 332.51953125 c 2
 153.67578125 332.51953125 l 1
 152.205078125 310.284179688 151.990234375 287.770507812 151.98046875 264.990234375 c 1
 102 264.990234375 l 2
 88.2021484375 264.990234375 77 253.788085938 77 239.990234375 c 0
 77 226.192382812 88.2021484375 214.990234375 102 214.990234375 c 2
 152.06640625 214.990234375 l 1
 152.23046875 193.66015625 152.798828125 170.583007812 154.765625 147.509765625 c 1
 102 147.509765625 l 2
 88.2021484375 147.509765625 77 136.307617188 77 122.509765625 c 0
 77 108.711914062 88.2021484375 97.509765625 102 97.509765625 c 2
 161.729492188 97.509765625 l 2
 162.033203125 96.03125 162.346679688 94.55859375 162.669921875 93.091796875 c 0
 171.323242188 53.8408203125 187.44921875 15.0791015625 220.821289062 -9.984375 c 0
 242.290039062 -26.107421875 269.672851562 -35.009765625 302 -35.009765625 c 0xfd40
302 14.990234375 m 0
 278.771484375 14.990234375 262.9453125 20.9033203125 250.805664062 30.01953125 c 0
 233.102539062 43.3154296875 220.649414062 66.71875 212.993164062 97.509765625 c 1
 393.399414062 97.509765625 l 1
 393.124023438 96.208984375 392.840820312 94.9208984375 392.547851562 93.646484375 c 0
 385.17578125 61.53515625 372.982421875 40.1259765625 354.54296875 28.083984375 c 0
 342.501953125 20.220703125 326.051757812 14.990234375 302 14.990234375 c 0
352 583.333007812 m 0xfc80
 352 610.947265625 374.385742188 633.333007812 402 633.333007812 c 0
 429.614257812 633.333007812 452 610.947265625 452 583.333007812 c 0
 452 555.719726562 429.614257812 533.333007812 402 533.333007812 c 0
 374.385742188 533.333007812 352 555.719726562 352 583.333007812 c 0xfc80
152 583.333007812 m 0xfe
 152 610.947265625 174.385742188 633.333007812 202 633.333007812 c 0
 229.614257812 633.333007812 252 610.947265625 252 583.333007812 c 0
 252 555.719726562 229.614257812 533.333007812 202 533.333007812 c 0
 174.385742188 533.333007812 152 555.719726562 152 583.333007812 c 0xfe
202.055664062 264.990234375 m 1
 202.189453125 288.44140625 202.642578125 311.276367188 204.134765625 332.51953125 c 1
 399.004882812 332.51953125 l 1
 401.084960938 310.189453125 401.72265625 287.041992188 401.916015625 264.990234375 c 1
 202.055664062 264.990234375 l 1
202.083984375 214.990234375 m 1
 401.944335938 214.990234375 l 1
 401.810546875 191.556640625 401.358398438 168.739257812 399.869140625 147.509765625 c 1
 204.990234375 147.509765625 l 1xfd40
 202.9140625 169.82421875 202.27734375 192.955078125 202.083984375 214.990234375 c 1
210.611328125 382.51953125 m 1
 210.8828125 383.803710938 211.163085938 385.075195312 211.452148438 386.333984375 c 0
 218.82421875 418.4453125 231.017578125 439.854492188 249.45703125 451.896484375 c 0
 261.498046875 459.759765625 277.948242188 464.990234375 302 464.990234375 c 0
 325.228515625 464.990234375 341.0546875 459.077148438 353.194335938 449.9609375 c 0
 370.888671875 436.671875 383.336914062 413.286132812 390.994140625 382.51953125 c 1
 210.611328125 382.51953125 l 1
EndSplineSet
Ligature2: "sitelen pona-1" a k e s i
LCarets2: 4 0 0 0 0
EndChar
StartChar: ala.sp
Encoding: 258 60930 5
Width: 579
Flags: W
LayerCount: 3
Fore
SplineSet
89 608 m 0
 75.2021484375 608 64 596.797851562 64 583 c 0
 64 577.1015625 66.046875 571.677734375 69.46875 567.400390625 c 2
 256.989257812 333 l 1
 69.46875 98.599609375 l 2
 66.046875 94.322265625 64 88.8984375 64 83 c 0
 64 69.2021484375 75.2021484375 58 89 58 c 0
 96.8994140625 58 103.948242188 61.671875 108.53125 67.400390625 c 2
 289 292.986328125 l 1
 469.46875 67.400390625 l 2
 474.051757812 61.671875 481.100585938 58 489 58 c 0
 502.797851562 58 514 69.2021484375 514 83 c 0
 514 88.8984375 511.953125 94.322265625 508.53125 98.599609375 c 2
 321.010742188 333 l 1
 508.53125 567.400390625 l 2
 511.953125 571.677734375 514 577.1015625 514 583 c 0
 514 596.797851562 502.797851562 608 489 608 c 0
 481.100585938 608 474.051757812 604.328125 469.46875 598.599609375 c 2
 289 373.013671875 l 1
 108.53125 598.599609375 l 2
 103.948242188 604.328125 96.8994140625 608 89 608 c 0
EndSplineSet
LCarets2: 3 0 0 0
Ligature2: "sitelen pona-1" a l a 
EndChar
StartChar: alasa.sp
Encoding: 259 60931 6
Width: 765
Flags: W
HStem: 308 50<64.1976 89 444.88 447>
VStem: 397 50<223.836 308 358 442.164>
LayerCount: 3
Fore
SplineSet
173 583 m 1025
497 183 m 0
 497 169 508 158 522 158 c 0
 529 158 535 160 540 165 c 2
 690 315 l 2
 700 325 700 341 690 351 c 2
 540 501 l 2
 535 506 529 508 522 508 c 0
 508 508 497 497 497 483 c 0
 497 476 500 470 505 465 c 2
 612 358 l 1
 447 358 l 1
 444 406 431 446 413 478 c 0
 379 537 327 569 281 586 c 0
 222 608 175 608 173 608 c 2
 148 608 l 1
 148 358 l 1
 89 358 l 2
 75 358 64 347 64 333 c 0
 64 319 75 308 89 308 c 2
 148 308 l 1
 148 58 l 1
 173 58 l 1
 173 58 224 58 281 80 c 0
 327 97 379 129 413 188 c 0
 431 220 444 260 447 308 c 1
 612 308 l 1
 505 201 l 2
 500 196 497 190 497 183 c 0
397 358 m 1
 198 358 l 1
 198 556 l 1
 215 554 238 549 264 539 c 0
 303 524 344 499 370 453 c 0
 384 428 394 398 397 358 c 1
198 308 m 1
 397 308 l 1
 394 268 384 238 370 213 c 0
 344 167 303 142 264 127 c 0
 238 117 215 112 198 110 c 1
 198 308 l 1
EndSplineSet
Validated: 41
LCarets2: 5 0 0 0 0 0
Ligature2: "sitelen pona-1" a l a s a 
EndChar
StartChar: ale.sp
Encoding: 260 60932 7
Width: 810
Flags: W
HStem: 188 50<153.994 277.201 530.799 654.006> 428 50<153.994 277.201 530.799 654.006>
VStem: 79 50<264.62 401.38> 679 50<264.62 401.38>
LayerCount: 3
Fore
SplineSet
604 428 m 0
 624.338867188 428 644.67578125 419.0703125 659.015625 400.633789062 c 0
 670.53125 385.828125 679 363.8671875 679 333 c 0
 679 302.1328125 670.53125 280.171875 659.015625 265.366210938 c 0
 644.67578125 246.9296875 624.338867188 238 604 238 c 0
 568.375976562 238 528.063476562 258.212890625 494.275390625 283.1640625 c 0
 469.946289062 301.130859375 450.205078125 320.072265625 437.760742188 333 c 1
 450.205078125 345.927734375 469.946289062 364.869140625 494.275390625 382.8359375 c 0
 528.063476562 407.787109375 568.375976562 428 604 428 c 0
129 333 m 0
 129 363.8671875 137.46875 385.828125 148.984375 400.633789062 c 0
 163.32421875 419.0703125 183.661132812 428 204 428 c 0
 239.624023438 428 279.936523438 407.787109375 313.724609375 382.8359375 c 0
 338.053710938 364.869140625 357.794921875 345.927734375 370.239257812 333 c 1
 357.794921875 320.072265625 338.053710938 301.130859375 313.724609375 283.1640625 c 0
 279.936523438 258.212890625 239.624023438 238 204 238 c 0
 183.661132812 238 163.32421875 246.9296875 148.984375 265.366210938 c 0
 137.46875 280.171875 129 302.1328125 129 333 c 0
79 333 m 0
 79 292.756835938 90.2841796875 259.408203125 109.49609375 234.708007812 c 0
 133.565429688 203.76171875 168.783203125 188 204 188 c 0
 257.264648438 188 305.841796875 215.194335938 343.383789062 242.91796875 c 0
 368.926757812 261.780273438 389.94921875 281.622070312 404 296.0234375 c 1
 418.05078125 281.622070312 439.073242188 261.780273438 464.616210938 242.91796875 c 0
 502.158203125 215.194335938 550.735351562 188 604 188 c 0
 639.216796875 188 674.434570312 203.76171875 698.50390625 234.708007812 c 0
 717.715820312 259.408203125 729 292.756835938 729 333 c 0
 729 373.243164062 717.715820312 406.591796875 698.50390625 431.291992188 c 0
 674.434570312 462.23828125 639.216796875 478 604 478 c 0
 550.735351562 478 502.158203125 450.805664062 464.616210938 423.08203125 c 0
 439.073242188 404.219726562 418.05078125 384.377929688 404 369.9765625 c 1
 389.94921875 384.377929688 368.926757812 404.219726562 343.383789062 423.08203125 c 0
 305.841796875 450.805664062 257.264648438 478 204 478 c 0
 168.783203125 478 133.565429688 462.23828125 109.49609375 431.291992188 c 0
 90.2841796875 406.591796875 79 373.243164062 79 333 c 0
EndSplineSet
LCarets2: 3 0 0 0
Ligature2: "sitelen pona-1" a l e 
EndChar
StartChar: anpa.sp
Encoding: 261 60933 8
Width: 732
Flags: W
HStem: 40 100<324.438 407.562> 234 50<141 591>
VStem: 91 50<284 533.802> 316 100<48.4375 131.562> 591 50<284 533.802>
CounterMasks: 1 38
LayerCount: 3
Fore
SplineSet
416 90 m 1024
591 284 m 1
 591 509 l 2
 591 523 602 534 616 534 c 0
 630 534 641 523 641 509 c 2
 641 259 l 2
 641 245 630 234 616 234 c 2
 116 234 l 2
 102 234 91 245 91 259 c 2
 91 509 l 2
 91 523 102 534 116 534 c 0
 130 534 141 523 141 509 c 2
 141 284 l 1
 591 284 l 1
416 90 m 0
 416 62 394 40 366 40 c 0
 338 40 316 62 316 90 c 0
 316 118 338 140 366 140 c 0
 394 140 416 118 416 90 c 0
EndSplineSet
Validated: 1
LCarets2: 4 0 0 0 0
Ligature2: "sitelen pona-1" a n p a 
EndChar
StartChar: ante.sp
Encoding: 262 60934 9
Width: 681
Flags: W
HStem: 58 21G<84 94 588 598> 588 20G<84 94 588 598>
LayerCount: 3
Fore
SplineSet
66 83 m 0
 66 91 70 98 76 103 c 2
 326 291 l 2
 330 294 336 296 341 296 c 0
 346 296 352 294 356 291 c 2
 606 103 l 2
 612 98 616 91 616 83 c 0
 616 69 605 58 591 58 c 0
 585 58 580 60 576 63 c 2
 341 239 l 1
 106 63 l 2
 102 60 97 58 91 58 c 0
 77 58 66 69 66 83 c 0
91 608 m 0
 97 608 102 606 106 603 c 2
 341 427 l 1
 576 603 l 2
 580 606 585 608 591 608 c 0
 605 608 616 597 616 583 c 0
 616 575 612 568 606 563 c 2
 356 375 l 2
 352 372 346 370 341 370 c 0
 336 370 330 372 326 375 c 2
 76 563 l 2
 70 568 66 575 66 583 c 0
 66 597 77 608 91 608 c 0
EndSplineSet
Validated: 1
Ligature2: "sitelen pona-1" a n t e
EndChar
StartChar: anu.sp
Encoding: 263 60935 10
Width: 666
Flags: W
HStem: 58 21G<327 341> 588 20G<77 87.5 580.5 591>
VStem: 309 50<58.1976 323>
LayerCount: 3
Fore
SplineSet
84 608 m 0
 91 608 97 606 102 601 c 2
 334 368 l 1
 566 601 l 2
 571 606 577 608 584 608 c 0
 598 608 609 597 609 583 c 0
 609 576 607 570 602 565 c 2
 359 323 l 1
 359 83 l 2
 359 69 348 58 334 58 c 0
 320 58 309 69 309 83 c 2
 309 323 l 1
 66 565 l 2
 61 570 59 576 59 583 c 0
 59 597 70 608 84 608 c 0
EndSplineSet
Validated: 1
Ligature2: "sitelen pona-1" a n u 
EndChar
StartChar: awen.sp
Encoding: 264 60936 11
Width: 777
Flags: W
HStem: 58 50<56.1976 213 562 718.802>
LayerCount: 3
Fore
SplineSet
544 58 m 2
 533 58 524 65 521 75 c 2
 388 470 l 1
 255 75 l 2
 252 65 242 58 231 58 c 2
 81 58 l 2
 67 58 56 69 56 83 c 0
 56 97 67 108 81 108 c 2
 213 108 l 1
 364 556 l 2
 367 566 377 573 388 573 c 0
 399 573 408 566 411 556 c 2
 562 108 l 1
 694 108 l 2
 708 108 719 97 719 83 c 0
 719 69 708 58 694 58 c 2
 544 58 l 2
EndSplineSet
Validated: 1
Ligature2: "sitelen pona-1" a w e n 
EndChar
StartChar: e.sp
Encoding: 265 60937 12
Width: 631
Flags: W
LayerCount: 3
Fore
SplineSet
101 608 m 0
 87 608 76 597 76 583 c 0
 76 577 78 571 81 567 c 2
 269 333 l 1
 81 99 l 2
 78 95 76 89 76 83 c 0
 76 69 87 58 101 58 c 0
 109 58 116 61 121 67 c 2
 321 317 l 2
 328 326 328 340 321 349 c 2
 121 599 l 2
 116 605 109 608 101 608 c 0
351 608 m 0
 337 608 326 597 326 583 c 0
 326 577 328 571 331 567 c 2
 519 333 l 1
 331 99 l 2
 328 95 326 89 326 83 c 0
 326 69 337 58 351 58 c 0
 359 58 366 61 371 67 c 2
 571 317 l 2
 578 326 578 340 571 349 c 2
 371 599 l 2
 366 605 359 608 351 608 c 0
EndSplineSet
Validated: 41
Ligature2: "sitelen pona-1" e 
LCarets2: 1 0
EndChar
StartChar: en.sp
Encoding: 266 60938 40
Width: 691
Flags: W
HStem: 308 50<96.1976 121 571 595.802>
VStem: 321 50<83.1976 108 558 582.802>
LayerCount: 3
Fore
SplineSet
121 358 m 2
 107 358 96 347 96 333 c 0
 96 319 107 308 121 308 c 2
 321 308 l 1
 321 108 l 2
 321 94 332 83 346 83 c 0
 360 83 371 94 371 108 c 2
 371 308 l 1
 571 308 l 2
 585 308 596 319 596 333 c 0
 596 347 585 358 571 358 c 2
 371 358 l 1
 371 558 l 2
 371 572 360 583 346 583 c 0
 332 583 321 572 321 558 c 2
 321 358 l 1
 121 358 l 2
EndSplineSet
Validated: 9
Ligature2: "sitelen pona-1" e n
EndChar
StartChar: esun.sp
Encoding: 267 60939 41
Width: 672
Flags: HMW
HStem: 40 50 40 275<127.86 269.448> 265 50 351 50 351 275<400.552 542.14> 576 50
VStem: 72 50 307 50<303 364> 312 50<303 364> 331 267<441.571 558.431> 548 50
LayerCount: 3
Fore
SplineSet
126 506 m 2x4a40
 109 515 90 501 90 483 c 0
 90 473 95 465 103 461 c 0
 104 461 167 427 248 397 c 0
 267 390 287 384 307 378 c 1x4b
 307 363 308 347 310 330 c 0
 311 321 312 312 313 303 c 1
 280 311 246 315 215 315 c 0
 185 315 157 311 132 298 c 0
 94 277 72 238 72 180 c 0
 72 142 82 110 101 86 c 0
 125 56 160 40 197 40 c 0
 253 40 309 76 339 146 c 0
 350 172 359 202 362 237 c 1x4a80
 376 233 389 228 402 223 c 0
 479 194 539 162 539 162 c 2
 556 153 575 166 575 184 c 0
 575 194 570 203 562 207 c 0
 561 207 499 240 419 270 c 0
 401 277 382 283 363 289 c 1
 363 304 362 320 360 336 c 0
 359 346 358 355 357 364 c 1x4b
 390 356 424 351 455 351 c 0
 485 351 513 356 538 369 c 0
 576 389 598 428 598 486 c 0
 598 524 588 556 569 580 c 0
 545 610 510 626 473 626 c 0
 417 626 361 590 331 520 c 0
 320 494 311 464 308 430 c 1
 294 435 280 439 266 444 c 0
 188 473 126 506 126 506 c 2x4a40
357 430 m 0
 357 487.384765625 400 576 472 576 c 0
 518 576 548 532 548 486 c 0x0720
 548 422.9921875 505 400 455 400 c 0
 395.594726562 400 375 408 357 414 c 1
 357 430 357 422.30859375 357 430 c 0
313 237 m 0
 313 164 269 90 196 90 c 0
 151.98828125 90 123 135 123 180 c 0
 123 229 166 265 215 265 c 0xa2
 252.96484375 265 290 261 313 253 c 0
 313.08203125 252.034179688 313 238.03515625 313 237 c 0
EndSplineSet
Ligature2: "sitelen pona-1" e s u n
EndChar
StartChar: ijo.sp
Encoding: 268 60940 42
Width: 709
Flags: W
HStem: 58 50<260.457 447.543> 558 50<260.457 447.543>
VStem: 79 50<239.457 426.543> 579 50<239.457 426.543>
LayerCount: 3
Fore
SplineSet
629 333 m 0
 629 485 506 608 354 608 c 0
 202 608 79 485 79 333 c 0
 79 181 202 58 354 58 c 0
 506 58 629 181 629 333 c 0
579 333 m 0
 579 209 478 108 354 108 c 0
 230 108 129 209 129 333 c 0
 129 457 230 558 354 558 c 0
 478 558 579 457 579 333 c 0
EndSplineSet
Validated: 9
Ligature2: "sitelen pona-1" i j o 
EndChar
StartChar: ike.sp
Encoding: 269 60941 43
Width: 697
Flags: W
HStem: 414 50<246.256 449.744>
VStem: 73 50<199.257 290.677> 573 50<199.257 290.677>
LayerCount: 3
Fore
SplineSet
73 227 m 1
 73 227 101 464 348 464 c 0
 595 464 623 227 623 227 c 1
 625 211 612 199 598 199 c 0
 585 199 574 209 573 221 c 1
 573 221 552 414 348 414 c 0
 144 414 123 221 123 221 c 1
 122 209 111 199 98 199 c 0
 84 199 71 211 73 227 c 1
EndSplineSet
Validated: 33
Ligature2: "sitelen pona-1" i k e 
EndChar
StartChar: ilo.sp
Encoding: 270 60942 44
Width: 727
Flags: W
HStem: 58 21G<356.101 369.899> 58 21G<356.101 369.899> 308 50<138 338 388 588> 558 50<138 338 388 588>
VStem: 88 50<358 558> 338 50<58.201 308 358 558> 588 50<358 558>
CounterMasks: 1 0e
LayerCount: 3
Fore
SplineSet
388 308 m 1xbe
 388 83 l 2
 388 69.2021484375 376.797851562 58 363 58 c 0
 349.202148438 58 338 69.2021484375 338 83 c 2
 338 308 l 1
 113 308 l 2
 99.2021484375 308 88 319.202148438 88 333 c 2
 88 583 l 2
 88 596.797851562 99.2021484375 608 113 608 c 0
 279.666992188 608 446.333007812 608 613 608 c 0
 626.797851562 608 638 596.797851562 638 583 c 2
 638 333 l 2
 638 319.202148438 626.797851562 308 613 308 c 2
 388 308 l 1xbe
138 358 m 1
 338 358 l 1
 338 558 l 1
 138 558 l 1
 138 358 l 1
388 558 m 1
 388 358 l 1
 588 358 l 1
 588 558 l 1
 388 558 l 1
EndSplineSet
Ligature2: "sitelen pona-1" i l o 
EndChar
StartChar: insa.sp
Encoding: 271 60943 45
Width: 731
Flags: W
HStem: 283 100<323.225 404.775>
VStem: 89 50<433 457.799> 314 100<292.225 373.775> 589 50<433 457.799>
CounterMasks: 1 70
LayerCount: 3
Fore
SplineSet
589 208 m 1
 139 208 l 1
 139 433 l 2
 139 446.797851562 127.797851562 458 114 458 c 0
 100.202148438 458 89 446.797851562 89 433 c 2
 89 183 l 2
 89 169.202148438 100.202148438 158 114 158 c 2
 614 158 l 2
 627.797851562 158 639 169.202148438 639 183 c 2
 639 433 l 2
 639 446.797851562 627.797851562 458 614 458 c 0
 600.202148438 458 589 446.797851562 589 433 c 2
 589 208 l 1
414 333 m 0
 414 305.38671875 391.61328125 283 364 283 c 0
 336.38671875 283 314 305.38671875 314 333 c 0
 314 360.61328125 336.38671875 383 364 383 c 0
 391.61328125 383 414 360.61328125 414 333 c 0
414 333 m 1024
EndSplineSet
Ligature2: "sitelen pona-1" i n s a 
EndChar
StartChar: jaki.sp
Encoding: 272 60944 46
Width: 745
Flags: W
HStem: 44.9619 50<143.755 269.912 416.281 590.425> 560.511 49.957<360.811 565.673>
VStem: 67 50<121.862 241.066> 380.511 50.0225<189.752 347.617> 584.199 50<460.594 540.516> 627.906 50<129.397 236.329>
LayerCount: 3
Fore
SplineSet
353.490234375 360.103515625 m 1xf0
 331.786132812 358.110351562 309.778320312 353.1328125 287.790039062 344.583984375 c 0
 262.197265625 334.633789062 240.098632812 324.052734375 221.103515625 313.116210938 c 1
 226.471679688 293.810546875 236.0234375 273.975585938 250.790039062 253.809570312 c 0
 277.243164062 217.686523438 306.940429688 187.618164062 337.795898438 163.712890625 c 1
 364.647460938 191.501953125 381.23046875 224.364257812 380.510742188 260.323242188 c 0
 380.077148438 282.00390625 373.040039062 310.494140625 361.141601562 341.369140625 c 0
 358.766601562 347.530273438 356.208007812 353.784179688 353.490234375 360.103515625 c 1xf0
283.74609375 489.650390625 m 1
 271.733398438 478.782226562 260.905273438 466.952148438 251.630859375 454.369140625 c 0
 231.879882812 427.575195312 219.364257812 397.924804688 216.340820312 367.345703125 c 1
 232.686523438 375.745117188 250.458007812 383.725585938 269.698242188 391.205078125 c 0
 290.047851562 399.116210938 310.513671875 404.502929688 330.833984375 407.66015625 c 1
 316.399414062 435.5390625 300.111328125 463.44140625 283.74609375 489.650390625 c 1
634.19921875 508.62109375 m 0xf8
 634.19921875 444.854492188 569.166992188 392.658203125 529.91796875 371.16796875 c 1
 557.456054688 356.341796875 582.241210938 338.24609375 603.306640625 318.383789062 c 0
 647.643554688 276.581054688 677.90625 225.30859375 677.90625 174.767578125 c 0xf4
 677.90625 150.30859375 670.209960938 126.220703125 653.442382812 106.340820312 c 0
 618.115234375 64.458984375 567.107421875 44.9619140625 512.428710938 44.9619140625 c 0
 457.190429688 44.9619140625 397.422851562 64.09765625 340.83203125 100.16015625 c 1
 296.729492188 67.361328125 243.37890625 47.7001953125 195.344726562 47.7001953125 c 0
 169.302734375 47.7001953125 143.802734375 53.6181640625 122.96875 68.970703125 c 0
 88.80859375 94.1396484375 67 133.696289062 67 178.510742188 c 0
 67 232.908203125 98.1943359375 289.518554688 166.256835938 337.321289062 c 1
 165.834960938 342.54296875 165.626953125 347.750976562 165.626953125 352.939453125 c 0
 165.626953125 401.215820312 183.40234375 446.067382812 211.358398438 483.993164062 c 0
 224.264648438 501.502929688 239.393554688 517.693359375 256.19921875 532.235351562 c 1
 219.389648438 587.288085938 188.950195312 626.051757812 188.950195312 626.051757812 c 2
 185.615234375 630.30078125 183.625976562 635.654296875 183.625976562 641.46875 c 0
 183.625976562 655.266601562 194.828125 666.46875 208.625976562 666.46875 c 0
 216.609375 666.46875 223.723632812 662.71875 228.301757812 656.885742188 c 0
 228.576171875 656.536132812 259.16015625 617.6015625 296.473632812 561.94921875 c 1
 346.540039062 593.275390625 404.083984375 611.556640625 463.39453125 610.467773438 c 0
 501.399414062 609.76953125 532.024414062 605.266601562 556.813476562 597.290039062 c 0
 578.799804688 590.216796875 596.515625 580.266601562 609.697265625 567.096679688 c 0
 626.362304688 550.446289062 634.19921875 529.420898438 634.19921875 508.62109375 c 0xf8
117 178.510742188 m 0
 117 150.291992188 130.432617188 125.5703125 152.583984375 109.248046875 c 0
 162.260742188 102.118164062 176.84765625 97.7001953125 195.344726562 97.7001953125 c 0
 225.868164062 97.7001953125 264.186523438 110.088867188 297.821289062 131.395507812 c 1
 266.489257812 157.08984375 236.8671875 188.203125 210.424804688 224.313476562 c 0
 196.153320312 243.802734375 185.471679688 263.744140625 178.125 283.7890625 c 1
 132.825195312 246.713867188 117 208.416992188 117 178.510742188 c 0
584.19921875 508.62109375 m 0xf8
 584.19921875 517.239257812 581.725585938 524.377929688 574.364257812 531.733398438 c 0
 568.32421875 537.767578125 558.041015625 544.360351562 541.502929688 549.681640625 c 0
 522.651367188 555.748046875 493.778320312 560.510742188 458.673828125 560.510742188 c 0
 413.044921875 560.510742188 365.01953125 545.166992188 323.895507812 519.740234375 c 1
 345.515625 485.329101562 366.953125 448.369140625 385.151367188 410.982421875 c 1
 412.4921875 410.143554688 439.014648438 405.629882812 464.204101562 398.239257812 c 0
 467.336914062 399.208984375 478.396484375 400.46484375 504.090820312 414.194335938 c 0
 522.120117188 423.827148438 543.491210938 438.63671875 562.225585938 460.567382812 c 0
 576.584960938 477.37890625 584.19921875 495.567382812 584.19921875 508.62109375 c 0xf8
407.919921875 359.051757812 m 1
 421.42578125 323.953125 430.533203125 291.229492188 430.533203125 258.123046875 c 0
 430.533203125 210.493164062 409.5703125 168.572265625 379.69140625 135.353515625 c 1
 425.627929688 108.5390625 472.0390625 94.9619140625 512.428710938 94.9619140625 c 0
 555.426757812 94.9619140625 590.797851562 109.608398438 615.209960938 138.549804688 c 0
 623.920898438 148.877929688 627.90625 160.641601562 627.90625 174.767578125 c 0xf4
 627.90625 204.76953125 607.263671875 245.9453125 569.021484375 282.00390625 c 0
 528.38671875 320.317382812 470.583007812 350.998046875 407.919921875 359.051757812 c 1
EndSplineSet
LCarets2: 4 0 0 0 0
Ligature2: "sitelen pona-1" j a k i 
EndChar
StartChar: jan.sp
Encoding: 273 60945 47
Width: 667
Flags: W
HStem: 166.5 50<248.964 417.052> 566.5 50<250.049 415.967>
VStem: 108.008 50<308.027 474.459> 508.008 50<308.027 474.459>
LayerCount: 3
Fore
SplineSet
62.19140625 96.841796875 m 2
 50.908203125 79.9169921875 63.9443359375 58 83.0078125 58 c 0
 91.6884765625 58 99.3408203125 62.43359375 103.82421875 69.158203125 c 2
 198.478515625 211.140625 l 1
 236.00390625 183.102539062 282.5703125 166.5 333.0078125 166.5 c 0
 383.4453125 166.5 430.010742188 183.102539062 467.536132812 211.140625 c 1
 562.19140625 69.158203125 l 2
 566.674804688 62.43359375 574.327148438 58 583.0078125 58 c 0
 602.056640625 58 615.124023438 79.8916015625 603.82421875 96.841796875 c 2
 504.491210938 245.840820312 l 1
 537.8671875 285.09375 558.0078125 335.948242188 558.0078125 391.5 c 0
 558.0078125 515.748046875 457.255859375 616.5 333.0078125 616.5 c 0
 208.759765625 616.5 108.0078125 515.748046875 108.0078125 391.5 c 0
 108.0078125 335.948242188 128.147460938 285.09375 161.5234375 245.840820312 c 1
 62.19140625 96.841796875 l 2
508.0078125 391.5 m 0
 508.0078125 294.833984375 429.673828125 216.5 333.0078125 216.5 c 0
 236.341796875 216.5 158.0078125 294.833984375 158.0078125 391.5 c 0
 158.0078125 488.166015625 236.341796875 566.5 333.0078125 566.5 c 0
 429.673828125 566.5 508.0078125 488.166015625 508.0078125 391.5 c 0
EndSplineSet
Ligature2: "sitelen pona-1" j a n 
EndChar
StartChar: jelo.sp
Encoding: 274 60946 48
Width: 572
Flags: W
HStem: 408 50<60.1976 85 162.504 168.35 401.65 407.496 485 509.802>
VStem: 260 50<310.504 316.35 549.65 555.496 641 665.802>
LayerCount: 3
Fore
SplineSet
184 76 m 1
 285 214 l 1
 386 76 l 1
 184 76 l 1
385 433 m 1025
360 433 m 0
 360 392 326 358 285 358 c 0
 244 358 210 392 210 433 c 0
 210 474 244 508 285 508 c 0
 326 508 360 474 360 433 c 0
310 641 m 2
 310 655 299 666 285 666 c 0
 271 666 260 655 260 641 c 2
 260 555.49609375 l 1
 211.044921875 545.545898438 172.454101562 506.955078125 162.50390625 458 c 1
 85 458 l 2
 71 458 60 447 60 433 c 0
 60 419 71 408 85 408 c 2
 162.50390625 408 l 1
 172.454101562 359.044921875 211.044921875 320.454101562 260 310.50390625 c 1
 260 266 l 1
 115 66 l 2
 112 62 110 56 110 51 c 0
 110 37 121 26 135 26 c 2
 435 26 l 2
 449 26 460 37 460 51 c 0
 460 56 458 62 455 66 c 2
 310 266 l 1
 310 310.50390625 l 1
 358.955078125 320.454101562 397.545898438 359.044921875 407.49609375 408 c 1
 485 408 l 2
 499 408 510 419 510 433 c 0
 510 447 499 458 485 458 c 2
 407.49609375 458 l 1
 397.545898438 506.955078125 358.955078125 545.545898438 310 555.49609375 c 1
 310 641 l 2
EndSplineSet
Ligature2: "sitelen pona-1" j e l o 
EndChar
StartChar: jo.sp
Encoding: 275 60947 49
Width: 520
Flags: W
HStem: 54 50<181.042 332.04> 241 50<232.198 257> 390 50<205.173 308.505> 590 50<205.495 308.505>
VStem: 132 50<463.158 566.505> 332 50<463.495 566.505>
LayerCount: 3
Fore
SplineSet
357 515 m 1025
183 414 m 1
 204 399 229 390 257 390 c 0
 326 390 382 446 382 515 c 0
 382 584 326 640 257 640 c 0
 188 640 132 584 132 515 c 0
 132 492 138 471 149 452 c 1
 140 442 l 1
 84.7259682478 376.676144293 47.0264920785 219.960261882 109 127 c 0
 139 82 191 53 268 54 c 0
 411 55 439 199 450 253 c 0
 451 257 452 261 452 266 c 0
 452 280 441 291 427 291 c 2
 257 291 l 2
 243 291 232 280 232 266 c 0
 232 252 243 241 257 241 c 2
 396 241 l 1
 382 180 355 104 266 104 c 0
 204 104 169 126 150 155 c 0
 101.311895014 228.656363953 135.610172321 366.610172321 183 414 c 1
332 515 m 0
 332 474 298 440 257 440 c 0
 216 440 182 474 182 515 c 0
 182 556 216 590 257 590 c 0
 298 590 332 556 332 515 c 0
EndSplineSet
Validated: 41
LCarets2: 2 0 0
Ligature2: "sitelen pona-1" j o 
EndChar
StartChar: kala.sp
Encoding: 276 60948 50
Width: 825
Flags: W
HStem: 181.985 49.9902<481.954 662.48> 434.047 49.9902<481.949 662.475>
VStem: 78 39.75<208.641 212.818 453.183 457.359>
LayerCount: 3
Fore
SplineSet
592.473632812 434.046875 m 0
 560.670898438 434.046875 522.588867188 426.047851562 481.690429688 412.373046875 c 0
 424.65625 393.30078125 363.373046875 363.649414062 307.880859375 333.006835938 c 1
 363.374023438 302.3671875 424.659179688 272.717773438 481.6953125 253.647460938 c 0
 522.594726562 239.973632812 560.67578125 231.975585938 592.479492188 231.975585938 c 0
 625.21875 231.975585938 649.291992188 240.198242188 665.564453125 256.471679688 c 0
 679.790039062 270.696289062 691.397460938 294.630859375 694.584960938 333.001953125 c 1
 691.399414062 371.397460938 679.790039062 395.319335938 665.557617188 409.551757812 c 0
 649.286132812 425.823242188 625.2109375 434.046875 592.473632812 434.046875 c 0
78 233 m 0
 78 241.283203125 82.037109375 248.630859375 88.25 253.181640625 c 0
 88.640625 253.467773438 137.77734375 289.481445312 208.694335938 333.004882812 c 1
 137.778320312 376.522460938 88.6416015625 412.53125 88.2509765625 412.817382812 c 0
 82.0380859375 417.368164062 78 424.715820312 78 433 c 0
 78 446.797851562 89.2021484375 458 103 458 c 0
 108.513671875 458 113.61328125 456.2109375 117.749023438 453.182617188 c 2
 117.749023438 453.182617188 176.336914062 410.25 257.418945312 361.970703125 c 1
 320.890625 398.456054688 394.794921875 436.041992188 465.780273438 459.778320312 c 0
 509.685546875 474.458984375 552.627929688 484.037109375 592.473632812 484.037109375 c 0
 626.8515625 484.037109375 659.635742188 476.751953125 686.530273438 457.196289062 c 0
 720.62109375 432.407226562 740.380859375 390.900390625 744.58203125 334.892578125 c 0
 744.674804688 333.646484375 744.674804688 332.353515625 744.58203125 331.107421875 c 0
 740.380859375 275.107421875 720.62109375 233.606445312 686.53125 208.822265625 c 0
 659.63671875 189.268554688 626.85546875 181.985351562 592.479492188 181.985351562 c 0
 552.633789062 181.985351562 509.69140625 191.5625 465.786132812 206.241210938 c 0
 394.799804688 229.975585938 320.893554688 267.55859375 257.420898438 304.041015625 c 1
 176.337890625 255.755859375 117.75 212.818359375 117.75 212.818359375 c 0
 113.614257812 209.7890625 108.514648438 208 103 208 c 0
 89.2021484375 208 78 219.202148438 78 233 c 0
EndSplineSet
Ligature2: "sitelen pona-1" k a l a 
EndChar
StartChar: kalama.sp
Encoding: 277 60949 51
Width: 699
Flags: W
HStem: 93 50<247.551 450.449>
VStem: 324 50<408.198 433 583 607.802>
LayerCount: 3
Fore
SplineSet
599 358 m 2
 99 358 l 2
 85 358 72 346 74 330 c 1
 74 330 102 93 349 93 c 0
 596 93 624 330 624 330 c 1
 626 346 613 358 599 358 c 2
349 143 m 0
 194 143 145 255 130 308 c 1
 568 308 l 1
 553 255 504 143 349 143 c 0
324 433 m 2
 324 419 335 408 349 408 c 0
 363 408 374 419 374 433 c 2
 374 583 l 2
 374 597 363 608 349 608 c 0
 335 608 324 597 324 583 c 2
 324 433 l 2
480 446 m 2
 470 429 484 408 502 408 c 0
 511 408 519 414 523 421 c 2
 598 550 l 2
 608 567 595 588 577 588 c 0
 568 588 559 582 555 575 c 2
 480 446 l 2
196 408 m 0
 214 408 228 429 218 446 c 2
 143 575 l 2
 139 582 130 588 121 588 c 0
 103 588 90 567 100 550 c 2
 175 421 l 2
 179 414 187 408 196 408 c 0
EndSplineSet
Validated: 41
Ligature2: "sitelen pona-1" k a l a m a 
EndChar
StartChar: kama.sp
Encoding: 278 60950 52
Width: 688
Flags: W
HStem: 58 50<56.1976 165 454.257 533.909>
LayerCount: 3
Fore
SplineSet
454 83 m 0
 454 96 464 107 476 108 c 2
 567 119 l 1
 389 488 l 1
 204 73 l 2
 200 64 191 58 181 58 c 2
 81 58 l 2
 67 58 56 69 56 83 c 0
 56 97 67 108 81 108 c 2
 165 108 l 1
 365 558 l 2
 369 567 378 573 388 573 c 0
 398 573 406 567 410 559 c 2
 627 109 l 2
 629 105 630 102 630 98 c 0
 630 85 619 75 607 73 c 2
 482 58 l 2
 481 58 480 58 479 58 c 0
 465 58 454 70 454 83 c 0
EndSplineSet
Validated: 1
Ligature2: "sitelen pona-1" k a m a 
EndChar
StartChar: uniEE22.sp
Encoding: 279 60951 53
Width: 673
Flags: W
HStem: 58 21G<318.379 332.003> 291.87 50<135.009 263.486> 560.638 49.6133<416.181 547.069>
VStem: 71 50<363.905 420.761> 300.201 49.9893<58.1963 307.235> 559.803 50<480.829 552.773>
LayerCount: 3
Fore
SplineSet
354.885742188 419.2421875 m 0
 424.090820312 403.767578125 486.737304688 429.47265625 524.3515625 465.211914062 c 0
 548.384765625 488.046875 559.802734375 513.41796875 559.802734375 529.099609375 c 0
 559.802734375 539.186523438 556.752929688 545.514648438 547.44921875 551.225585938 c 0
 539.43359375 556.147460938 524.828125 560.637695312 501.993164062 560.637695312 c 0
 465.100585938 560.637695312 436.081054688 551.833984375 416.174804688 538.916992188 c 0
 393.557617188 524.241210938 377.791992188 502.22265625 366.581054688 471.002929688 c 0
 361.109375 455.766601562 356.918945312 438.5 353.76953125 419.46484375 c 0
 354.14453125 419.399414062 354.516601562 419.325195312 354.885742188 419.2421875 c 0
488.249023438 610.250976562 m 0
 522.67578125 612.133789062 551.95703125 607.12890625 573.556640625 593.868164062 c 0
 597.701171875 579.043945312 609.802734375 554.404296875 609.802734375 529.099609375 c 0
 609.802734375 493.303710938 589.166992188 457.837890625 558.778320312 428.96484375 c 0
 511.526367188 384.069335938 434.913085938 351.666015625 348.014648438 369.571289062 c 1
 343.219726562 304.947265625 345.799804688 239.926757812 347.892578125 170.3828125 c 0
 350.465820312 128.71484375 350.72265625 107.087890625 350.190429688 82.451171875 c 0
 349.8984375 68.90625 338.810546875 58 325.196289062 58 c 0
 311.561523438 58 300.4609375 68.939453125 300.201171875 82.51171875 c 0
 299.673828125 110.000976562 298.872070312 137.084960938 298.07421875 163.590820312 c 0
 295.495117188 206.623046875 290.017578125 260.7421875 278.579101562 309.525390625 c 1
 249.901367188 297.331054688 222.39453125 291.870117188 197.087890625 291.870117188 c 0
 150.04296875 291.870117188 110.86328125 310.694335938 88.7734375 339.92578125 c 0
 77.7373046875 354.530273438 71 371.921875 71 390.4453125 c 0
 71 433.344726562 106.405273438 467.79296875 163.905273438 481.9453125 c 0
 234.72265625 499.375 278.049804688 449.19140625 300.6015625 401.390625 c 1
 309.814453125 481.443359375 333.34765625 544.774414062 389.010742188 580.891601562 c 0
 415.911132812 598.346679688 448.97265625 608.104492188 488.249023438 610.250976562 c 0
224.615234375 422.98828125 m 0
 210.71484375 434.540039062 195.973632812 438.336914062 175.877929688 433.390625 c 0
 129.469726562 421.96875 121 401.877929688 121 390.4453125 c 0
 121 384.379882812 123.25 377.225585938 128.6875 370.029296875 c 0
 139.544921875 355.661132812 163.264648438 341.870117188 197.087890625 341.870117188 c 0
 216.404296875 341.870117188 239.125 346.352539062 264.24609375 357.854492188 c 1
 253.250976562 387.3359375 239.584960938 410.546875 224.615234375 422.98828125 c 0
EndSplineSet
LCarets2: 4 0 0 0 0
Ligature2: "sitelen pona-1" k a s i 
EndChar
StartChar: ken.sp
Encoding: 280 60952 54
Width: 524
Flags: W
HStem: 58 21G<116 130 416 430> 588 20G<116 130 416 430>
VStem: 98 50<58.1976 307 359 607.802> 398 50<58.1976 180.016 487.043 607.802>
LayerCount: 3
Fore
SplineSet
448 83 m 0
 448 69 437 58 423 58 c 0
 409 58 398 69 398 83 c 0
 398 234 276 295 148 307 c 1
 148 83 l 2
 148 69 137 58 123 58 c 0
 109 58 98 69 98 83 c 2
 98 583 l 2
 98 597 109 608 123 608 c 0
 137 608 148 597 148 583 c 2
 148 359 l 1
 169 361 200 366 235 377 c 0
 321 404 398 462 398 583 c 0
 398 597 409 608 423 608 c 0
 437 608 448 597 448 583 c 0
 448 444 362 368 261 333 c 1
 362 297 448 223 448 83 c 0
EndSplineSet
Validated: 1
Ligature2: "sitelen pona-1" k e n 
EndChar
StartChar: kepeken.sp
Encoding: 281 60953 55
Width: 639
Flags: W
HStem: 308 48<281.004 313 363 396.203>
VStem: 463 50<58.1976 214.542>
LayerCount: 3
Fore
SplineSet
513 83 m 0
 513 196.841842602 471.393532556 337.550037012 363 356 c 1
 363 408 l 1
 538 408 l 2
 552 408 563 419 563 433 c 2
 563 583 l 2
 563 597 552 608 538 608 c 2
 138 608 l 2
 124 608 113 597 113 583 c 2
 113 433 l 2
 113 419 124 408 138 408 c 2
 313 408 l 1
 313 356 l 1
 220.874515764 340.319066513 184.590258227 243.541549361 170 156 c 1
 109 247 l 2
 105 254 97 258 88 258 c 0
 69 258 57 236 68 219 c 2
 168 69 l 2
 172 62 179 58 188 58 c 0
 202 58 213 69 213 83 c 1
 213 83 214 189 254 255 c 0
 273 287 299 308 338 308 c 0
 377 308 404 287 423 255 c 0
 463 189 463 83 463 83 c 1
 463 69 474 58 488 58 c 0
 502 58 513 69 513 83 c 0
163 558 m 1
 313 558 l 1
 313 458 l 1
 163 458 l 1
 163 558 l 1
363 558 m 1
 513 558 l 1
 513 458 l 1
 363 458 l 1
 363 558 l 1
EndSplineSet
Validated: 41
Ligature2: "sitelen pona-1" k e p e k e n 
EndChar
StartChar: kili.sp
Encoding: 282 60954 56
Width: 706
Flags: W
HStem: 93 50<252.588 451.414> 465.812 50<153.505 284.475 419.528 550.497>
VStem: 77 50<269.837 438.384> 327.002 50<583 607.799> 577.001 50<269.837 438.384>
LayerCount: 3
Fore
SplineSet
496.661132812 465.8125 m 0
 527.372070312 465.8125 546.81640625 453.046875 559.953125 431.942382812 c 0
 570.71484375 414.65234375 577.000976562 390.45703125 577.000976562 363 c 0
 577.000976562 266.111328125 502.458984375 143 352.001953125 143 c 0
 201.54296875 143 127 266.111328125 127 363 c 0
 127 390.45703125 133.286132812 414.65234375 144.047851562 431.942382812 c 0
 157.184570312 453.046875 176.62890625 465.8125 207.340820312 465.8125 c 0
 237.837890625 465.8125 281.6796875 451.7109375 337.689453125 412.504882812 c 0
 346.04296875 406.658203125 357.958984375 406.65625 366.314453125 412.504882812 c 0
 422.323242188 451.7109375 466.165039062 465.8125 496.661132812 465.8125 c 0
377.001953125 583 m 2
 377.001953125 596.797851562 365.799804688 608 352.001953125 608 c 0
 338.204101562 608 327.001953125 596.797851562 327.001953125 583 c 2
 327.001953125 478.510742188 l 1
 282.3984375 503.90625 242.697265625 515.8125 207.340820312 515.8125 c 0
 160.022460938 515.8125 123.111328125 492.921875 101.568359375 458.310546875 c 0
 84.5859375 431.02734375 77 397.809570312 77 363 c 0
 77 244.0546875 169.125 93 352.001953125 93 c 0
 534.876953125 93 627.000976562 244.0546875 627.000976562 363 c 0
 627.000976562 397.809570312 619.415039062 431.02734375 602.43359375 458.310546875 c 0
 580.889648438 492.921875 543.979492188 515.8125 496.661132812 515.8125 c 0
 461.305664062 515.8125 421.604492188 503.90625 377.001953125 478.510742188 c 1
 377.001953125 583 l 2
EndSplineSet
Ligature2: "sitelen pona-1" k i l i 
EndChar
StartChar: kiwen.sp
Encoding: 283 60955 57
Width: 687
Flags: W
LayerCount: 3
Fore
SplineSet
327 99 m 2
 336 91 350 91 359 99 c 2
 609 314 l 2
 617 321 621 333 616 344 c 2
 516 559 l 2
 512 568 503 573 493 573 c 2
 193 573 l 2
 183 573 174 568 170 559 c 2
 70 344 l 2
 65 333 69 321 77 314 c 2
 327 99 l 2
562 340 m 1
 343 151 l 1
 124 340 l 1
 209 523 l 1
 477 523 l 1
 562 340 l 1
EndSplineSet
Validated: 41
LCarets2: 5 0 0 0 0 0
Ligature2: "sitelen pona-1" k i w e n 
EndChar
StartChar: ko.sp
Encoding: 284 60956 58
Width: 708
Flags: W
HStem: 57 50<246.109 316.901> 115 50<489.191 569.846> 154 50<408.531 483.955> 496 50<398.273 505.232> 524 50<471.607 577.889> 560 50<253.227 352.018>
VStem: 70 50<310.928 380.754> 195 50<109.661 209.804> 209 50<136.15 238.322> 512 50<285.965 375.229> 572 50<168.986 244.035> 584 50<428.623 519.237>
LayerCount: 3
Fore
SplineSet
245 135 m 0x9740
 245 121 262 107 279 107 c 0
 285 107 292 108 300 114 c 0
 310 121 322 133 335 146 c 0
 357 169 386 204 433 204 c 0xb740
 461 204 482 191 499 181 c 0
 516 171 528 165 537 165 c 0
 543 165 552 167 566 181 c 0
 571 186 572 189 572 194 c 0xc360
 572 199 570 206 566 215 c 0
 555 240 534 268 522 295 c 0
 516 308 512 321 512 337 c 0
 512 351 517 363 523 374 c 0
 537 401 564 425 577 451 c 0
 582 461 584 470 584 478 c 0
 584 502 567 524 545 524 c 0xca50
 513 524 474 496 438 496 c 0
 424 496 413 501 403 506 c 0
 378 519 352 541 327 552 c 0
 316 557 306 560 296 560 c 0
 289 560 282 558 275 555 c 0
 260 549 256 544 253 539 c 0
 250 533 250 524 249 508 c 0
 248 489 247 462 230 435 c 0
 211 405 182 397 164 392 c 0
 150 388 142 385 136 379 c 0
 131 374 120 358 120 339 c 0
 120 324 128 317 141 311 c 0
 187 287 259 283 259 211 c 0x96d0
 259 183 245 157 245 135 c 0x9740
537 115 m 0xca60
 510 115 490 129 474 138 c 0
 457 148 444 154 433 154 c 0
 430 154 427 154 423 153 c 0
 408 148 391 131 371 111 c 0
 350 90 321 57 279 57 c 0
 265 57 251 61 238 68 c 0
 214 81 195 102 195 135 c 0xa360
 195 162 209 188 209 211 c 0
 209 237 182 241 159 249 c 0
 119 264 70 285 70 337 c 0
 70 369 85 401 101 415 c 0
 118 431 137 436 151 440 c 0
 170 445 179 447 188 461 c 0
 208 493 189 526 210 563 c 0
 223 586 257 610 295 610 c 0
 314 610 332 604 348 597 c 0
 378 584 401 564 426 550 c 0
 432 547 436 546 437 546 c 0xb6c0
 439 546 443 546 449 548 c 0
 478 556 507 574 545 574 c 0
 583 574 606 554 621 526 c 0
 630 510 634 494 634 478 c 0x8ad0
 634 459 628 443 621 429 c 0
 607 400 581 376 567 350 c 0
 563 343 562 338 562 335 c 0
 562 330 564 324 568 315 c 0
 579 290 600 262 612 235 c 0
 617 223 622 209 622 194 c 0
 622 152 573 115 537 115 c 0xca60
EndSplineSet
Validated: 8388609
Ligature2: "sitelen pona-1" k o 
EndChar
StartChar: kon.sp
Encoding: 285 60957 59
Width: 514
Flags: W
HStem: 59 47<278.127 328.923> 588 20G<201.5 209.5 401 409.5>
VStem: 79 50<369.851 506.866> 158 50<150.261 305.79> 309 50<369.663 520.937> 385 50<165.944 308.913>
LayerCount: 3
Fore
SplineSet
228 583 m 0
 228 573 222 564 213 560 c 1
 213 560 176 544 151 507 c 0
 139 489 129 467 129 439 c 0
 129 396 144 378 164 353 c 0
 186 326 208 288 208 236 c 0
 208 107 118 62 114 60 c 0
 111 58 107 58 104 58 c 0
 90 58 78 69 78 83 c 0
 78 93 84 102 92 106 c 0
 103 111 119 125 129 139 c 0
 144 159 158 190 158 236 c 0
 158 278 143 298 124 323 c 0
 102 351 79 386 79 439 c 0
 79 478 92 510 109 535 c 0
 143 584 191 605 193 606 c 0
 196 608 200 608 203 608 c 0
 216 608 228 597 228 583 c 0
428 583 m 0
 428 574 423 566 416 562 c 0
 406 556 393 541 384 527 c 0
 371 507 359 478 359 439 c 0
 359 397 373 378 392 354 c 0
 414 327 435 291 435 238 c 0
 435 105 313 60 312 60 c 0
 309 59 306 59 303 59 c 0
 289 59 278 70 278 83 c 0
 278 94 284 102 294 106 c 1
 294 106 385 141 385 238 c 0
 385 280 371 300 352 324 c 0
 330 351 309 386 309 439 c 0
 309 552 387 602 390 604 c 0
 394 607 399 608 403 608 c 0
 416 608 428 597 428 583 c 0
EndSplineSet
Validated: 1
Ligature2: "sitelen pona-1" k o n 
EndChar
StartChar: kule.sp
Encoding: 286 60958 60
Width: 691
Flags: W
HStem: 255 50<71.1976 96 596 620.802>
LayerCount: 3
Fore
SplineSet
538 255 m 1
 596 255 l 2
 610 255 621 266 621 280 c 0
 621 294 610 305 596 305 c 2
 513 305 l 1
 368 594 l 2
 364 602 356 608 346 608 c 0
 336 608 328 602 324 594 c 2
 179 305 l 1
 96 305 l 2
 82 305 71 294 71 280 c 0
 71 266 82 255 96 255 c 2
 154 255 l 1
 74 94 l 2
 65 76 79 58 96 58 c 2
 596 58 l 2
 614 58 627 77 618 94 c 2
 538 255 l 1
482 255 m 1
 556 108 l 1
 136 108 l 1
 210 255 l 1
 482 255 l 1
457 305 m 1
 235 305 l 1
 346 527 l 1
 457 305 l 1
EndSplineSet
Validated: 41
Ligature2: "sitelen pona-1" k u l e 
EndChar
StartChar: kulupu.sp
Encoding: 287 60959 61
Width: 705
Flags: W
HStem: 70 50<141.495 244.505 458.821 561.83> 270 50<141.495 244.505 458.821 561.83> 361 50<300.495 403.505> 561 50<300.495 403.505>
VStem: 68 50<143.495 246.505> 227 50<434.495 537.505> 268 50<143.495 246.505> 386 50<142.849 247.151> 427 50<434.495 537.505> 586 50<143.495 246.505>
LayerCount: 3
Fore
SplineSet
610 195 m 1025xf840
477 486 m 0xfcc0
 477 555 421 611 352 611 c 0
 283 611 227 555 227 486 c 0
 227 417 283 361 352 361 c 0
 421 361 477 417 477 486 c 0xfcc0
427 486 m 0
 427 445 393 411 352 411 c 0
 311 411 277 445 277 486 c 0
 277 527 311 561 352 561 c 0
 393 561 427 527 427 486 c 0
318 195 m 0xfa40
 318 264 262 320 193 320 c 0
 124 320 68 264 68 195 c 0
 68 126 124 70 193 70 c 0
 262 70 318 126 318 195 c 0xfa40
268 195 m 0
 268 154 234 120 193 120 c 0
 152 120 118 154 118 195 c 0
 118 236 152 270 193 270 c 0
 234 270 268 236 268 195 c 0
636 195 m 0
 636 264 579 320 510 320 c 0
 441 320 386 264 386 195 c 0xf940
 386 126 441 70 510 70 c 0
 579 70 636 126 636 195 c 0
586 195 m 0
 586 154 551 120 510 120 c 0
 469 120 436 154 436 195 c 0
 436 236 469 270 510 270 c 0
 551 270 586 236 586 195 c 0
EndSplineSet
Validated: 9
Ligature2: "sitelen pona-1" k u l u p u 
EndChar
StartChar: kute.sp
Encoding: 288 60960 62
Width: 545
Flags: W
HStem: -0 47<106.232 158.576> 581 50<226.26 342.064>
VStem: 418 50<310.841 490.344>
LayerCount: 3
Fore
SplineSet
176 286 m 0
 176 293 179 299 184 304 c 0
 210 328 229 338 249 377 c 0
 253 385 261 390 271 390 c 0
 285 390 297 378 297 365 c 0
 297 361 296 358 294 354 c 0
 274 315 250 295 232 279 c 0
 227 275 222 272 218 268 c 0
 214 264 208 261 201 261 c 0
 187 261 176 272 176 286 c 0
66 445 m 0
 67 446 95 501 141 551 c 0
 177 591 227 631 287 631 c 0
 329 631 371 610 408 564 c 0
 450 512 468 457 468 404 c 0
 468 314 418 232 358 166 c 0
 283 83 190 24 141 2 c 0
 138 0 134 0 131 -0 c 0
 118 0 106 11 106 25 c 0
 106 35 111 43 120 47 c 0
 161 65 251 124 321 200 c 0
 377 261 418 333 418 404 c 0
 418 446 405 488 369 532 c 0
 338 570 311 581 287 581 c 0
 251 581 211 553 178 517 c 0
 137 472 110 421 110 421 c 1
 106 413 98 408 88 408 c 0
 74 408 63 420 63 433 c 0
 63 437 64 441 66 445 c 0
EndSplineSet
Validated: 1
Ligature2: "sitelen pona-1" k u t e 
EndChar
StartChar: lape.sp
Encoding: 289 60961 63
Width: 697
Flags: W
HStem: 183 50<406.309 529.72> 308 50<69.1976 94 320 324.662> 433 50<406.309 529.72>
VStem: 320 48<273.085 308 358 392.915> 568 50<271.28 394.72>
CounterMasks: 1 e0
LayerCount: 3
Fore
SplineSet
593 333 m 1025
94 358 m 2
 80 358 69 347 69 333 c 0
 69 319 80 308 94 308 c 2
 320 308 l 1
 332 237 394 183 468 183 c 0
 551 183 618 250 618 333 c 0
 618 416 551 483 468 483 c 0
 394 483 332 429 320 358 c 1
 94 358 l 2
568 333 m 0
 568 278 523 233 468 233 c 0
 413 233 368 278 368 333 c 0
 368 388 413 433 468 433 c 0
 523 433 568 388 568 333 c 0
EndSplineSet
Validated: 9
Ligature2: "sitelen pona-1" l a p e 
EndChar
StartChar: laso.sp
Encoding: 290 60962 64
Width: 661
Flags: W
HStem: 26 50<222 424> 292 50<131.861 274.544> 365 50<358.313 461.264> 561 50<426.909 548.386>
VStem: 69 50<363.865 420.243> 549 50<489.644 558.937>
LayerCount: 3
Fore
SplineSet
549 538 m 0
 549 557.065169345 528.769940049 561 501 561 c 0
 411.53324617 561 374.594029565 491.673133044 358 417 c 1
 366 416 375 415 383 415 c 0
 446 415 517 463 542 512 c 0
 547 523 549 532 549 538 c 0
501 611 m 0
 555.389074404 611 599 586.328228359 599 538 c 0
 599 521 594 505 586 490 c 0
 552.231831638 425.840480112 471.297411554 365 383 365 c 0
 372 365 361 366 350 368 c 1
 347 340 348 289 348 266 c 1
 493 66 l 2
 496 62 498 56 498 51 c 0
 498 37 487 26 473 26 c 2
 173 26 l 2
 159 26 148 37 148 51 c 0
 148 56 150 62 153 66 c 2
 298 266 l 1
 297 275 294 307 292 317 c 1
 258 300 225 292 195 292 c 0
 148 292 109 311 87 340 c 0
 76 355 69 371 69 390 c 0
 69 441.007822535 126.535907543 487 200 487 c 0
 251 487 287 458 308 422 c 1
 329 520 382 611 501 611 c 0
279 366 m 1
 263.213670464 413.358988609 231.964910789 446.801169235 174 433 c 0
 128 422 119 401 119 390 c 0
 119 384 121 377 126 370 c 0
 137 356 161 342 195 342 c 0
 218 342 247 348 279 366 c 1
222 76 m 1
 424 76 l 1
 323 214 l 1
 222 76 l 1
EndSplineSet
Validated: 33
LCarets2: 4 0 0 0 0
Ligature2: "sitelen pona-1" l a s o 
EndChar
StartChar: lawa.sp
Encoding: 291 60963 65
Width: 691
Flags: HW
HStem: 58 50<221.208 354.636> 408 50<602.82 627.619> 558 50<221.208 354.636>
VStem: 81 50<220.078 405.643> 444.844 50<220.078 406.891>
LayerCount: 3
Fore
SplineSet
444.84375 333 m 0
 444.84375 247.19140625 410.586914062 174.052734375 364.08203125 136.615234375 c 0
 340.897460938 117.952148438 315.014648438 108 287.921875 108 c 0
 260.829101562 108 234.946289062 117.952148438 211.76171875 136.615234375 c 0
 165.256835938 174.052734375 131 247.19140625 131 333 c 0
 131 359.458007812 134.256835938 384.7109375 140.125 408.084960938 c 0
 140.807617188 408.028320312 141.498046875 408 142.1953125 408 c 2
 435.739257812 408 l 1
 441.594726562 384.650390625 444.84375 359.42578125 444.84375 333 c 0
287.921875 558 m 0
 315.014648438 558 340.896484375 548.047851562 364.08203125 529.384765625 c 0
 385.307617188 512.296875 403.982421875 487.772460938 418.012695312 458 c 1
 157.831054688 458 l 1
 171.861328125 487.772460938 190.53515625 512.296875 211.76171875 529.384765625 c 0
 234.946289062 548.047851562 260.829101562 558 287.921875 558 c 0
602.8203125 408 m 2
 616.618164062 408 627.8203125 419.202148438 627.8203125 433 c 0
 627.8203125 446.797851562 616.618164062 458 602.8203125 458 c 2
 472.556640625 458 l 1
 455.330078125 503.177734375 428.803710938 541.4609375 395.400390625 568.350585938 c 0
 364.682617188 593.078125 327.810546875 608 287.921875 608 c 0
 248.033203125 608 211.161132812 593.078125 180.443359375 568.350585938 c 0
 119.142578125 519.00390625 81 431.28515625 81 333 c 0
 81 234.71484375 119.142578125 146.99609375 180.443359375 97.6494140625 c 0
 211.161132812 72.921875 248.033203125 58 287.921875 58 c 0
 327.810546875 58 364.682617188 72.921875 395.400390625 97.6494140625 c 0
 456.701171875 146.99609375 494.84375 234.71484375 494.84375 333 c 0
 494.84375 358.903320312 492.194335938 384.073242188 487.169921875 408 c 1
 602.8203125 408 l 2
EndSplineSet
LCarets2: 4 0 0 0 0
Ligature2: "sitelen pona-1" l a w a 
EndChar
StartChar: len.sp
Encoding: 292 60964 66
Width: 649
Flags: W
HStem: 58 21G<117.101 130.899 317.101 330.899 517.101 530.899> 208 50<149 299 349 499> 558 50<149 499>
VStem: 99 50<58.201 208 258 558> 299 50<58.201 208> 499 50<58.201 208 258 558>
CounterMasks: 1 1c
LayerCount: 3
Fore
SplineSet
149 208 m 1
 149 83 l 2
 149 69.2021484375 137.797851562 58 124 58 c 0
 110.202148438 58 99 69.2021484375 99 83 c 2
 99 583 l 2
 99 596.797851562 110.202148438 608 124 608 c 2
 524 608 l 2
 537.797851562 608 549 596.797851562 549 583 c 2
 549 83 l 2
 549 69.2021484375 537.797851562 58 524 58 c 0
 510.202148438 58 499 69.2021484375 499 83 c 2
 499 208 l 1
 349 208 l 1
 349 83 l 2
 349 69.2021484375 337.797851562 58 324 58 c 0
 310.202148438 58 299 69.2021484375 299 83 c 2
 299 208 l 1
 149 208 l 1
149 558 m 1
 149 258 l 1
 265.666992188 258 382.333007812 258 499 258 c 1
 499 558 l 1
 149 558 l 1
EndSplineSet
Ligature2: "sitelen pona-1" l e n 
EndChar
StartChar: lete.sp
Encoding: 293 60965 67
Width: 681
Flags: W
HStem: 308 50<65.1976 292 388 614.802>
LayerCount: 3
Fore
SplineSet
65 333 m 0
 65 347 76 358 90 358 c 2
 292 358 l 1
 169 534 l 2
 166 538 165 543 165 548 c 0
 165 561 176 573 190 573 c 0
 198 573 206 568 211 562 c 2
 340 377 l 1
 469 562 l 2
 474 568 482 573 490 573 c 0
 504 573 515 561 515 548 c 0
 515 543 514 538 511 534 c 2
 388 358 l 1
 590 358 l 2
 604 358 615 347 615 333 c 0
 615 319 604 308 590 308 c 2
 388 308 l 1
 511 132 l 2
 514 128 515 123 515 118 c 0
 515 105 504 93 490 93 c 0
 482 93 474 98 469 104 c 2
 340 289 l 1
 211 104 l 2
 206 98 198 93 190 93 c 0
 176 93 165 105 165 118 c 0
 165 123 166 128 169 132 c 2
 292 308 l 1
 90 308 l 2
 76 308 65 319 65 333 c 0
EndSplineSet
Validated: 1
Ligature2: "sitelen pona-1" l e t e 
EndChar
StartChar: li.sp
Encoding: 294 60966 68
Width: 550
Flags: W
LayerCount: 3
Fore
SplineSet
125 608 m 0
 111 608 100 597 100 583 c 0
 100 575 103 569 109 564 c 2
 386 333 l 1
 109 102 l 2
 103 97 100 91 100 83 c 0
 100 69 111 58 125 58 c 0
 131 58 137 60 141 64 c 2
 441 314 l 2
 453 324 453 342 441 352 c 2
 141 602 l 2
 137 606 131 608 125 608 c 0
EndSplineSet
Validated: 41
Ligature2: "sitelen pona-1" l i 
EndChar
StartChar: lili.sp
Encoding: 295 60967 69
Width: 451
Flags: W
HStem: 188.832 250
LayerCount: 3
Fore
SplineSet
93.0166015625 438.83203125 m 0
 74.0615234375 438.83203125 60.955078125 417.125 72.1005859375 400.141601562 c 2
 203.350585938 200.141601562 l 2
 207.818359375 193.33203125 215.521484375 188.83203125 224.266601562 188.83203125 c 0
 233.01171875 188.83203125 240.71484375 193.33203125 245.182617188 200.141601562 c 2
 376.432617188 400.141601562 l 2
 387.5625 417.099609375 374.485351562 438.83203125 355.516601562 438.83203125 c 0
 346.771484375 438.83203125 339.068359375 434.33203125 334.600585938 427.522460938 c 2
 224.266601562 259.395507812 l 1
 113.932617188 427.522460938 l 2
 109.46484375 434.33203125 101.76171875 438.83203125 93.0166015625 438.83203125 c 0
EndSplineSet
Ligature2: "sitelen pona-1" l i l i 
EndChar
StartChar: linja.sp
Encoding: 296 60968 70
Width: 696
Flags: W
HStem: 207 50<200.159 277.111> 409 50<416.889 493.841>
VStem: 73 48<376.787 457.907> 573 48<208.093 289.213>
LayerCount: 3
Fore
SplineSet
97 458 m 0
 81 458 68 444 73 427 c 0
 73 426 90 362 121 304 c 0
 135 278 152 253 174 234 c 0
 191 219 213 207 238 207 c 0
 285 207 328 246 369 321 c 0
 408 393 439 409 456 409 c 0
 465 409 475 404 487 394 c 0
 501 381 517 361 529 338 c 0
 557 286 573 227 573 227 c 1
 576 216 585 208 597 208 c 0
 613 208 626 222 621 239 c 0
 621 240 604 304 573 362 c 0
 559 388 542 413 520 432 c 0
 503 447 481 459 456 459 c 0
 409 459 366 420 325 345 c 0
 286 273 255 257 238 257 c 0
 229 257 219 262 207 272 c 0
 193 285 177 305 165 328 c 0
 137 380 121 439 121 439 c 1
 118 450 109 458 97 458 c 0
EndSplineSet
Validated: 41
Ligature2: "sitelen pona-1" l i n j a 
EndChar
StartChar: lipu.sp
Encoding: 297 60969 71
Width: 648
Flags: W
LayerCount: 3
Fore
SplineSet
123 608 m 2
 109 608 98 597 98 583 c 2
 98 83 l 2
 98 69 109 58 123 58 c 2
 523 58 l 2
 537 58 548 69 548 83 c 2
 548 583 l 2
 548 597 537 608 523 608 c 2
 123 608 l 2
148 108 m 1
 148 558 l 1
 498 558 l 1
 498 108 l 1
 148 108 l 1
EndSplineSet
Validated: 9
Ligature2: "sitelen pona-1" l i p u
EndChar
StartChar: loje.sp
Encoding: 298 60970 72
Width: 489
Flags: W
HStem: 379 50<172.621 311.434>
LayerCount: 3
Fore
SplineSet
95 608 m 2
 81 608 70 597 70 582 c 0
 70 574 70 538 84 497 c 0
 95 465 115 428 152 404 c 0
 176 388 206 379 242 379 c 0
 339.042158594 379 392.23047633 448.603265844 411 521 c 0
 420 555 420 581 420 583 c 0
 420 597 409 608 395 608 c 2
 95 608 l 2
70 51 m 0
 70 37 81 26 95 26 c 2
 395 26 l 2
 409 26 420 37 420 51 c 0
 420 56 418 62 415 66 c 2
 265 273 l 2
 260 279 253 283 245 283 c 0
 237 283 230 279 225 273 c 2
 75 66 l 2
 72 62 70 56 70 51 c 0
144 76 m 1
 245 215 l 1
 346 76 l 1
 144 76 l 1
367 558 m 1
 354.769081084 490.729945961 325.284456705 429 242 429 c 0
 159.676041391 429 132.584543046 489.200470199 122 558 c 1
 367 558 l 1
EndSplineSet
Validated: 9
LCarets2: 4 0 0 0 0
Ligature2: "sitelen pona-1" l o j e 
EndChar
StartChar: lon.sp
Encoding: 299 60971 73
Width: 691
Flags: W
HStem: 208 50<70.1976 95 595 619.802> 389 100<303.438 386.562>
VStem: 295 100<397.438 480.562>
LayerCount: 3
Fore
SplineSet
395 439 m 1024
95 258 m 2
 81 258 70 247 70 233 c 0
 70 219 81 208 95 208 c 2
 595 208 l 2
 609 208 620 219 620 233 c 0
 620 247 609 258 595 258 c 2
 95 258 l 2
395 439 m 0
 395 411 373 389 345 389 c 0
 317 389 295 411 295 439 c 0
 295 467 317 489 345 489 c 0
 373 489 395 467 395 439 c 0
EndSplineSet
Validated: 9
LCarets2: 2 0 0
Ligature2: "sitelen pona-1" l o n
EndChar
StartChar: luka.sp
Encoding: 300 60972 74
Width: 611
Flags: W
HStem: 523 50<285.222 403.478>
VStem: 163.604 49.9209<242.808 413.198> 171.397 47.6816<93.2085 107.479> 474.635 50<94.7034 413.209>
LayerCount: 3
Fore
SplineSet
474.634765625 229.484375 m 0xd0
 474.634765625 163.034179688 469.079101562 122.491210938 469.079101562 118 c 0
 469.079101562 104.202148438 480.28125 93 494.079101562 93 c 0
 506.891601562 93 517.465820312 102.659179688 518.911132812 115.086914062 c 0
 518.985351562 115.729492188 524.634765625 164.31640625 524.634765625 229.484375 c 0
 524.634765625 277.775390625 521.58984375 335.141601562 510.463867188 389.360351562 c 0
 501.575195312 432.681640625 487.626953125 474.416992188 464.186523438 508.014648438 c 0
 437.604492188 546.115234375 397.458007812 573 344.083007812 573 c 0
 290.705078125 573 250.556640625 546.112304688 223.974609375 508.009765625 c 0
 200.534179688 474.408203125 186.5859375 432.670898438 177.696289062 389.346679688 c 0
 167.579101562 340.038085938 164.143554688 288.127929688 163.604492188 242.807617188 c 1xd0
 116.760742188 343.521484375 l 2
 112.78515625 352.068359375 104.119140625 358 94.0791015625 358 c 0
 76.8935546875 358 63.3095703125 339.869140625 71.3974609375 322.478515625 c 2
 171.397460938 107.478515625 l 2
 175.373046875 98.931640625 184.0390625 93 194.079101562 93 c 0
 207.876953125 93 219.079101562 104.202148438 219.079101562 118 c 0xb0
 219.079101562 122.591796875 213.525390625 162.927734375 213.525390625 229.463867188 c 0
 213.525390625 275.547851562 216.576171875 330.037109375 226.67578125 379.259765625 c 0
 234.766601562 418.690429688 247.481445312 454.323242188 265.009765625 479.44921875 c 0
 284.51953125 507.4140625 308.5703125 523 344.083007812 523 c 0
 379.59375 523 403.643554688 507.416015625 423.151367188 479.454101562 c 0
 440.6796875 454.330078125 453.393554688 418.701171875 461.484375 379.272460938 c 0
 471.583007812 330.0546875 474.634765625 275.568359375 474.634765625 229.484375 c 0xd0
EndSplineSet
Ligature2: "sitelen pona-1" l u k a
EndChar
StartChar: lukin.sp
Encoding: 301 60973 75
Width: 749
Flags: W
HStem: 158 50<239.861 508.139> 270 125<326.863 421.707> 458 50<239.861 508.139>
VStem: 74 50<284.887 381.113> 312 125<285.293 380.137> 624 50<284.887 381.113>
LayerCount: 3
Fore
SplineSet
437 333 m 1024
437 333 m 0
 437 298 409 270 374 270 c 0
 339 270 312 298 312 333 c 0
 312 368 339 395 374 395 c 0
 409 395 437 368 437 333 c 0
674 333 m 0
 674 369 655 402 628 427 c 0
 573 478 480 508 374 508 c 0
 268 508 175 478 120 427 c 0
 93 402 74 369 74 333 c 0
 74 297 93 264 120 239 c 0
 175 188 268 158 374 158 c 0
 480 158 573 188 628 239 c 0
 655 264 674 297 674 333 c 0
624 333 m 0
 624 314 614 295 594 276 c 0
 553 238 471 208 374 208 c 0
 277 208 195 238 154 276 c 0
 134 295 124 314 124 333 c 0
 124 352 134 371 154 390 c 0
 195 428 277 458 374 458 c 0
 471 458 553 428 594 390 c 0
 614 371 624 352 624 333 c 0
EndSplineSet
Validated: 9
Ligature2: "sitelen pona-1" l u k i n 
EndChar
StartChar: lupa.sp
Encoding: 302 60974 76
Width: 631
Flags: W
HStem: 58 50<243.818 388.182> 588 20G<109.5 123 509 522.5>
VStem: 87 50<274.978 607.066> 495 50<274.21 607.066>
LayerCount: 3
Fore
SplineSet
137 484 m 0
 137 431 140 364 153 301 c 0
 171 209 213 108 316 108 c 0
 419 108 461 208 479 300 c 0
 492 363 495 431 495 484 c 0
 495 545 491 579 491 583 c 0
 491 597 502 608 516 608 c 0
 529 608 540 599 541 586 c 0
 541 585 545 543 545 484 c 0
 545 429 542 358 528 290 c 0
 505 178 447 58 316 58 c 0
 185 58 127 178 104 290 c 0
 90 358 87 429 87 484 c 0
 87 543 91 585 91 586 c 0
 92 599 103 608 116 608 c 0
 130 608 141 597 141 583 c 0
 141 579 137 545 137 484 c 0
EndSplineSet
Validated: 1
Ligature2: "sitelen pona-1" l u p a 
EndChar
StartChar: ma.sp
Encoding: 303 60975 77
Width: 710
Flags: W
HStem: 83 25<329.004 379.004> 558 25<329.004 379.004>
VStem: 104 25<307.996 358> 579 25<307.996 357.996>
LayerCount: 3
Fore
SplineSet
579 333 m 0
 579 208.720703125 478.279296875 108 354 108 c 0
 229.720703125 108 129 208.720703125 129 333 c 0
 129 457.279296875 229.720703125 558 354 558 c 0
 478.279296875 558 579 457.279296875 579 333 c 0
629 333 m 0
 629 484.861328125 505.861328125 608 354 608 c 0
 202.138671875 608 79 484.861328125 79 333 c 0
 79 181.138671875 202.138671875 58 354 58 c 0
 505.861328125 58 629 181.138671875 629 333 c 0
329.00390625 307.99609375 m 1
 329.00390625 83 l 1
 379.00390625 83 l 1
 379.00390625 307.99609375 l 1
 454.002929688 308 529.000976562 307.99609375 604 307.99609375 c 1
 604 357.99609375 l 1
 529.000976562 357.99609375 454.002929688 358 379.00390625 358 c 1
 379.00390625 583 l 1
 329.00390625 583 l 1
 329.00390625 358 l 1
 104 358 l 1
 104 307.99609375 l 1
 329.00390625 307.99609375 l 1
EndSplineSet
LCarets2: 2 0 0
Ligature2: "sitelen pona-1" m a 
EndChar
StartChar: mama.sp
Encoding: 304 60976 78
Width: 599
Flags: W
HStem: 8 50<246.764 351.236> 208 50<246.954 351.046> 608 50<216.041 381.959>
VStem: 74 50<349.639 515.959> 174 50<80.7636 185.655> 374 50<80.7636 185.655> 474 50<349.639 515.959>
LayerCount: 3
Fore
SplineSet
374 133 m 0
 374 91.5654296875 340.434570312 58 299 58 c 0
 257.565429688 58 224 91.5654296875 224 133 c 0
 224 174.434570312 257.565429688 208 299 208 c 0
 340.434570312 208 374 174.434570312 374 133 c 0
524 433 m 0
 524 557.248046875 423.248046875 658 299 658 c 0
 174.751953125 658 74 557.248046875 74 433 c 0
 74 338.834605156 131.870468247 258.165027565 213.980642432 224.622029537 c 1
 189.390309752 201.792347589 174 169.188242135 174 133 c 0
 174 63.9814453125 229.981445312 8 299 8 c 0
 368.018554688 8 424 63.9814453125 424 133 c 0
 424 169.188242135 408.609690248 201.792347589 384.019357568 224.622029537 c 1
 466.129531753 258.165027565 524 338.834605156 524 433 c 0
299 258 m 0
 202.333984375 258 124 336.333984375 124 433 c 0
 124 529.666015625 202.333984375 608 299 608 c 0
 395.666015625 608 474 529.666015625 474 433 c 0
 474 336.333984375 395.666015625 258 299 258 c 0
EndSplineSet
LCarets2: 4 0 0 0 0
Ligature2: "sitelen pona-1" m a m a 
EndChar
StartChar: mani.sp
Encoding: 305 60977 79
Width: 680
Flags: HW
HStem: 58 50<258.037 423.955> 458 50<258.037 423.955>
VStem: 66 50<511.356 616.299> 115.996 50<200.041 365.959> 515.996 50<200.041 365.959> 566 50<511.356 616.299>
LayerCount: 3
Fore
SplineSet
165.99609375 283 m 0xdc
 165.99609375 379.666015625 244.330078125 458 340.99609375 458 c 0
 437.662109375 458 515.99609375 379.666015625 515.99609375 283 c 0
 515.99609375 186.333984375 437.662109375 108 340.99609375 108 c 0
 244.330078125 108 165.99609375 186.333984375 165.99609375 283 c 0xdc
115.99609375 283 m 0
 115.99609375 158.751953125 216.748046875 58 340.99609375 58 c 0
 465.244140625 58 565.99609375 158.751953125 565.99609375 283 c 0
 565.99609375 407.248046875 465.244140625 508 340.99609375 508 c 0
 216.748046875 508 115.99609375 407.248046875 115.99609375 283 c 0
116 591.5 m 0xec
 116 605.297851562 104.797851562 616.5 91 616.5 c 0
 77.2021484375 616.5 66 605.297851562 66 591.5 c 0
 66 543.360351562 76.93359375 507.913085938 95.9189453125 481.469726562 c 0
 119.563476562 448.536132812 152.422851562 432.834960938 179.84375 419.125 c 0
 197.198242188 410.447265625 216 423.9921875 216 441.5 c 0
 216 451.290039062 210.360351562 459.7734375 202.15625 463.875 c 0
 174.021484375 477.942382812 151.325195312 490.01953125 136.561523438 510.583984375 c 0
 124.819335938 526.939453125 116 550.750976562 116 591.5 c 0xec
616 591.5 m 0
 616 605.297851562 604.797851562 616.5 591 616.5 c 0
 577.202148438 616.5 566 605.297851562 566 591.5 c 0
 566 550.750976562 557.180664062 526.939453125 545.438476562 510.583984375 c 0
 530.674804688 490.01953125 507.978515625 477.942382812 479.84375 463.875 c 0
 471.639648438 459.7734375 466 451.290039062 466 441.5 c 0
 466 423.999023438 484.780273438 410.4375 502.15625 419.125 c 0
 529.577148438 432.834960938 562.436523438 448.536132812 586.081054688 481.469726562 c 0
 605.06640625 507.913085938 616 543.360351562 616 591.5 c 0
EndSplineSet
Ligature2: "sitelen pona-1" m a n i 
EndChar
StartChar: meli.sp
Encoding: 306 60978 80
Width: 830
Flags: W
HStem: 72 50<331.018 496.982> 472 50<331.018 496.982> 582 50<294.578 534.604>
VStem: 114 49<29.1821 148.059> 189 50<214.018 379.982> 589 50<214.018 379.982> 664 49<29.2511 148.553>
LayerCount: 3
Fore
SplineSet
133 267 m 0
 133 459.86101261 223.493667067 582 414 582 c 0
 520 582 592 544 638 480 c 0
 675 428 695 356 695 268 c 0
 695 206 684 136 664 60 c 0
 659 43 673 29 689 29 c 0
 701 29 710 36 713 47 c 0
 757 212 763 390 679 509 c 0
 623 588 532 632 414 632 c 0
 296 632 204 587 148 508 c 0
 64 389 70 211 114 47 c 0
 117 36 127 29 139 29 c 0
 155 29 168 43 163 60 c 0
 143 135 133 205 133 267 c 0
639 297 m 0
 639 421 538 522 414 522 c 0
 290 522 189 421 189 297 c 0
 189 173 290 72 414 72 c 0
 538 72 639 173 639 297 c 0
589 297 m 0
 589 200 511 122 414 122 c 0
 317 122 239 200 239 297 c 0
 239 394 317 472 414 472 c 0
 511 472 589 394 589 297 c 0
EndSplineSet
Validated: 41
Ligature2: "sitelen pona-1" m e l i 
EndChar
StartChar: mi.sp
Encoding: 307 60979 81
Width: 450
Flags: W
HStem: 361 50<171.49 294.72> 611 50<171.28 294.72>
VStem: 83 50<373.416 572.72> 333 50<449.28 572.72>
LayerCount: 3
Fore
SplineSet
358 511 m 1025
333 511 m 0
 333 566 288 611 233 611 c 0
 178 611 133 566 133 511 c 0
 133 456 178 411 233 411 c 0
 288 411 333 456 333 511 c 0
140 393 m 1
 140 393 151 260 204 85 c 0
 205 82 205 80 205 78 c 0
 205 64 194 53 180 53 c 0
 169 53 159 60 156 70 c 0
 102 249 84 387 83 511 c 0
 83 594 150 661 233 661 c 0
 316 661 383 594 383 511 c 0
 383 428 316 361 233 361 c 0
 198 361 166 373 140 393 c 1
EndSplineSet
Validated: 1
LCarets2: 2 0 0
Ligature2: "sitelen pona-1" m i 
EndChar
StartChar: mije.sp
Encoding: 308 60980 82
Width: 701
Flags: W
HStem: 166.5 50<266.271 433.729> 566.5 50<267.041 432.959>
VStem: 75 50<58.201 83> 125 50<307.814 474.459> 525 50<307.814 474.459> 575 50<58.201 83>
LayerCount: 3
Fore
SplineSet
525 391.5 m 0xd8
 525 294.833984375 446.666015625 216.5 350 216.5 c 0
 253.333984375 216.5 175 294.833984375 175 391.5 c 0
 175 488.166015625 253.333984375 566.5 350 566.5 c 0
 446.666015625 566.5 525 488.166015625 525 391.5 c 0xd8
75 83 m 2xe0
 75 69.2021484375 86.2021484375 58 100 58 c 0
 113.797851562 58 125 69.2021484375 125 83 c 2xe0
 125 208 l 1
 215 208 l 2
 216.455078125 208 217.881835938 208.125 219.26953125 208.364257812 c 0
 256.118164062 182.009765625 301.250976562 166.5 350 166.5 c 0
 398.749023438 166.5 443.881835938 182.009765625 480.73046875 208.364257812 c 0
 482.118164062 208.125 483.544921875 208 485 208 c 2
 575 208 l 1
 575 83 l 2
 575 69.2021484375 586.202148438 58 600 58 c 0
 613.797851562 58 625 69.2021484375 625 83 c 2
 625 233 l 2xd4
 625 246.797851562 613.797851562 258 600 258 c 2
 531.124023438 258 l 1
 558.698242188 295.346679688 575 341.522460938 575 391.5 c 0
 575 515.748046875 474.248046875 616.5 350 616.5 c 0
 225.751953125 616.5 125 515.748046875 125 391.5 c 0xd8
 125 341.522460938 141.301757812 295.346679688 168.875976562 258 c 1
 100 258 l 2
 86.2021484375 258 75 246.797851562 75 233 c 2
 75 83 l 2xe0
EndSplineSet
LCarets2: 4 0 0 0 0
Ligature2: "sitelen pona-1" m i j e 
EndChar
StartChar: moku.sp
Encoding: 309 60981 83
Width: 589
Flags: W
HStem: 308 50<280.158 394.934> 379 50<264.621 403.434>
VStem: 462 50<58.1976 211.054>
LayerCount: 3
Fore
SplineSet
187 608 m 2
 173 608 162 597 162 582 c 0
 162 574 162 538 176 497 c 0
 187 465 207 428 244 404 c 0
 268 388 298 379 334 379 c 0
 431.042158594 379 484.23047633 448.603265844 503 521 c 0
 512 555 512 581 512 583 c 0
 512 597 501 608 487 608 c 2
 187 608 l 2
337 358 m 0
 225.679875555 358 184.514658857 249.087953143 169 156 c 1
 108 247 l 2
 104 254 96 258 87 258 c 0
 68 258 55 236 66 219 c 2
 166 69 l 2
 170 62 178 58 187 58 c 0
 201 58 212 69 212 83 c 1
 212 83 213 189 253 255 c 0
 272 287 298 308 337 308 c 0
 376 308 402 287 421 255 c 0
 461 189 462 83 462 83 c 1
 462 69 473 58 487 58 c 0
 501 58 512 69 512 83 c 0
 512 84 512 120 504 165 c 0
 489.236316805 253.582099169 443.675141537 358 337 358 c 0
459 558 m 1
 446.769081084 490.729945961 417.284456705 429 334 429 c 0
 251.676041391 429 224.584543046 489.200470199 214 558 c 1
 459 558 l 1
EndSplineSet
Validated: 41
Ligature2: "sitelen pona-1" m o k u 
EndChar
StartChar: moli.sp
Encoding: 310 60982 84
Width: 709
Flags: W
HStem: 58 50<260.457 447.543> 558 50<260.457 447.543>
VStem: 79 50<239.457 426.543> 579 50<239.457 426.543>
LayerCount: 3
Fore
SplineSet
629 333 m 0
 629 485 506 608 354 608 c 0
 202 608 79 485 79 333 c 0
 79 181 202 58 354 58 c 0
 506 58 629 181 629 333 c 0
579 333 m 0
 579 209 478 108 354 108 c 0
 230 108 129 209 129 333 c 0
 129 457 230 558 354 558 c 0
 478 558 579 457 579 333 c 0
204 408 m 0
 190 408 179 397 179 383 c 0
 179 376 181 370 186 365 c 2
 219 333 l 1
 186 301 l 2
 181 296 179 290 179 283 c 0
 179 269 190 258 204 258 c 0
 211 258 217 260 222 265 c 2
 254 298 l 1
 286 265 l 2
 291 260 297 258 304 258 c 0
 318 258 329 269 329 283 c 0
 329 290 327 296 322 301 c 2
 289 333 l 1
 322 365 l 2
 327 370 329 376 329 383 c 0
 329 397 318 408 304 408 c 0
 297 408 291 406 286 401 c 2
 254 368 l 1
 222 401 l 2
 217 406 211 408 204 408 c 0
529 383 m 0
 529 397 518 408 504 408 c 0
 497 408 491 406 486 401 c 2
 454 368 l 1
 422 401 l 2
 417 406 411 408 404 408 c 0
 390 408 379 397 379 383 c 0
 379 376 381 370 386 365 c 2
 419 333 l 1
 386 301 l 2
 381 296 379 290 379 283 c 0
 379 269 390 258 404 258 c 0
 411 258 417 260 422 265 c 2
 454 298 l 1
 486 265 l 2
 491 260 497 258 504 258 c 0
 518 258 529 269 529 283 c 0
 529 290 527 296 522 301 c 2
 489 333 l 1
 522 365 l 2
 527 370 529 376 529 383 c 0
EndSplineSet
Validated: 9
Ligature2: "sitelen pona-1" m o l i 
EndChar
StartChar: monsi.sp
Encoding: 311 60983 85
Width: 604
Flags: W
HStem: 58 50<514 538.802> 283 100<76.4375 159.562> 558 50<514 538.802>
VStem: 68 100<291.438 374.562>
CounterMasks: 1 e0
LayerCount: 3
Fore
SplineSet
168 333 m 1024
168 333 m 0
 168 305 146 283 118 283 c 0
 90 283 68 305 68 333 c 0
 68 361 90 383 118 383 c 0
 146 383 168 361 168 333 c 0
339 108 m 1
 339 558 l 1
 514 558 l 2
 528 558 539 569 539 583 c 0
 539 597 528 608 514 608 c 2
 314 608 l 2
 300 608 289 597 289 583 c 2
 289 83 l 2
 289 69 300 58 314 58 c 2
 514 58 l 2
 528 58 539 69 539 83 c 0
 539 97 528 108 514 108 c 2
 339 108 l 1
EndSplineSet
Validated: 9
Ligature2: "sitelen pona-1" m o n s i 
EndChar
StartChar: mu.sp
Encoding: 312 60984 86
Width: 697
Flags: HW
HStem: 40.9922 50<283.546 415.954> 151.184 100<307.505 389.056> 456.664 50<310.097 389.403> 603.207 50<138.762 243.236 456.262 560.736>
VStem: 66 50<475.969 580.443> 153.52 50<180.383 367.273> 266 50<498.658 580.443> 298.281 100<160.409 241.959> 383.5 50<498.658 580.443> 495.98 50<180.383 367.273> 583.5 50<475.969 580.443>
LayerCount: 3
Fore
SplineSet
608.5 528.20703125 m 1025xfc60
583.5 528.20703125 m 0
 583.5 486.768554688 549.935546875 453.20703125 508.5 453.20703125 c 0
 467.060546875 453.20703125 433.5 486.767578125 433.5 528.20703125 c 0xfce0
 433.5 569.642578125 467.061523438 603.20703125 508.5 603.20703125 c 0
 549.934570312 603.20703125 583.5 569.641601562 583.5 528.20703125 c 0
633.5 528.20703125 m 0
 633.5 597.225585938 577.518554688 653.20703125 508.5 653.20703125 c 0
 439.477539062 653.20703125 383.5 597.224609375 383.5 528.20703125 c 0
 383.5 459.185546875 439.478515625 403.20703125 508.5 403.20703125 c 0
 577.517578125 403.20703125 633.5 459.184570312 633.5 528.20703125 c 0
266 528.20703125 m 0xfe60
 266 486.768554688 232.435546875 453.20703125 191 453.20703125 c 0
 149.560546875 453.20703125 116 486.767578125 116 528.20703125 c 0
 116 569.642578125 149.561523438 603.20703125 191 603.20703125 c 0
 232.434570312 603.20703125 266 569.641601562 266 528.20703125 c 0xfe60
316 528.20703125 m 0
 316 597.225585938 260.018554688 653.20703125 191 653.20703125 c 0
 121.977539062 653.20703125 66 597.224609375 66 528.20703125 c 0
 66 459.185546875 121.978515625 403.20703125 191 403.20703125 c 0
 260.017578125 403.20703125 316 459.184570312 316 528.20703125 c 0
495.98046875 273.828125 m 0
 495.98046875 168.684570312 426.423828125 90.9921875 349.75 90.9921875 c 0
 273.076171875 90.9921875 203.51953125 168.684570312 203.51953125 273.828125 c 0
 203.51953125 378.971679688 273.076171875 456.6640625 349.75 456.6640625 c 0
 426.423828125 456.6640625 495.98046875 378.97265625 495.98046875 273.828125 c 0
545.98046875 273.828125 m 0
 545.98046875 398.255859375 462.208984375 506.6640625 349.75 506.6640625 c 0
 237.291015625 506.6640625 153.51953125 398.254882812 153.51953125 273.828125 c 0
 153.51953125 149.401367188 237.291015625 40.9921875 349.75 40.9921875 c 0
 462.208984375 40.9921875 545.98046875 149.401367188 545.98046875 273.828125 c 0
398.28125 201.18359375 m 0xfd60
 398.28125 173.5703125 375.89453125 151.18359375 348.28125 151.18359375 c 0
 320.6640625 151.18359375 298.28125 173.5703125 298.28125 201.18359375 c 0
 298.28125 228.796875 320.6640625 251.18359375 348.28125 251.18359375 c 0
 375.89453125 251.18359375 398.28125 228.796875 398.28125 201.18359375 c 0xfd60
398.28125 201.18359375 m 1024
EndSplineSet
Ligature2: "sitelen pona-1" m u 
EndChar
StartChar: mun.sp
Encoding: 313 60985 87
Width: 475
Flags: W
VStem: 165 50<187.691 478.309> 347 50<244.176 421.824>
LayerCount: 3
Fore
SplineSet
47 33 m 0
 47 17 62 4 79 9 c 0
 80 9 175 36 262 99 c 0
 331 149 397 226 397 333 c 0
 397 440 331 517 262 567 c 0
 175 630 80 657 79 657 c 0
 62 662 47 649 47 633 c 0
 47 625 51 618 57 613 c 0
 75.2284342178 597.809638152 102.076584309 567.545030174 119 535 c 0
 143 490 165 424 165 333 c 0
 165 242 143 176 119 131 c 0
 106 106 91 88 80 75 c 0
 67 60 60 55 57 53 c 0
 51 48 47 41 47 33 c 0
155 573 m 1
 244 529 347 451 347 333 c 0
 347 215 244 137 155 93 c 1
 186 145 215 223 215 333 c 0
 215 443 186 521 155 573 c 1
EndSplineSet
Validated: 41
Ligature2: "sitelen pona-1" m u n 
EndChar
StartChar: musi.sp
Encoding: 314 60986 88
Width: 701
Flags: W
HStem: 58 50<264.296 439.204> 403.207 50<174.288 245.236 458.262 529.212> 603.207 50<140.762 245.236 458.262 562.736>
VStem: 68 50<475.601 580.443> 122.668 50<221.981 404.637> 268 50<475.969 580.443> 385.5 50<475.969 580.443> 530.832 50<221.981 404.637> 585.5 50<475.601 580.443>
LayerCount: 3
Fore
SplineSet
610.5 528.20703125 m 1025
318 528.20703125 m 0
 318 597.225585938 262.018554688 653.20703125 193 653.20703125 c 0
 123.977539062 653.20703125 68 597.224609375 68 528.20703125 c 0
 68 484.067757258 90.8930237748 445.262547422 125.450107812 423.020365254 c 1
 124.205974103 410.254542344 122.66796875 389.283539872 122.66796875 363.612304688 c 0
 122.66796875 317.737304688 127.369140625 256.6953125 148.872070312 200.173828125 c 0
 166.033203125 155.065429688 194.701171875 111.733398438 241.6015625 84.93359375 c 0
 271.643554688 67.7666015625 308.293945312 58 351.75 58 c 0
 395.206054688 58 431.856445312 67.7666015625 461.8984375 84.93359375 c 0
 508.798828125 111.733398438 537.466796875 155.065429688 554.627929688 200.173828125 c 0
 576.130859375 256.6953125 580.83203125 317.737304688 580.83203125 363.612304688 c 0
 580.83203125 389.2840877 579.293960254 410.255437391 578.049812539 423.021182516 c 1
 612.606106623 445.263330909 635.5 484.067834433 635.5 528.20703125 c 0
 635.5 597.225585938 579.518554688 653.20703125 510.5 653.20703125 c 0
 441.477539062 653.20703125 385.5 597.224609375 385.5 528.20703125 c 0
 385.5 459.185546875 441.478515625 403.20703125 510.5 403.20703125 c 0
 516.947167453 403.20703125 523.280589279 403.695494924 529.465257806 404.63742654 c 1
 530.217468275 394.329241715 530.83203125 380.899295342 530.83203125 363.612304688 c 0
 530.83203125 321.303710938 526.006835938 265.583984375 507.876953125 217.928710938 c 0
 493.331054688 179.694335938 471.025390625 147.737304688 437.14453125 128.377929688 c 0
 415.255859375 115.870117188 387.659179688 108 351.75 108 c 0
 315.840820312 108 288.244140625 115.870117188 266.35546875 128.377929688 c 0
 232.474609375 147.737304688 210.168945312 179.694335938 195.623046875 217.928710938 c 0
 177.493164062 265.583984375 172.66796875 321.303710938 172.66796875 363.612304688 c 0
 172.66796875 380.85183712 173.283255121 394.299704089 174.036070075 404.637110478 c 1
 180.2202699 403.695386165 186.553241713 403.20703125 193 403.20703125 c 0
 262.017578125 403.20703125 318 459.184570312 318 528.20703125 c 0
268 528.20703125 m 0
 268 486.768554688 234.435546875 453.20703125 193 453.20703125 c 0
 151.560546875 453.20703125 118 486.767578125 118 528.20703125 c 0
 118 569.642578125 151.561523438 603.20703125 193 603.20703125 c 0
 234.434570312 603.20703125 268 569.641601562 268 528.20703125 c 0
585.5 528.20703125 m 0
 585.5 486.768554688 551.935546875 453.20703125 510.5 453.20703125 c 0
 469.060546875 453.20703125 435.5 486.767578125 435.5 528.20703125 c 0
 435.5 569.642578125 469.061523438 603.20703125 510.5 603.20703125 c 0
 551.934570312 603.20703125 585.5 569.641601562 585.5 528.20703125 c 0
EndSplineSet
Ligature2: "sitelen pona-1" m u s i 
EndChar
StartChar: mute.sp
Encoding: 315 60987 89
Width: 548
Flags: W
HStem: 58 21G<116 130 266 280 416 430> 588 20G<116 130 266 280 416 430>
VStem: 98 50<58.1976 607.802> 248 50<58.1976 607.802> 398 50<58.1976 607.802>
CounterMasks: 1 38
LayerCount: 3
Fore
SplineSet
148 583 m 2
 148 83 l 2
 148 69 137 58 123 58 c 0
 109 58 98 69 98 83 c 2
 98 583 l 2
 98 597 109 608 123 608 c 0
 137 608 148 597 148 583 c 2
298 583 m 2
 298 83 l 2
 298 69 287 58 273 58 c 0
 259 58 248 69 248 83 c 2
 248 583 l 2
 248 597 259 608 273 608 c 0
 287 608 298 597 298 583 c 2
448 583 m 2
 448 83 l 2
 448 69 437 58 423 58 c 0
 409 58 398 69 398 83 c 2
 398 583 l 2
 398 597 409 608 423 608 c 0
 437 608 448 597 448 583 c 2
EndSplineSet
Validated: 1
Ligature2: "sitelen pona-1" m u t e 
EndChar
StartChar: nanpa.sp
Encoding: 316 60988 90
Width: 699
Flags: W
HStem: 208 50<74.1976 99 599 623.802> 408 50<74.1976 99 599 623.802>
VStem: 227 50<58.1976 83 583 607.802> 421 50<58.1976 83 583 607.802>
LayerCount: 3
Fore
SplineSet
421 408 m 1
 421 258 l 1
 277 258 l 1
 277 408 l 1
 421 408 l 1
99 258 m 2
 85 258 74 247 74 233 c 0
 74 219 85 208 99 208 c 2
 227 208 l 1
 227 83 l 2
 227 69 238 58 252 58 c 0
 266 58 277 69 277 83 c 2
 277 208 l 1
 421 208 l 1
 421 83 l 2
 421 69 432 58 446 58 c 0
 460 58 471 69 471 83 c 2
 471 208 l 1
 599 208 l 2
 613 208 624 219 624 233 c 0
 624 247 613 258 599 258 c 2
 471 258 l 1
 471 408 l 1
 599 408 l 2
 613 408 624 419 624 433 c 0
 624 447 613 458 599 458 c 2
 471 458 l 1
 471 583 l 2
 471 597 460 608 446 608 c 0
 432 608 421 597 421 583 c 2
 421 458 l 1
 277 458 l 1
 277 583 l 2
 277 597 266 608 252 608 c 0
 238 608 227 597 227 583 c 2
 227 458 l 1
 99 458 l 2
 85 458 74 447 74 433 c 0
 74 419 85 408 99 408 c 2
 227 408 l 1
 227 258 l 1
 99 258 l 2
EndSplineSet
Validated: 9
Ligature2: "sitelen pona-1" n a n p a 
EndChar
StartChar: nasa.sp
Encoding: 317 60989 91
Width: 623
Flags: W
HStem: 74 50<239.294 404.281> 561 50<272.131 474.712>
VStem: 79 50<236.648 331 359 421.831> 223 50<281.119 382.766> 354 50<268.141 324.336> 494 50<211.132 355.683>
LayerCount: 3
Fore
SplineSet
323 74 m 0
 432.351051246 74 544 156.385007952 544 282 c 0
 544 372 478 460 380 466 c 0
 377 466 374 467 371 467 c 0
 298 467 223 412 223 329 c 0
 223 272.922496884 268.987128628 210.267745611 336 218 c 0
 366.192771062 220.875502006 404 247.285079812 404 286 c 0
 404 305.531202539 396.085541301 325 376 325 c 0
 359 325 345 306 353 289 c 0
 354 287 354 287 354 286 c 0
 354 277 337 268 330 267 c 0
 296.838428805 264.236535734 273 299.122065601 273 329 c 0
 273 379 322 420 377 417 c 0
 444 413 494 350 494 282 c 0
 494 278 493 274 493 270 c 0
 485 186 407 124 323 124 c 0
 206.810950585 124 129 226.418886581 129 331 c 0
 129 340 130 350 131 359 c 0
 147 478 256 561 373 561 c 0
 419.760888408 561 451.052322291 550.7748853 486 534 c 0
 503 525 523 540 523 557 c 0
 523 567 517 575 509 579 c 0
 469.593183763 599.382835985 426.847365037 611 373 611 c 0
 233 611 101 511 81 365 c 0
 79 354 79 342 79 331 c 0
 79 208 167 91 297 76 c 0
 306 75 314 74 323 74 c 0
EndSplineSet
Validated: 41
Ligature2: "sitelen pona-1" n a s a 
EndChar
StartChar: nasin.sp
Encoding: 318 60990 92
Width: 478
Flags: W
HStem: 58 21G<232 246> 588 20G<232 246>
VStem: 214 50<58.1976 348 418 607.802>
LayerCount: 3
Fore
SplineSet
389 233 m 0
 382 233 376 235 371 240 c 2
 264 348 l 1
 264 83 l 2
 264 69 253 58 239 58 c 0
 225 58 214 69 214 83 c 2
 214 348 l 1
 107 240 l 2
 102 235 96 233 89 233 c 0
 75 233 64 244 64 258 c 0
 64 265 66 271 71 276 c 2
 214 418 l 1
 214 583 l 2
 214 597 225 608 239 608 c 0
 253 608 264 597 264 583 c 2
 264 418 l 1
 407 276 l 2
 412 271 414 265 414 258 c 0
 414 244 403 233 389 233 c 0
EndSplineSet
Validated: 1
Ligature2: "sitelen pona-1" n a s i n 
EndChar
StartChar: nena.sp
Encoding: 319 60991 93
Width: 628
Flags: W
HStem: 558 50<240.765 385.243>
VStem: 84 50<58.9342 83 182 391.799> 492 50<58.9342 83 182 391.803>
LayerCount: 3
Fore
SplineSet
492 182 m 0
 492 121 488 87 488 83 c 0
 488 69 499 58 513 58 c 0
 526 58 537 67 538 80 c 0
 538 81 542 123 542 182 c 0
 542 237 539 308 525 376 c 0
 502.163829038 488.104839268 444.431234318 608 313 608 c 0
 181.598497335 608 123.829867449 488.073894748 101 376 c 0
 87 308 84 237 84 182 c 0
 84 123 88 81 88 80 c 0
 89 67 100 58 113 58 c 0
 127 58 138 69 138 83 c 0
 138 87 134 121 134 182 c 0
 134 235 137 303 150 366 c 0
 168.369858305 457.849291526 210.007220555 558 313 558 c 0
 415.998123299 558 457.642135133 457.789324335 476 366 c 0
 489 303 492 235 492 182 c 0
EndSplineSet
Validated: 9
Ligature2: "sitelen pona-1" n e n a 
EndChar
StartChar: ni.sp
Encoding: 320 60992 94
Width: 476
Flags: W
HStem: 58 21G<234 240> 588 20G<230 244>
VStem: 212 50<143 607.802>
LayerCount: 3
Fore
SplineSet
412 233 m 0
 412 226 410 220 405 215 c 2
 255 65 l 2
 250 60 243 58 237 58 c 0
 231 58 224 60 219 65 c 2
 69 215 l 2
 64 220 62 226 62 233 c 0
 62 247 73 258 87 258 c 0
 94 258 100 256 105 251 c 2
 212 143 l 1
 212 583 l 2
 212 597 223 608 237 608 c 0
 251 608 262 597 262 583 c 2
 262 143 l 1
 369 251 l 2
 374 256 380 258 387 258 c 0
 401 258 412 247 412 233 c 0
EndSplineSet
Validated: 1
Ligature2: "sitelen pona-1" n i 
EndChar
StartChar: nimi.sp
Encoding: 321 60993 95
Width: 729
Flags: W
HStem: 208 250<88.201 113 613 637.799>
LayerCount: 3
Fore
SplineSet
138 258 m 1
 138 408 l 1
 588 408 l 1
 588 258 l 1
 138 258 l 1
113 458 m 2
 99.2021484375 458 88 446.797851562 88 433 c 2
 88 233 l 2
 88 219.202148438 99.2021484375 208 113 208 c 2
 613 208 l 2
 626.797851562 208 638 219.202148438 638 233 c 2
 638 433 l 2
 638 446.797851562 626.797851562 458 613 458 c 2
 113 458 l 2
EndSplineSet
Ligature2: "sitelen pona-1" n i m i 
EndChar
StartChar: noka.sp
Encoding: 322 60994 96
Width: 667
Flags: W
HStem: 58 50<337 532.646> 315 50<332.996 486.733>
VStem: 98 50<583 607.802> 295 50<583 607.802> 545 50<129.667 259.033>
LayerCount: 3
Fore
SplineSet
390 315 m 0
 481.806052769 315 545 277.546272707 545 180 c 0
 545 158 542 144 538 136 c 0
 533 127 526 121 505 116 c 0
 474 109 419 108 337 108 c 2
 148 108 l 1
 148 583 l 2
 148 597 137 608 123 608 c 0
 109 608 98 597 98 583 c 2
 98 83 l 2
 98 69 109 58 123 58 c 2
 337 58 l 2
 394 58 440 58 475 61 c 0
 529.755343434 66.8666439393 572.304674093 80.9140222801 587 125 c 0
 593 141 595 160 595 180 c 0
 595 306.483567613 507.354085039 365 390 365 c 0
 373 365 357 363 345 362 c 1
 345 583 l 2
 345 597 334 608 320 608 c 0
 306 608 295 597 295 583 c 2
 295 333 l 2
 295 319 306 308 320 308 c 0
 329 308 345 315 390 315 c 0
EndSplineSet
Validated: 9
Ligature2: "sitelen pona-1" n o k a 
EndChar
StartChar: o.sp
Encoding: 323 60995 97
Width: 445
Flags: W
HStem: 8 50<156.28 270.022> 233 50<156.28 270.022>
VStem: 76 50<88.9777 202.72> 189 50<316.384 665.616> 301 50<88.9777 202.72>
LayerCount: 3
Fore
SplineSet
326 146 m 1025
351 146 m 0
 351 70 289 8 213 8 c 0
 137 8 76 70 76 146 c 0
 76 222 137 283 213 283 c 4
 289 283 351 222 351 146 c 0
301 146 m 0
 301 194 261 233 213 233 c 0
 165 233 126 194 126 146 c 0
 126 98 165 58 213 58 c 0
 261 58 301 98 301 146 c 0
239 641 m 2
 239 341 l 2
 239 327 227 316 213 316 c 0
 199 316 189 327 189 341 c 2
 189 641 l 2
 189 655 199 666 213 666 c 0
 227 666 239 655 239 641 c 2
EndSplineSet
Validated: 1
LCarets2: 1 0
Ligature2: "sitelen pona-1" o 
EndChar
StartChar: olin.sp
Encoding: 324 60996 98
Width: 550
Flags: W
HStem: 285 50<138.745 221.663 329.122 412.255> 578 50<138.745 221.663 329.122 412.255>
VStem: 82 50<179.474 279.416 472.474 572.416> 419 50<182.237 279.416 475.237 572.416>
LayerCount: 3
Fore
SplineSet
174 578 m 0
 151 578 132 560 132 530 c 0
 132 494 163 435 275 388 c 1
 387 435 419 494 419 530 c 0
 419 560 400 578 377 578 c 0
 357 578 327 565 297 517 c 0
 293 510 284 505 275 505 c 0
 266 505 258 510 254 517 c 0
 224 565 194 578 174 578 c 0
174 285 m 0
 151 285 132 267 132 237 c 0
 132 201 163 142 275 95 c 1
 387 142 419 201 419 237 c 0
 419 267 400 285 377 285 c 0
 357 285 327 272 297 224 c 0
 293 217 284 212 275 212 c 0
 266 212 258 217 254 224 c 0
 224 272 194 285 174 285 c 0
469 237 m 0
 469 170 414 96 285 45 c 0
 279 43 272 43 266 45 c 0
 137 96 82 170 82 237 c 0
 82 291 121 335 174 335 c 0
 209 335 244 317 275 280 c 1
 306 317 342 335 377 335 c 0
 430 335 469 291 469 237 c 0
469 530 m 0
 469 463 414 389 285 338 c 0
 279 336 272 336 266 338 c 0
 137 389 82 463 82 530 c 0
 82 584 121 628 174 628 c 0
 209 628 244 610 275 573 c 1
 306 610 342 628 377 628 c 0
 430 628 469 584 469 530 c 0
EndSplineSet
Validated: 1
Ligature2: "sitelen pona-1" o l i n 
EndChar
StartChar: ona.sp
Encoding: 325 60997 99
Width: 757
Flags: W
HStem: 141.328 49.9961<324.637 598.086> 391.324 50<474.617 598.086>
VStem: 386.352 50<229.59 353.059> 636.352 50<229.59 353.059>
LayerCount: 3
Fore
SplineSet
536.3515625 416.32421875 m 1025
536.3515625 391.32421875 m 0
 591.595703125 391.32421875 636.3515625 346.568359375 636.3515625 291.32421875 c 0
 636.3515625 236.080078125 591.595703125 191.32421875 536.3515625 191.32421875 c 0
 481.107421875 191.32421875 436.3515625 236.080078125 436.3515625 291.32421875 c 0
 436.3515625 346.568359375 481.107421875 391.32421875 536.3515625 391.32421875 c 0
536.3515625 441.32421875 m 0
 453.525390625 441.32421875 386.3515625 374.150390625 386.3515625 291.32421875 c 0
 386.3515625 208.498046875 453.525390625 141.32421875 536.3515625 141.32421875 c 0
 619.177734375 141.32421875 686.3515625 208.498046875 686.3515625 291.32421875 c 0
 686.3515625 374.150390625 619.177734375 441.32421875 536.3515625 441.32421875 c 0
536.203125 141.328125 m 0
 550.103515625 141.328125 561.3515625 152.438476562 561.3515625 166.328125 c 0
 561.3515625 180.076171875 550.229492188 191.248046875 536.5 191.328125 c 0
 417.591796875 192.020507812 285.390625 209.36328125 110.227539062 262.24609375 c 0
 93.150390625 267.40234375 78 254.0859375 78 238.30859375 c 0
 78 227.0234375 85.494140625 217.474609375 95.7724609375 214.37109375 c 0
 274.6328125 160.37109375 412.376953125 142.049804688 536.203125 141.328125 c 0
EndSplineSet
LCarets2: 3 0 0 0
Ligature2: "sitelen pona-1" o n a 
EndChar
StartChar: open.sp
Encoding: 326 60998 100
Width: 748
Flags: HMW
HStem: 58 50 225 50
VStem: 98 50<583 607.802> 598 50<583 607.802>
LayerCount: 3
Fore
SplineSet
148 108 m 29
 148 225 l 25
 598 225 l 25
 598 108 l 25
 148 108 l 29
98 83 m 2
 98 69 109 58 123 58 c 2
 623 58 l 2
 637 58 648 69 648 83 c 2
 648 583 l 2
 648 597 637 608 623 608 c 0
 609 608 598 597 598 583 c 2
 598 275 l 1
 148 275 l 1
 148 583 l 2
 148 597 137 608 123 608 c 0
 109 608 98 597 98 583 c 2
 98 83 l 2
EndSplineSet
Ligature2: "sitelen pona-1" o p e n
EndChar
StartChar: pakala.sp
Encoding: 327 60999 101
Width: 748
Flags: W
LayerCount: 3
Fore
SplineSet
148 108 m 1
 148 558 l 1
 598 558 l 1
 598 108 l 1
 148 108 l 1
123 608 m 2
 109.202148438 608 98 596.797851562 98 583 c 2
 98 83 l 2
 98 69.2021484375 109.202148438 58 123 58 c 2
 623 58 l 2
 636.797851562 58 648 69.2021484375 648 83 c 2
 648 583 l 2
 648 596.797851562 636.797851562 608 623 608 c 2
 123 608 l 2
350.625 94.15625 m 2
 341.947265625 76.8017578125 355.4921875 58 373 58 c 0
 382.790039062 58 391.2734375 63.6396484375 395.375 71.84375 c 2
 520.375 321.84375 l 2
 529.052734375 339.198242188 515.5078125 358 498 358 c 2
 288.453125 358 l 1
 395.375 571.84375 l 2
 404.052734375 589.198242188 390.5078125 608 373 608 c 0
 363.209960938 608 354.7265625 602.360351562 350.625 594.15625 c 2
 225.625 344.15625 l 2
 216.947265625 326.801757812 230.4921875 308 248 308 c 2
 457.546875 308 l 1
 350.625 94.15625 l 2
EndSplineSet
Ligature2: "sitelen pona-1" p a k a l a 
EndChar
StartChar: pali.sp
Encoding: 328 61000 102
Width: 582
Flags: W
HStem: 308 50<281.158 395.934> 390 50<286.495 389.505> 590 50<286.495 389.505>
VStem: 213 50<463.495 566.505> 413 50<463.495 566.505> 463 50<58.1976 211.054>
LayerCount: 3
Fore
SplineSet
438 515 m 1025xf0
463 515 m 0xf8
 463 584 407 640 338 640 c 0
 269 640 213 584 213 515 c 0
 213 446 269 390 338 390 c 0
 407 390 463 446 463 515 c 0xf8
413 515 m 0
 413 474 379 440 338 440 c 0
 297 440 263 474 263 515 c 0
 263 556 297 590 338 590 c 0
 379 590 413 556 413 515 c 0
338 358 m 0
 226.679875555 358 185.514658857 249.087953143 170 156 c 1
 109 247 l 2
 105 254 97 258 88 258 c 0
 69 258 56 236 67 219 c 2
 167 69 l 2
 171 62 179 58 188 58 c 0
 202 58 213 69 213 83 c 1
 213 83 214 189 254 255 c 0
 273 287 299 308 338 308 c 0
 377 308 403 287 422 255 c 0
 462 189 463 83 463 83 c 1
 463 69 474 58 488 58 c 0
 502 58 513 69 513 83 c 0xf4
 513 84 513 120 505 165 c 0
 490.236316805 253.582099169 444.675141537 358 338 358 c 0
EndSplineSet
Validated: 41
Ligature2: "sitelen pona-1" p a l i 
EndChar
StartChar: palisa.sp
Encoding: 329 61001 103
Width: 421
Flags: W
VStem: 85 50<179.763 486.237> 285 50<179.763 486.237>
LayerCount: 3
Fore
SplineSet
335 333 m 0
 335 428 315 513 281 563 c 0
 264 588 241 608 210 608 c 0
 179 608 156 588 139 563 c 0
 105 513 85 428 85 333 c 0
 85 238 105 153 139 103 c 0
 156 78 179 58 210 58 c 0
 241 58 264 78 281 103 c 0
 315 153 335 238 335 333 c 0
285 333 m 0
 285 259 272 193 252 152 c 0
 242 130 230 116 221 111 c 0
 213 106 207 106 199 111 c 0
 190 116 178 130 168 152 c 0
 148 193 135 259 135 333 c 0
 135 407 148 473 168 514 c 0
 178 536 190 550 199 555 c 0
 207 560 213 560 221 555 c 0
 230 550 242 536 252 514 c 0
 272 473 285 407 285 333 c 0
EndSplineSet
Validated: 9
Ligature2: "sitelen pona-1" p a l i s a 
EndChar
StartChar: pan.sp
Encoding: 330 61002 104
Width: 513
Flags: W
HStem: 58 21G<254 260> 588 20G<100 110.5 403.5 414>
LayerCount: 3
Fore
SplineSet
107 258 m 0
 114 258 120 256 125 251 c 2
 257 118 l 1
 389 251 l 2
 394 256 400 258 407 258 c 0
 421 258 432 247 432 233 c 0
 432 226 430 220 425 215 c 2
 275 65 l 2
 270 60 263 58 257 58 c 0
 251 58 244 60 239 65 c 2
 89 215 l 2
 84 220 82 226 82 233 c 0
 82 247 93 258 107 258 c 0
107 608 m 0
 114 608 120 606 125 601 c 2
 257 468 l 1
 389 601 l 2
 394 606 400 608 407 608 c 0
 421 608 432 597 432 583 c 0
 432 576 430 570 425 565 c 2
 275 415 l 2
 270 410 263 408 257 408 c 0
 251 408 244 410 239 415 c 2
 89 565 l 2
 84 570 82 576 82 583 c 0
 82 597 93 608 107 608 c 0
107 433 m 0
 114 433 120 431 125 426 c 2
 257 293 l 1
 389 426 l 2
 394 431 400 433 407 433 c 0
 421 433 432 422 432 408 c 0
 432 401 430 395 425 390 c 2
 275 240 l 2
 270 235 263 232 257 232 c 0
 251 232 244 235 239 240 c 2
 89 390 l 2
 84 395 82 401 82 408 c 0
 82 422 93 433 107 433 c 0
EndSplineSet
Validated: 1
Ligature2: "sitelen pona-1" p a n 
EndChar
StartChar: pana.sp
Encoding: 331 61003 105
Width: 654
Flags: HW
HStem: 308 50<283.321 400.703>
VStem: 317.012 50<408.197 432.996 582.996 607.795> 467.012 50<58.201 83>
LayerCount: 3
Fore
SplineSet
189.302734375 408.0546875 m 0
 207.53515625 408.0546875 220.897460938 428.331054688 210.96875 445.528320312 c 2
 135.96875 575.430664062 l 2
 131.647460938 582.915039062 123.559570312 587.95703125 114.302734375 587.95703125 c 0
 96.0703125 587.95703125 82.7080078125 567.680664062 92.63671875 550.483398438 c 2
 167.63671875 420.581054688 l 2
 171.958007812 413.096679688 180.045898438 408.0546875 189.302734375 408.0546875 c 0
473.05859375 445.528320312 m 2
 463.140625 428.350585938 476.483398438 408.0546875 494.724609375 408.0546875 c 0
 503.981445312 408.0546875 512.069335938 413.096679688 516.390625 420.581054688 c 2
 591.390625 550.483398438 l 2
 601.30859375 567.661132812 587.965820312 587.95703125 569.724609375 587.95703125 c 0
 560.467773438 587.95703125 552.379882812 582.915039062 548.05859375 575.430664062 c 2
 473.05859375 445.528320312 l 2
317.012695312 432.99609375 m 2
 317.012695312 419.198242188 328.21484375 407.99609375 342.012695312 407.99609375 c 0
 355.810546875 407.99609375 367.012695312 419.198242188 367.012695312 432.99609375 c 2
 367.012695312 582.99609375 l 2
 367.012695312 596.793945312 355.810546875 607.99609375 342.012695312 607.99609375 c 0
 328.21484375 607.99609375 317.012695312 596.793945312 317.012695312 582.99609375 c 2
 317.012695312 432.99609375 l 2
92.0126953125 258 m 0
 72.9638671875 258 59.896484375 236.108398438 71.1962890625 219.158203125 c 2
 171.196289062 69.158203125 l 2
 175.6796875 62.43359375 183.33203125 58 192.012695312 58 c 0
 205.810546875 58 217.012695312 69.2021484375 217.012695312 82.9990234375 c 1
 217.012695312 82.9990234375 218.034179688 188.885742188 257.912109375 255.349609375 c 0
 277.306640625 287.672851562 302.673828125 308 342.012695312 308 c 0
 381.353515625 308 406.720703125 287.672851562 426.115234375 255.349609375 c 0
 465.993164062 188.885742188 467.012695312 83 467.012695312 83 c 1
 467.012695312 69.2021484375 478.21484375 58 492.012695312 58 c 0
 505.810546875 58 517.012695312 69.2021484375 517.012695312 83 c 0
 517.028320312 83.9541015625 517.028320312 119.415039062 509.010742188 164.844726562 c 0
 502.611328125 201.11328125 491.248046875 243.977539062 469.021484375 281.020507812 c 0
 443.970703125 322.771484375 402.671875 358 342.012695312 358 c 0
 281.354492188 358 240.056640625 322.771484375 215.005859375 281.020507812 c 0
 190.866210938 240.788085938 180.0859375 197.333984375 173.505859375 155.827148438 c 1
 112.829101562 246.841796875 l 2
 108.345703125 253.56640625 100.693359375 258 92.0126953125 258 c 0
EndSplineSet
Ligature2: "sitelen pona-1" p a n a 
EndChar
StartChar: pi.sp
Encoding: 332 61004 106
Width: 639
Flags: W
HStem: 58 50<521 545.799>
VStem: 96 50<583 607.799>
LayerCount: 3
Fore
SplineSet
146 108 m 1
 146 583 l 2
 146 596.797851562 134.797851562 608 121 608 c 0
 107.202148438 608 96 596.797851562 96 583 c 2
 96 83 l 2
 96 69.2021484375 107.202148438 58 121 58 c 2
 521 58 l 2
 534.797851562 58 546 69.2021484375 546 83 c 0
 546 96.7978515625 534.797851562 108 521 108 c 2
 146 108 l 1
EndSplineSet
Ligature2: "sitelen pona-1" p i 
EndChar
StartChar: pilin.sp
Encoding: 333 61005 107
Width: 750
Flags: W
HStem: 558 50<162.779 266.013 483.784 586.987>
VStem: 76 50<334.93 518.873> 623 50<332.342 518.873>
LayerCount: 3
Fore
SplineSet
363 61 m 0
 370 58 379 58 386 61 c 0
 595 165 673 315 673 433 c 0
 673 526 622 608 540 608 c 0
 483 608 425 568 375 485 c 1
 325 568 267 608 210 608 c 0
 128 608 76 526 76 433 c 0
 76 315 154 165 363 61 c 0
210 558 m 0
 246 558 300 526 352 422 c 0
 356 414 365 408 375 408 c 0
 385 408 393 414 397 422 c 0
 449 526 504 558 540 558 c 0
 582 558 623 513 623 433 c 0
 623 339 562 208 375 111 c 1
 188 208 126 339 126 433 c 0
 126 513 168 558 210 558 c 0
EndSplineSet
Validated: 9
Ligature2: "sitelen pona-1" p i l i n 
EndChar
StartChar: pimeja.sp
Encoding: 334 61006 108
Width: 666
Flags: W
HStem: 58 50<123 217 273 392 448 542> 588 20G<327 337>
LayerCount: 3
Fore
SplineSet
392 108 m 1
 332 227 l 1
 273 108 l 1
 392 108 l 1
257 377 m 1
 123 108 l 1
 217 108 l 1
 304 283 l 1
 257 377 l 1
332 608 m 0
 342 608 350 602 354 594 c 2
 604 94 l 2
 606 90 607 87 607 83 c 0
 607 70 596 58 582 58 c 2
 82 58 l 2
 69 58 57 70 57 83 c 0
 57 87 58 90 60 94 c 2
 310 594 l 2
 314 602 322 608 332 608 c 0
542 108 m 1
 407 377 l 1
 360 283 l 1
 448 108 l 1
 542 108 l 1
332 527 m 1
 285 433 l 1
 332 339 l 1
 379 433 l 1
 332 527 l 1
EndSplineSet
Validated: 1
Ligature2: "sitelen pona-1" p i m e j a 
EndChar
StartChar: pini.sp
Encoding: 335 61007 109
Width: 579
Flags: W
HStem: 58 50<64.1976 264 314 513.802> 558 50<64.1976 264 314 513.802>
VStem: 264 50<108 558>
LayerCount: 3
Fore
SplineSet
264 558 m 1
 89 558 l 2
 75 558 64 569 64 583 c 0
 64 597 75 608 89 608 c 2
 489 608 l 2
 503 608 514 597 514 583 c 0
 514 569 503 558 489 558 c 2
 314 558 l 1
 314 108 l 1
 489 108 l 2
 503 108 514 97 514 83 c 0
 514 69 503 58 489 58 c 2
 89 58 l 2
 75 58 64 69 64 83 c 0
 64 97 75 108 89 108 c 2
 264 108 l 1
 264 558 l 1
EndSplineSet
Validated: 1
Ligature2: "sitelen pona-1" p i n i 
EndChar
StartChar: pipi.sp
Encoding: 336 61008 110
Width: 510
Flags: W
HStem: 58 21G<248 262> 162 50<80.1976 230 280 429.802> 290 50<80.3843 230 280 429.616> 419 50<80.1976 230 280 429.802> 566 100<113.438 196.562 313.438 396.562>
VStem: 105 100<574.438 657.562> 230 50<58.1976 162 212 290 340 419 469 572.802> 305 100<574.438 657.562>
CounterMasks: 1 07
LayerCount: 3
Fore
SplineSet
405 616 m 1024
205 616 m 0
 205 588 183 566 155 566 c 0
 127 566 105 588 105 616 c 0
 105 644 127 666 155 666 c 0
 183 666 205 644 205 616 c 0
405 616 m 0
 405 588 383 566 355 566 c 0
 327 566 305 588 305 616 c 0
 305 644 327 666 355 666 c 0
 383 666 405 644 405 616 c 0
280 548 m 2
 280 469 l 1
 405 469 l 2
 419 469 430 458 430 444 c 0
 430 430 419 419 405 419 c 2
 280 419 l 1
 280 340 l 1
 405 340 l 2
 419 340 430 330 430 316 c 0
 430 302 419 290 405 290 c 2
 280 290 l 1
 280 212 l 1
 405 212 l 2
 419 212 430 201 430 187 c 0
 430 173 419 162 405 162 c 2
 280 162 l 1
 280 83 l 2
 280 69 269 58 255 58 c 0
 241 58 230 69 230 83 c 2
 230 162 l 1
 105 162 l 2
 91 162 80 173 80 187 c 0
 80 201 91 212 105 212 c 2
 230 212 l 1
 230 290 l 1
 105 290 l 2
 91 290 80 302 80 316 c 0
 80 330 91 340 105 340 c 2
 230 340 l 1
 230 419 l 1
 105 419 l 2
 91 419 80 430 80 444 c 0
 80 458 91 469 105 469 c 2
 230 469 l 1
 230 548 l 2
 230 562 241 573 255 573 c 0
 269 573 280 562 280 548 c 2
EndSplineSet
Validated: 1
LCarets2: 4 0 0 0 0
Ligature2: "sitelen pona-1" p i p i 
EndChar
StartChar: poka.sp
Encoding: 337 61009 111
Width: 778
Flags: W
HStem: 285 96<613.971 698.029>
VStem: 90 50<459 483.802> 490 50<459 483.802> 608 96<290.971 375.029>
LayerCount: 3
Fore
SplineSet
704 346 m 1024
704 346 m 0
 711 319 696 292 669 285 c 0
 642 278 615 293 608 320 c 0
 601 347 616 374 643 381 c 0
 670 388 697 373 704 346 c 0
490 234 m 1
 140 234 l 1
 140 459 l 2
 140 473 129 484 115 484 c 0
 101 484 90 473 90 459 c 2
 90 209 l 2
 90 195 101 184 115 184 c 2
 515 184 l 2
 529 184 540 195 540 209 c 2
 540 459 l 2
 540 473 529 484 515 484 c 0
 501 484 490 473 490 459 c 2
 490 234 l 1
EndSplineSet
Validated: 41
Ligature2: "sitelen pona-1" p o k a 
EndChar
StartChar: poki.sp
Encoding: 338 61010 112
Width: 648
Flags: W
VStem: 98 50<583 607.802> 498 50<583 607.802>
LayerCount: 3
Fore
SplineSet
498 108 m 1
 148 108 l 1
 148 583 l 2
 148 597 137 608 123 608 c 0
 109 608 98 597 98 583 c 2
 98 83 l 2
 98 69 109 58 123 58 c 2
 523 58 l 2
 537 58 548 69 548 83 c 2
 548 583 l 2
 548 597 537 608 523 608 c 0
 509 608 498 597 498 583 c 2
 498 108 l 1
EndSplineSet
Validated: 9
Ligature2: "sitelen pona-1" p o k i 
EndChar
StartChar: pona.sp
Encoding: 339 61011 113
Width: 698
Flags: W
HStem: 172.375 50<246.263 449.757>
LayerCount: 3
Fore
SplineSet
622.848632812 409.51953125 m 0
 624.616210938 425.045898438 612.452148438 437.375 598.009765625 437.375 c 0
 585.177734375 437.375 574.58984375 427.685546875 573.170898438 415.23046875 c 1
 573.170898438 415.23046875 551.75 222.375 348.009765625 222.375 c 0
 144.26953125 222.375 122.848632812 415.23046875 122.848632812 415.23046875 c 1
 121.4296875 427.685546875 110.841796875 437.375 98.009765625 437.375 c 0
 83.5654296875 437.375 71.4033203125 425.041015625 73.1708984375 409.51953125 c 0
 73.1982421875 409.282226562 100.70703125 172.375 348.009765625 172.375 c 0
 595.3125 172.375 622.821289062 409.282226562 622.848632812 409.51953125 c 0
EndSplineSet
Ligature2: "sitelen pona-1" p o n a 
EndChar
StartChar: pu.sp
Encoding: 340 61012 114
Width: 648
Flags: W
HStem: 133 50<261.28 384.72> 208 50<298.653 347.347> 383 50<261.28 384.72> 440 93<216.531 244.84 401.16 429.469> 446 100<298.384 347.616>
VStem: 173 50<221.28 344.72> 248 50<259.108 307.802> 298 50<446.18 470 520 545.785> 348 50<259.108 307.802> 423 50<221.28 344.72>
LayerCount: 3
Fore
SplineSet
298 283 m 0xe6c0
 298 297 287 308 273 308 c 0
 259 308 248 297 248 283 c 0
 248 242 282 208 323 208 c 0
 364 208 398 242 398 283 c 0
 398 297 387 308 373 308 c 0
 359 308 348 297 348 283 c 0
 348 269 337 258 323 258 c 0
 309 258 298 269 298 283 c 0xe6c0
348 520 m 2xed40
 348 534 337 546 323 546 c 0
 309 546 298 534 298 520 c 2
 298 470 l 2
 298 456 309 446 323 446 c 0
 337 446 348 456 348 470 c 2
 348 520 l 2xed40
449 496 m 2
 459 513 445 533 427 533 c 0
 418 533 410 527 406 520 c 2
 381 477 l 2
 371 460 384 440 402 440 c 0xf440
 411 440 420 445 424 452 c 2
 449 496 l 2
219 533 m 0
 201 533 187 513 197 496 c 2
 222 452 l 2
 226 445 235 440 244 440 c 0
 262 440 275 460 265 477 c 2
 240 520 l 2
 236 527 228 533 219 533 c 0
473 283 m 0
 473 366 406 433 323 433 c 0
 240 433 173 366 173 283 c 0
 173 200 240 133 323 133 c 0
 406 133 473 200 473 283 c 0
423 283 m 0
 423 228 378 183 323 183 c 0
 268 183 223 228 223 283 c 0
 223 338 268 383 323 383 c 0
 378 383 423 338 423 283 c 0
123 608 m 2
 109 608 98 597 98 583 c 2
 98 83 l 2
 98 69 109 58 123 58 c 2
 523 58 l 2
 537 58 548 69 548 83 c 2
 548 583 l 2
 548 597 537 608 523 608 c 2
 123 608 l 2
148 108 m 1
 148 558 l 1
 498 558 l 1
 498 108 l 1
 148 108 l 1
EndSplineSet
Validated: 41
Ligature2: "sitelen pona-1" p u 
EndChar
StartChar: sama.sp
Encoding: 341 61013 115
Width: 618
Flags: W
HStem: 208 50<84.1976 109 509 533.802> 408 50<84.1976 109 509 533.802>
LayerCount: 3
Fore
SplineSet
109 458 m 2
 95 458 84 447 84 433 c 0
 84 419 95 408 109 408 c 2
 509 408 l 2
 523 408 534 419 534 433 c 0
 534 447 523 458 509 458 c 2
 109 458 l 2
109 258 m 2
 95 258 84 247 84 233 c 0
 84 219 95 208 109 208 c 2
 509 208 l 2
 523 208 534 219 534 233 c 0
 534 247 523 258 509 258 c 2
 109 258 l 2
EndSplineSet
Validated: 9
Ligature2: "sitelen pona-1" s a m a 
EndChar
StartChar: seli.sp
Encoding: 342 61014 116
Width: 677
Flags: W
HStem: 33 100<297.438 380.562>
VStem: 289 100<41.4375 124.562> 314 50<234.198 259 609 633.802>
LayerCount: 3
Fore
SplineSet
389 83 m 1024xc0
314 259 m 2xa0
 314 245 325 234 339 234 c 0
 353 234 364 245 364 259 c 2
 364 609 l 2
 364 623 353 634 339 634 c 0
 325 634 314 623 314 609 c 2
 314 259 l 2xa0
189 172 m 0
 205 172 218 188 213 205 c 2
 113 520 l 2
 110 530 100 537 89 537 c 0
 73 537 60 522 65 505 c 2
 165 190 l 2
 168 180 178 172 189 172 c 0
465 205 m 2
 460 188 473 172 489 172 c 0
 500 172 510 180 513 190 c 2
 613 505 l 2
 618 522 605 537 589 537 c 0
 578 537 568 530 565 520 c 2
 465 205 l 2
389 83 m 0xc0
 389 55 367 33 339 33 c 0
 311 33 289 55 289 83 c 0
 289 111 311 133 339 133 c 0
 367 133 389 111 389 83 c 0xc0
EndSplineSet
Validated: 41
Ligature2: "sitelen pona-1" s e l i 
EndChar
StartChar: selo.sp
Encoding: 343 61015 117
Width: 735
Flags: W
VStem: 92 50<146.198 171> 217 50<146.198 171> 467 50<146.198 171> 592 50<146.198 171>
LayerCount: 3
Fore
SplineSet
92 171 m 2
 92 157 103 146 117 146 c 0
 131 146 142 157 142 171 c 2
 142 461 l 1
 217 461 l 1
 217 171 l 2
 217 157 228 146 242 146 c 0
 256 146 267 157 267 171 c 2
 267 461 l 1
 467 461 l 1
 467 171 l 2
 467 157 478 146 492 146 c 0
 506 146 517 157 517 171 c 2
 517 461 l 1
 592 461 l 1
 592 171 l 2
 592 157 603 146 617 146 c 0
 631 146 642 157 642 171 c 2
 642 486 l 2
 642 500 631 511 617 511 c 2
 117 511 l 2
 103 511 92 500 92 486 c 2
 92 171 l 2
EndSplineSet
Validated: 9
Ligature2: "sitelen pona-1" s e l o 
EndChar
StartChar: seme.sp
Encoding: 344 61016 118
Width: 537
Flags: W
HStem: 59.457 100<226.682 308.233> 523 50<154.728 382.415>
VStem: 66 50<408.201 485.403> 217.457 100<68.682 150.232> 242.465 50<218.724 243.523 268.785 305.452> 416 50<396.301 493.694>
LayerCount: 3
Fore
SplineSet
66 433.001953125 m 0xec
 66 419.204101562 77.2021484375 408 91 408 c 0
 104.796875 408 115.999023438 419.201171875 116 432.998046875 c 0
 116.000976562 442.900390625 120.78515625 458.749023438 126.350585938 469.416015625 c 0
 143.874023438 502.998046875 181.45703125 523 241.00390625 523 c 0
 313.501953125 523 357.62109375 514.239257812 381.587890625 501.796875 c 0
 397.950195312 493.301757812 405.3828125 484.090820312 410.165039062 471.975585938 c 0
 414.0859375 462.040039062 416 449.12109375 416 433 c 0
 416 402.529296875 392.389648438 391.678710938 345.55859375 374.352539062 c 0
 305.61328125 359.575195312 242.440429688 338.318359375 242.45703125 268.78515625 c 2
 242.46484375 243.515625 l 2
 242.46875 229.721679688 253.669921875 218.5234375 267.46484375 218.5234375 c 0
 281.262695312 218.5234375 292.46484375 229.725585938 292.46484375 243.5234375 c 2
 292.45703125 268.80078125 l 2
 292.450195312 299.270507812 316.052734375 310.115234375 362.88671875 327.442382812 c 0
 402.831054688 342.219726562 466 363.47265625 466 433 c 0
 466 489.626953125 445.546875 524.931640625 404.576171875 546.203125 c 0
 368.223632812 565.075195312 316.849609375 573 241.00390625 573 c 0
 200.776367188 573 168.874023438 565.352539062 143.866210938 552.780273438 c 0
 112.4921875 537.0078125 93.1171875 513.81640625 81.9921875 492.49609375 c 0
 66.0146484375 461.875 66 435.3203125 66 433.001953125 c 0xec
317.45703125 109.45703125 m 0xf4
 317.45703125 81.84375 295.07421875 59.45703125 267.45703125 59.45703125 c 0
 239.84375 59.45703125 217.45703125 81.84375 217.45703125 109.45703125 c 0
 217.45703125 137.0703125 239.84375 159.45703125 267.45703125 159.45703125 c 0
 295.07421875 159.45703125 317.45703125 137.0703125 317.45703125 109.45703125 c 0xf4
317.45703125 109.45703125 m 1024
EndSplineSet
Ligature2: "sitelen pona-1" s e m e
EndChar
StartChar: sewi.sp
Encoding: 345 61017 119
Width: 707
Flags: HW
HStem: 61.1348 49.958<191.253 237.796 377.773 402.839>
VStem: 439.107 50<151.45 366.584 416.953 441.665> 558.038 50<58.201 83 548 572.799>
LayerCount: 3
Fore
SplineSet
558.037109375 83 m 2
 558.037109375 69.2021484375 569.239257812 58 583.037109375 58 c 0
 596.834960938 58 608.037109375 69.2021484375 608.037109375 83 c 2
 608.037109375 548 l 2
 608.037109375 561.797851562 596.834960938 573 583.037109375 573 c 0
 569.239257812 573 558.037109375 561.797851562 558.037109375 548 c 2
 558.037109375 83 l 2
438.392578125 416.953125 m 0
 438.392578125 415.499023438 439.106445312 397.834960938 439.106445312 366.583984375 c 0
 439.106445312 302.177734375 435.443359375 189.010742188 415.400390625 133.2734375 c 0
 410.725585938 120.272460938 405.318359375 112.536132812 402.967773438 110.502929688 c 1
 402.837890625 109.98828125 l 1
 398.580078125 109.98828125 392.802734375 112.048828125 384.821289062 121.6328125 c 0
 375.015625 133.408203125 365.046875 154.358398438 357.3125 177.635742188 c 0
 339.677734375 230.708007812 333.01171875 291.020507812 333.01171875 291.020507812 c 1
 331.638671875 303.524414062 321.029296875 313.265625 308.162109375 313.265625 c 0
 295.46875 313.265625 284.971679688 303.78515625 283.373046875 291.524414062 c 1
 283.373046875 291.524414062 275.57421875 231.986328125 258.001953125 179.176757812 c 0
 250.29296875 156.01171875 240.5625 134.888671875 231.161132812 122.811523438 c 0
 223 112.328125 218.321289062 111.092773438 214.875 111.092773438 c 0
 203.76953125 111.092773438 195.463867188 118.0078125 188.046875 138.177734375 c 0
 178.8984375 163.053710938 178.263671875 194.547851562 178.263671875 201.38671875 c 0
 178.263671875 215.184570312 167.061523438 226.38671875 153.263671875 226.38671875 c 0
 144.112304688 226.38671875 136.102539062 221.458984375 131.74609375 214.114257812 c 2
 61.51953125 95.7275390625 l 2
 51.3525390625 78.5888671875 64.6494140625 58 83.037109375 58 c 0
 92.1884765625 58 100.198242188 62.927734375 104.5546875 70.2724609375 c 2
 138.690429688 127.817382812 l 1
 141.633789062 118.533203125 145.515625 109.165039062 150.763671875 100.247070312 c 0
 162.921875 79.583984375 184.952148438 60.0849609375 217.430664062 61.134765625 c 0
 241.057617188 61.8974609375 258.504882812 76.552734375 270.635742188 92.1357421875 c 0
 287.3359375 113.587890625 298.416992188 141.135742188 307.41796875 169.424804688 c 1
 316.603515625 140.040039062 328.08984375 111.635742188 346.385742188 89.666015625 c 0
 359.607421875 73.7900390625 378.510742188 59.98828125 402.837890625 59.98828125 c 0
 420.259765625 59.98828125 434.190429688 69.560546875 443.3046875 80.52734375 c 0
 451.45703125 90.337890625 457.057617188 101.793945312 461.741210938 114.38671875 c 0
 485.216796875 177.501953125 489.106445312 297.849609375 489.106445312 366.583984375 c 0
 489.106445312 397.26953125 488.384765625 417.627929688 488.376953125 417.85546875 c 0
 487.901367188 431.236328125 476.888671875 441.953125 463.392578125 441.953125 c 0
 449.594726562 441.953125 438.392578125 430.750976562 438.392578125 416.953125 c 0
EndSplineSet
Ligature2: "sitelen pona-1" s e w i 
EndChar
StartChar: sijelo.sp
Encoding: 346 61018 120
Width: 749
Flags: HW
VStem: 99 50<58.201 83> 349 50<58.201 83> 599 50<58.201 83>
CounterMasks: 1 e0
LayerCount: 3
Fore
SplineSet
99 83 m 2
 99 69.2021484375 110.202148438 58 124 58 c 0
 137.797851562 58 149 69.2021484375 149 83 c 2
 149 558 l 1
 349 558 l 1
 349 83 l 2
 349 69.2021484375 360.202148438 58 374 58 c 0
 387.797851562 58 399 69.2021484375 399 83 c 2
 399 558 l 1
 599 558 l 1
 599 83 l 2
 599 69.2021484375 610.202148438 58 624 58 c 0
 637.797851562 58 649 69.2021484375 649 83 c 2
 649 583 l 2
 649 596.797851562 637.797851562 608 624 608 c 0
 457.333007812 608 290.666992188 608 124 608 c 0
 110.202148438 608 99 596.797851562 99 583 c 2
 99 83 l 2
EndSplineSet
Ligature2: "sitelen pona-1" s i j e l o 
EndChar
StartChar: sike.sp
Encoding: 347 61019 121
Width: 709
Flags: W
HStem: 58 50<260.457 447.543> 170 50<289.91 418.09> 446 50<289.91 418.09> 558 50<260.457 447.543>
VStem: 79 50<239.457 426.543> 192 50<266.846 399.154> 466 50<266.846 399.154> 579 50<239.457 426.543>
LayerCount: 3
Fore
SplineSet
516 333 m 0
 516 243 444 170 354 170 c 0
 264 170 192 243 192 333 c 0
 192 423 264 496 354 496 c 0
 444 496 516 423 516 333 c 0
466 333 m 0
 466 395 416 446 354 446 c 0
 292 446 242 395 242 333 c 0
 242 271 292 220 354 220 c 0
 416 220 466 271 466 333 c 0
629 333 m 0
 629 181 506 58 354 58 c 0
 202 58 79 181 79 333 c 0
 79 485 202 608 354 608 c 0
 506 608 629 485 629 333 c 0
579 333 m 0
 579 457 478 558 354 558 c 0
 230 558 129 457 129 333 c 0
 129 209 230 108 354 108 c 0
 478 108 579 209 579 333 c 0
EndSplineSet
Validated: 1
Ligature2: "sitelen pona-1" s i k e 
EndChar
StartChar: sin.sp
Encoding: 348 61020 122
Width: 687
Flags: W
HStem: 255 50<69.1976 268.802 419.198 618.802>
VStem: 319 50<355.198 554.802>
LayerCount: 3
Fore
SplineSet
94 305 m 2
 244 305 l 2
 258 305 269 294 269 280 c 0
 269 266 258 255 244 255 c 2
 94 255 l 2
 80 255 69 266 69 280 c 0
 69 294 80 305 94 305 c 2
369 530 m 2
 369 380 l 2
 369 366 358 355 344 355 c 0
 330 355 319 366 319 380 c 2
 319 530 l 2
 319 544 330 555 344 555 c 0
 358 555 369 544 369 530 c 2
594 255 m 2
 444 255 l 2
 430 255 419 266 419 280 c 0
 419 294 430 305 444 305 c 2
 594 305 l 2
 608 305 619 294 619 280 c 0
 619 266 608 255 594 255 c 2
EndSplineSet
Validated: 1
Ligature2: "sitelen pona-1" s i n 
EndChar
StartChar: sina.sp
Encoding: 349 61021 123
Width: 451
Flags: W
HStem: 28 50<170.28 293.72> 278 50<170.017 293.72>
VStem: 82 50<116.28 315.311> 332 50<116.28 239.72>
LayerCount: 3
Fore
SplineSet
357 178 m 1025
82 178 m 0
 83 302 101 439 155 618 c 0
 158 628 168 636 179 636 c 0
 193 636 204 625 204 611 c 0
 204 609 204 607 203 604 c 0
 151 429 138 295 138 295 c 1
 164 316 196 328 232 328 c 0
 315 328 382 261 382 178 c 0
 382 95 315 28 232 28 c 0
 149 28 82 95 82 178 c 0
332 178 m 0
 332 233 287 278 232 278 c 0
 177 278 132 233 132 178 c 0
 132 123 177 78 232 78 c 0
 287 78 332 123 332 178 c 0
EndSplineSet
Validated: 1
LCarets2: 4 0 0 0 0
Ligature2: "sitelen pona-1" s i n a 
EndChar
StartChar: sinpin.sp
Encoding: 350 61022 124
Width: 605
Flags: W
HStem: 58 50<64.1976 264> 283 100<443.438 526.562> 558 50<64.1976 264>
VStem: 264 50<108 558> 435 100<291.438 374.562>
CounterMasks: 1 e0
LayerCount: 3
Fore
SplineSet
435 333 m 1024
89 608 m 2
 289 608 l 2
 303 608 314 597 314 583 c 2
 314 83 l 2
 314 69 303 58 289 58 c 2
 89 58 l 2
 75 58 64 69 64 83 c 0
 64 97 75 108 89 108 c 2
 264 108 l 1
 264 558 l 1
 89 558 l 2
 75 558 64 569 64 583 c 0
 64 597 75 608 89 608 c 2
435 333 m 0
 435 361 457 383 485 383 c 0
 513 383 535 361 535 333 c 0
 535 305 513 283 485 283 c 0
 457 283 435 305 435 333 c 0
EndSplineSet
Validated: 1
Ligature2: "sitelen pona-1" s i n p i n 
EndChar
StartChar: sitelen.sp
Encoding: 351 61023 125
Width: 649
Flags: HW
HStem: 283 100<170.725 252.275 283.225 364.775 395.725 477.275>
VStem: 161.5 100<292.225 373.775> 274 100<292.225 373.775> 386.5 100<292.225 373.775>
CounterMasks: 1 70
LayerCount: 3
Fore
SplineSet
149 107.99609375 m 1
 149 557.99609375 l 1
 499 557.99609375 l 1
 499 107.99609375 l 1
 149 107.99609375 l 1
124 607.99609375 m 2
 110.202148438 607.99609375 99 596.793945312 99 582.99609375 c 2
 99 82.99609375 l 2
 99 69.1982421875 110.202148438 57.99609375 124 57.99609375 c 2
 524 57.99609375 l 2
 537.797851562 57.99609375 549 69.1982421875 549 82.99609375 c 2
 549 582.99609375 l 2
 549 596.793945312 537.797851562 607.99609375 524 607.99609375 c 2
 124 607.99609375 l 2
374 333 m 0
 374 305.38671875 351.61328125 283 324 283 c 0
 296.38671875 283 274 305.38671875 274 333 c 0
 274 360.61328125 296.38671875 383 324 383 c 0
 351.61328125 383 374 360.61328125 374 333 c 0
261.5 333 m 0
 261.5 305.38671875 239.11328125 283 211.5 283 c 0
 183.88671875 283 161.5 305.38671875 161.5 333 c 0
 161.5 360.61328125 183.88671875 383 211.5 383 c 0
 239.11328125 383 261.5 360.61328125 261.5 333 c 0
486.5 333 m 0
 486.5 305.38671875 464.11328125 283 436.5 283 c 0
 408.88671875 283 386.5 305.38671875 386.5 333 c 0
 386.5 360.61328125 408.88671875 383 436.5 383 c 0
 464.11328125 383 486.5 360.61328125 486.5 333 c 0
486.5 333 m 1024
EndSplineSet
Ligature2: "sitelen pona-1" s i t e l e n 
EndChar
StartChar: sona.sp
Encoding: 352 61024 126
Width: 626
Flags: W
VStem: 289 50<408.198 433 583 607.802>
LayerCount: 3
Fore
SplineSet
164 358 m 2
 150 358 139 347 139 333 c 2
 139 83 l 2
 139 69 150 58 164 58 c 2
 464 58 l 2
 478 58 489 69 489 83 c 2
 489 333 l 2
 489 347 478 358 464 358 c 2
 164 358 l 2
289 433 m 2
 289 419 300 408 314 408 c 0
 328 408 339 419 339 433 c 2
 339 583 l 2
 339 597 328 608 314 608 c 0
 300 608 289 597 289 583 c 2
 289 433 l 2
445 446 m 2
 435 429 448 408 466 408 c 0
 475 408 484 414 488 421 c 2
 563 550 l 2
 573 567 559 588 541 588 c 0
 532 588 524 582 520 575 c 2
 445 446 l 2
161 408 m 0
 179 408 193 429 183 446 c 2
 108 575 l 2
 104 582 95 588 86 588 c 0
 68 588 54 567 64 550 c 2
 139 421 l 2
 143 414 152 408 161 408 c 0
189 108 m 1
 189 308 l 1
 439 308 l 1
 439 108 l 1
 189 108 l 1
EndSplineSet
Validated: 41
Ligature2: "sitelen pona-1" s o n a 
EndChar
StartChar: soweli.sp
Encoding: 353 61025 127
Width: 786
Flags: W
HStem: 58 200<75.201 124.799 172.283 221.881 269.365 318.963 366.451 416.049> 205.392 50<446.157 583.248> 333 100<357.767 439.318 509.225 590.775> 523 50<125.201 150 549.678 610.946>
VStem: 75 50<58.201 83 233 257.799> 172.082 50<58.201 83 233 257.799> 269.164 50<58.201 83 233 257.799> 348.543 100<342.225 423.775> 366.25 50<58.201 83> 500 100<342.225 423.775> 658.336 50<316.634 472.423>
LayerCount: 3
Fore
SplineSet
269.1640625 83 m 2xbe60
 269.1640625 69.2021484375 280.366210938 58 294.1640625 58 c 0
 307.961914062 58 319.1640625 69.2021484375 319.1640625 83 c 2
 319.1640625 233 l 2
 319.1640625 246.797851562 307.961914062 258 294.1640625 258 c 0
 280.366210938 258 269.1640625 246.797851562 269.1640625 233 c 2
 269.1640625 83 l 2xbe60
172.08203125 83 m 2
 172.08203125 69.2021484375 183.284179688 58 197.08203125 58 c 0
 210.879882812 58 222.08203125 69.2021484375 222.08203125 83 c 2
 222.08203125 233 l 2
 222.08203125 246.797851562 210.879882812 258 197.08203125 258 c 0
 183.284179688 258 172.08203125 246.797851562 172.08203125 233 c 2
 172.08203125 83 l 2
75 83 m 2
 75 69.2021484375 86.2021484375 58 100 58 c 0
 113.797851562 58 125 69.2021484375 125 83 c 2
 125 233 l 2
 125 246.797851562 113.797851562 258 100 258 c 0
 86.2021484375 258 75 246.797851562 75 233 c 2
 75 83 l 2
446.157226562 255.391601562 m 0x7ee0
 410.732421875 255.391601562 395.96484375 258 391.25 258 c 0
 377.452148438 258 366.25 246.797851562 366.25 233 c 2
 366.25 83 l 2
 366.25 69.2021484375 377.452148438 58 391.25 58 c 0xbee0
 405.047851562 58 416.25 69.2021484375 416.25 83 c 2
 416.25 206.095703125 l 1
 424.748046875 205.692382812 434.8671875 205.391601562 446.157226562 205.391601562 c 0
 484.232421875 205.391601562 535.635742188 208.626953125 583.700195312 223.952148438 c 0
 621.919921875 236.13671875 659.639648438 256.517578125 683.822265625 291.983398438 c 0
 699.364257812 314.77734375 708.3359375 343.025390625 708.3359375 375.984375 c 0
 708.3359375 420.342773438 700.50390625 455.522460938 687.513671875 483.267578125 c 0
 671.223632812 518.059570312 646.952148438 540.201171875 623.591796875 553.287109375 c 0
 589.237304688 572.533203125 559.288085938 573.202148438 549.677734375 573 c 2
 150 573 l 2
 136.202148438 573 125 561.797851562 125 548 c 0
 125 534.202148438 136.202148438 523 150 523 c 2
 551.065429688 523.013671875 l 2
 554.178710938 523.013671875 576.75390625 522.212890625 599.208984375 509.633789062 c 0
 636.750976562 488.603515625 658.3359375 443.970703125 658.3359375 375.984375 c 0
 658.3359375 352.11328125 652.23828125 334.41015625 642.482421875 320.1015625 c 0
 627.313476562 297.854492188 600.9296875 281.934570312 568.515625 271.600585938 c 0
 528.288085938 258.774414062 481.1953125 255.391601562 446.157226562 255.391601562 c 0x7ee0
448.54296875 383 m 0x3f60
 448.54296875 355.38671875 426.15625 333 398.54296875 333 c 0
 370.92578125 333 348.54296875 355.38671875 348.54296875 383 c 0
 348.54296875 410.61328125 370.92578125 433 398.54296875 433 c 0
 426.15625 433 448.54296875 410.61328125 448.54296875 383 c 0x3f60
600 383 m 0
 600 355.38671875 577.61328125 333 550 333 c 0
 522.38671875 333 500 355.38671875 500 383 c 0
 500 410.61328125 522.38671875 433 550 433 c 0
 577.61328125 433 600 410.61328125 600 383 c 0
600 383 m 1024
EndSplineSet
Ligature2: "sitelen pona-1" s o w e l i 
EndChar
StartChar: suli.sp
Encoding: 354 61026 128
Width: 669
Flags: W
HStem: 58 21G<330 340> 588 20G<78 90 580 592>
VStem: 60 47<594 607.786> 563 47<594 607.786>
LayerCount: 3
Fore
SplineSet
85 608 m 0
 95 608 103 602 107 594 c 2
 335 139 l 1
 563 594 l 2
 567 602 575 608 585 608 c 0
 599 608 610 596 610 583 c 0
 610 579 609 576 607 572 c 2
 357 72 l 2
 353 64 345 58 335 58 c 0
 325 58 317 64 313 72 c 2
 63 572 l 2
 61 576 60 579 60 583 c 0
 60 596 71 608 85 608 c 0
EndSplineSet
Validated: 1
Ligature2: "sitelen pona-1" s u l i 
EndChar
StartChar: suno.sp
Encoding: 355 61027 129
Width: 681
Flags: W
HStem: 160 48<270.451 315 365 409.549> 308 50<65.1976 90 167 171.359 508.641 513 590 614.802> 458 48<270.451 315 365 409.549>
VStem: 167 48<263.451 308 358 402.549> 315 50<58.1976 83 160 164.359 501.641 506 583 607.802> 465 48<263.451 308 358 402.549>
CounterMasks: 1 fc
LayerCount: 3
Fore
SplineSet
340 458 m 0
 409 458 465 402 465 333 c 0
 465 264 409 208 340 208 c 0
 271 208 215 264 215 333 c 0
 215 402 271 458 340 458 c 0
365 583 m 2
 365 597 354 608 340 608 c 0
 326 608 315 597 315 583 c 2
 315 506 l 1
 238 495 178 435 167 358 c 1
 90 358 l 2
 76 358 65 347 65 333 c 0
 65 319 76 308 90 308 c 2
 167 308 l 1
 178 231 238 171 315 160 c 1
 315 83 l 2
 315 69 326 58 340 58 c 0
 354 58 365 69 365 83 c 2
 365 160 l 1
 442 171 502 231 513 308 c 1
 590 308 l 2
 604 308 615 319 615 333 c 0
 615 347 604 358 590 358 c 2
 513 358 l 1
 502 435 442 495 365 506 c 1
 365 583 l 2
EndSplineSet
Validated: 9
Ligature2: "sitelen pona-1" s u n o 
EndChar
StartChar: supa
Encoding: 356 61028 130
Width: 681
Flags: W
HStem: 387.374 50.001<64.201 89 588.999 613.799>
VStem: 164 50<137.576 162.375> 464 50<137.576 162.375>
LayerCount: 3
Fore
SplineSet
164 387.374023438 m 1
 164 162.375 l 2
 164 148.577148438 175.202148438 137.375 189 137.375 c 0
 202.797851562 137.375 214 148.577148438 214 162.375 c 2
 214 387.374023438 l 1
 464 387.37109375 l 1
 464 162.375 l 2
 464 148.577148438 475.202148438 137.375 489 137.375 c 0
 502.797851562 137.375 514 148.577148438 514 162.375 c 2
 514 387.372070312 l 1
 539 387.372070312 563.999023438 387.37109375 588.999023438 387.37109375 c 0
 602.797851562 387.37109375 614 398.573242188 614 412.37109375 c 0
 614 426.168945312 602.798828125 437.370117188 589.000976562 437.37109375 c 2
 89 437.375 l 2
 75.2021484375 437.375 64 426.172851562 64 412.375 c 0
 64 398.577148438 75.2021484375 387.375 89 387.375 c 0
 114 387.375 139 387.374023438 164 387.374023438 c 1
EndSplineSet
Ligature2: "sitelen pona-1" s u p a 
EndChar
StartChar: suwi.sp
Encoding: 357 61029 131
Width: 690
Flags: W
HStem: 123 100<301.438 384.562>
VStem: 293 100<131.438 214.562>
LayerCount: 3
Fore
SplineSet
393 173 m 1024
393 173 m 0
 393 145 371 123 343 123 c 0
 315 123 293 145 293 173 c 0
 293 201 315 223 343 223 c 0
 371 223 393 201 393 173 c 0
194 520 m 0
 185 520 177 516 173 509 c 2
 73 359 l 2
 62 342 75 320 94 320 c 0
 103 320 111 324 115 331 c 2
 194 450 l 1
 273 331 l 2
 277 324 285 320 294 320 c 0
 313 320 326 342 315 359 c 2
 215 509 l 2
 211 516 203 520 194 520 c 0
494 520 m 0
 485 520 477 516 473 509 c 2
 373 359 l 2
 362 342 375 320 394 320 c 0
 403 320 411 324 415 331 c 2
 494 450 l 1
 573 331 l 2
 577 324 585 320 594 320 c 0
 613 320 626 342 615 359 c 2
 515 509 l 2
 511 516 503 520 494 520 c 0
EndSplineSet
Validated: 41
Ligature2: "sitelen pona-1" s u w i
EndChar
StartChar: tan.sp
Encoding: 358 61030 132
Width: 765
Flags: W
HStem: 452.168 50<308.897 527.702>
VStem: 637.435 50.002<223.483 340.507>
LayerCount: 3
Fore
SplineSet
662.434570312 223.28125 m 0
 676.439453125 223.28125 687.436523438 234.529296875 687.436523438 248.694335938 c 0
 687.436523438 255.499023438 686.903320312 304.356445312 662.602539062 358.602539062 c 0
 624.967773438 442.611328125 545.716796875 502.16796875 415.604492188 502.16796875 c 0
 356.275390625 502.16796875 308.537109375 488.873046875 270.852539062 467.338867188 c 0
 212.063476562 433.744140625 179.838867188 381.5859375 162.395507812 335.734375 c 0
 160.509765625 330.776367188 158.787109375 325.876953125 157.212890625 321.061523438 c 1
 118.508789062 424.66015625 l 2
 114.961914062 434.154296875 105.805664062 440.921875 95.0810546875 440.921875 c 0
 78.708984375 440.921875 65.1796875 424.509765625 71.6533203125 407.18359375 c 2
 142.173828125 218.421875 l 2
 147.849609375 203.229492188 168.334960938 196.515625 181.912109375 208.219726562 c 2
 337.986328125 342.766601562 l 2
 343.305664062 347.352539062 346.67578125 354.139648438 346.67578125 361.70703125 c 0
 346.67578125 375.504882812 335.473632812 386.70703125 321.67578125 386.70703125 c 0
 315.4453125 386.70703125 309.745117188 384.422851562 305.365234375 380.647460938 c 2
 200.068359375 289.875 l 1
 202.447265625 298.7421875 205.423828125 308.193359375 209.146484375 317.979492188 c 0
 223.974609375 356.956054688 249.837890625 397.741210938 295.606445312 423.895507812 c 0
 325.138671875 440.770507812 363.821289062 452.16796875 415.604492188 452.16796875 c 0
 486.158203125 452.16796875 532.41796875 433.033203125 563.969726562 407.879882812 c 0
 589.307617188 387.6796875 605.932617188 362.786132812 616.946289062 338.201171875 c 0
 636.932617188 293.5859375 637.434570312 251.590820312 637.434570312 248.28125 c 0
 637.434570312 234.483398438 648.63671875 223.28125 662.434570312 223.28125 c 0
EndSplineSet
Ligature2: "sitelen pona-1" t a n 
EndChar
StartChar: taso.sp
Encoding: 359 61031 133
Width: 517
Flags: W
HStem: 308 50<67.1976 92>
VStem: 367 50<58.1976 83 583 607.802>
LayerCount: 3
Fore
SplineSet
367 358 m 1
 92 358 l 2
 78 358 67 347 67 333 c 0
 67 319 78 308 92 308 c 2
 367 308 l 1
 367 83 l 2
 367 69 378 58 392 58 c 0
 406 58 417 69 417 83 c 2
 417 583 l 2
 417 597 406 608 392 608 c 0
 378 608 367 597 367 583 c 2
 367 358 l 1
EndSplineSet
Validated: 9
Ligature2: "sitelen pona-1" t a s o
EndChar
StartChar: tawa.sp
Encoding: 360 61032 134
Width: 688
Flags: W
HStem: 58 50<153.727 232.743 523 630.802>
LayerCount: 3
Fore
SplineSet
606 58 m 2
 506 58 l 2
 496 58 488 64 484 73 c 2
 299 488 l 1
 121 119 l 1
 211 108 l 2
 223 107 233 96 233 83 c 0
 233 70 222 58 208 58 c 0
 207 58 206 58 205 58 c 2
 80 73 l 2
 68 75 58 86 58 98 c 0
 58 102 59 105 61 109 c 2
 277 559 l 2
 281 567 290 573 300 573 c 0
 310 573 319 567 323 558 c 2
 523 108 l 1
 606 108 l 2
 620 108 631 97 631 83 c 0
 631 69 620 58 606 58 c 2
EndSplineSet
Validated: 1
Ligature2: "sitelen pona-1" t a w a 
EndChar
